<svg width="273" height="138" viewBox="0 0 273 138" fill="none" xmlns="http://www.w3.org/2000/svg">

<g id="rapor-new" clip-path="url(#clip0_0_1)">
<rect width="595" height="842" transform="translate(0 -704.789)" fill="white"/>
<g id="assets_2">
<path fill-rule="evenodd" clip-rule="evenodd" d="M0.414433 145.871H4.58183C4.84479 145.472 4.9976 144.995 4.9976 144.48C4.9976 143.089 3.87831 141.964 2.49882 141.964C1.11795 141.964 -0.00134277 143.089 -0.00134277 144.48C-0.00134277 144.995 0.151476 145.472 0.414433 145.871ZM7.16184 145.871H11.6087C11.7849 145.526 11.8854 145.135 11.8854 144.72C11.8854 143.329 10.7661 142.202 9.38528 142.202C8.00441 142.202 6.88512 143.329 6.88512 144.72C6.88512 145.135 6.98562 145.526 7.16184 145.871ZM13.7853 145.871H18.7595C18.6315 144.599 17.5673 143.609 16.2717 143.609C14.9762 143.609 13.912 144.601 13.7853 145.871ZM20.6718 145.871H25.6473C25.6542 145.79 25.6584 145.709 25.6584 145.627C25.6584 144.236 24.5404 143.11 23.1596 143.11C21.7787 143.11 20.6594 144.236 20.6594 145.627C20.6594 145.709 20.6635 145.79 20.6718 145.871ZM27.561 145.871H32.5324C32.5407 145.782 32.5462 145.691 32.5462 145.6C32.5462 144.21 31.4269 143.083 30.046 143.083C28.6652 143.083 27.5472 144.21 27.5472 145.6C27.5472 145.691 27.5514 145.782 27.561 145.871ZM34.4475 145.871H39.4189C39.4285 145.782 39.4327 145.691 39.4327 145.599C39.4327 144.21 38.3147 143.083 36.9339 143.083C35.553 143.083 34.4337 144.21 34.4337 145.599C34.4337 145.691 34.4392 145.782 34.4475 145.871ZM42.3252 145.871H45.3155C45.9254 145.412 46.3205 144.678 46.3205 143.853C46.3205 142.463 45.2012 141.336 43.8203 141.336C42.4395 141.336 41.3215 142.463 41.3215 143.853C41.3215 144.678 41.7153 145.412 42.3252 145.871ZM48.208 145.871H53.2069V145.849C53.2069 144.458 52.089 143.331 50.7068 143.331C49.3273 143.331 48.208 144.458 48.208 145.849V145.871ZM63.1842 145.871H65.7794C65.4145 145.606 64.9671 145.449 64.4825 145.449C63.9978 145.449 63.549 145.606 63.1842 145.871ZM83.2998 145.871H86.9867C87.1092 145.606 87.1794 145.311 87.1794 144.999C87.1794 143.867 86.268 142.949 85.1432 142.949C84.0198 142.949 83.1084 143.867 83.1084 144.999C83.1084 145.311 83.1772 145.606 83.2998 145.871ZM90.1105 145.871H93.9502C93.6707 145.074 92.9163 144.504 92.031 144.504C91.1444 144.504 90.39 145.074 90.1105 145.871ZM119.23 145.871H119.928C120.7 145.709 121.28 145.02 121.28 144.193C121.28 143.246 120.519 142.479 119.58 142.479C118.639 142.479 117.877 143.246 117.877 144.193C117.877 145.02 118.458 145.709 119.23 145.871ZM125.921 145.871H127.011C127.683 145.642 128.168 145.001 128.168 144.247C128.168 143.3 127.405 142.534 126.466 142.534C125.527 142.534 124.764 143.3 124.764 144.247C124.764 145.001 125.249 145.642 125.921 145.871ZM131.778 145.871H134.929C135.01 145.67 135.054 145.451 135.054 145.221C135.054 144.275 134.293 143.507 133.354 143.507C132.414 143.507 131.651 144.275 131.651 145.221C131.651 145.451 131.696 145.67 131.778 145.871ZM138.539 145.871H141.942C141.921 144.942 141.167 144.193 140.24 144.193C139.312 144.193 138.558 144.942 138.539 145.871ZM145.473 145.871H148.78C148.6 145.119 147.928 144.562 147.127 144.562C146.326 144.562 145.654 145.119 145.473 145.871ZM152.57 145.871H155.459C155.157 145.386 154.623 145.062 154.015 145.062C153.405 145.062 152.871 145.386 152.57 145.871ZM200.89 145.871H203.557C203.773 145.587 203.9 145.233 203.9 144.849C203.9 143.916 203.149 143.16 202.224 143.16C201.299 143.16 200.547 143.916 200.547 144.849C200.547 145.233 200.675 145.587 200.89 145.871ZM207.458 145.871H210.764C210.632 145.071 209.942 144.461 209.11 144.461C208.279 144.461 207.589 145.071 207.458 145.871ZM215.442 145.871H216.555C216.38 145.808 216.192 145.775 215.998 145.775C215.803 145.775 215.616 145.808 215.442 145.871ZM235.738 145.871H237.58C237.336 145.649 237.014 145.513 236.659 145.513C236.305 145.513 235.982 145.649 235.738 145.871ZM249.265 145.871H251.602C251.609 145.82 251.613 145.767 251.613 145.713C251.613 145.057 251.085 144.526 250.433 144.526C249.782 144.526 249.254 145.057 249.254 145.713C249.254 145.767 249.258 145.82 249.265 145.871ZM270.287 145.871H271.901C272.003 145.716 272.062 145.531 272.062 145.333C272.062 144.795 271.628 144.36 271.094 144.36C270.56 144.36 270.128 144.795 270.128 145.333C270.128 145.531 270.187 145.716 270.287 145.871ZM2.49882 71.1849C1.11795 71.1849 -0.00134277 72.3122 -0.00134277 73.7029C-0.00134277 75.0921 1.11795 76.2194 2.49882 76.2194C3.87831 76.2194 4.9976 75.0921 4.9976 73.7029C4.9976 72.3122 3.87831 71.1849 2.49882 71.1849ZM2.49882 0.221833C1.96327 0.221833 1.53097 0.657197 1.53097 1.19516C1.53097 1.73313 1.96327 2.16988 2.49882 2.16988C3.03299 2.16988 3.46529 1.73313 3.46529 1.19516C3.46529 0.657197 3.03299 0.221833 2.49882 0.221833ZM2.49882 7.35267C1.89856 7.35267 1.41257 7.84211 1.41257 8.44663C1.41257 9.04976 1.89856 9.5392 2.49882 9.5392C3.0977 9.5392 3.58369 9.04976 3.58369 8.44663C3.58369 7.84211 3.0977 7.35267 2.49882 7.35267ZM2.49882 14.5085C1.84762 14.5085 1.31895 15.0409 1.31895 15.6967C1.31895 16.3525 1.84762 16.8836 2.49882 16.8836C3.15002 16.8836 3.67731 16.3525 3.67731 15.6967C3.67731 15.0409 3.15002 14.5085 2.49882 14.5085ZM2.49882 21.5617C1.73886 21.5617 1.12208 22.1828 1.12208 22.9482C1.12208 23.7121 1.73886 24.3333 2.49882 24.3333C3.25878 24.3333 3.87418 23.7121 3.87418 22.9482C3.87418 22.1828 3.25878 21.5617 2.49882 21.5617ZM2.49882 28.5095C1.57227 28.5095 0.821948 29.2651 0.821948 30.1982C0.821948 31.13 1.57227 31.8856 2.49882 31.8856C3.42399 31.8856 4.17431 31.13 4.17431 30.1982C4.17431 29.2651 3.42399 28.5095 2.49882 28.5095ZM2.49882 35.736C1.5585 35.736 0.797167 36.5027 0.797167 37.4483C0.797167 38.3953 1.5585 39.162 2.49882 39.162C3.43776 39.162 4.20047 38.3953 4.20047 37.4483C4.20047 36.5027 3.43776 35.736 2.49882 35.736ZM2.49882 42.6491C1.37402 42.6491 0.462619 43.5684 0.462619 44.6998C0.462619 45.8312 1.37402 46.749 2.49882 46.749C3.62224 46.749 4.53364 45.8312 4.53364 44.6998C4.53364 43.5684 3.62224 42.6491 2.49882 42.6491ZM2.49882 49.7148C1.27214 49.7148 0.278136 50.7159 0.278136 51.9499C0.278136 53.1852 1.27214 54.1863 2.49882 54.1863C3.72412 54.1863 4.71813 53.1852 4.71813 51.9499C4.71813 50.7159 3.72412 49.7148 2.49882 49.7148ZM2.49882 120.643C1.11795 120.643 -0.00134277 121.77 -0.00134277 123.16C-0.00134277 124.55 1.11795 125.678 2.49882 125.678C3.87831 125.678 4.9976 124.55 4.9976 123.16C4.9976 121.77 3.87831 120.643 2.49882 120.643ZM2.49882 99.3228C1.11795 99.3228 -0.00134277 100.45 -0.00134277 101.841C-0.00134277 103.231 1.11795 104.359 2.49882 104.359C3.87831 104.359 4.9976 103.231 4.9976 101.841C4.9976 100.45 3.87831 99.3228 2.49882 99.3228ZM2.49882 78.0038C1.11795 78.0038 -0.00134277 79.1297 -0.00134277 80.5217C-0.00134277 81.911 1.11795 83.0382 2.49882 83.0382C3.87831 83.0382 4.9976 81.911 4.9976 80.5217C4.9976 79.1297 3.87831 78.0038 2.49882 78.0038ZM2.49882 56.6834C1.11795 56.6834 -0.00134277 57.8106 -0.00134277 59.2013C-0.00134277 60.592 1.11795 61.7178 2.49882 61.7178C3.87831 61.7178 4.9976 60.592 4.9976 59.2013C4.9976 57.8106 3.87831 56.6834 2.49882 56.6834ZM2.49882 127.893C1.11795 127.893 -0.00134277 129.021 -0.00134277 130.411C-0.00134277 131.801 1.11795 132.928 2.49882 132.928C3.87831 132.928 4.9976 131.801 4.9976 130.411C4.9976 129.021 3.87831 127.893 2.49882 127.893ZM2.49882 106.574C1.11795 106.574 -0.00134277 107.702 -0.00134277 109.092C-0.00134277 110.481 1.11795 111.609 2.49882 111.609C3.87831 111.609 4.9976 110.481 4.9976 109.092C4.9976 107.702 3.87831 106.574 2.49882 106.574ZM2.49882 85.2539C1.11795 85.2539 -0.00134277 86.3811 -0.00134277 87.7718C-0.00134277 89.1625 1.11795 90.2897 2.49882 90.2897C3.87831 90.2897 4.9976 89.1625 4.9976 87.7718C4.9976 86.3811 3.87831 85.2539 2.49882 85.2539ZM2.49882 63.9349C1.11795 63.9349 -0.00134277 65.0607 -0.00134277 66.4514C-0.00134277 67.8421 1.11795 68.9693 2.49882 68.9693C3.87831 68.9693 4.9976 67.8421 4.9976 66.4514C4.9976 65.0607 3.87831 63.9349 2.49882 63.9349ZM2.49882 135.145C1.11795 135.145 -0.00134277 136.272 -0.00134277 137.661C-0.00134277 139.052 1.11795 140.179 2.49882 140.179C3.87831 140.179 4.9976 139.052 4.9976 137.661C4.9976 136.272 3.87831 135.145 2.49882 135.145ZM2.49882 113.824C1.11795 113.824 -0.00134277 114.952 -0.00134277 116.342C-0.00134277 117.733 1.11795 118.859 2.49882 118.859C3.87831 118.859 4.9976 117.733 4.9976 116.342C4.9976 114.952 3.87831 113.824 2.49882 113.824ZM2.49882 92.5053C1.11795 92.5053 -0.00134277 93.6326 -0.00134277 95.0219C-0.00134277 96.4125 1.11795 97.5398 2.49882 97.5398C3.87831 97.5398 4.9976 96.4125 4.9976 95.0219C4.9976 93.6326 3.87831 92.5053 2.49882 92.5053ZM9.38528 99.5627C8.00441 99.5627 6.88512 100.69 6.88512 102.081C6.88512 103.471 8.00441 104.597 9.38528 104.597C10.7661 104.597 11.8854 103.471 11.8854 102.081C11.8854 100.69 10.7661 99.5627 9.38528 99.5627ZM9.38528 28.5982C8.8511 28.5982 8.41743 29.035 8.41743 29.5729C8.41743 30.1109 8.8511 30.5476 9.38528 30.5476C9.91945 30.5476 10.3518 30.1109 10.3518 29.5729C10.3518 29.035 9.91945 28.5982 9.38528 28.5982ZM9.38528 35.7304C8.7864 35.7304 8.30041 36.2199 8.30041 36.823C8.30041 37.4275 8.7864 37.917 9.38528 37.917C9.98554 37.917 10.4701 37.4275 10.4701 36.823C10.4701 36.2199 9.98554 35.7304 9.38528 35.7304ZM9.38528 42.8876C8.73408 42.8876 8.20679 43.4186 8.20679 44.0745C8.20679 44.7303 8.73408 45.2613 9.38528 45.2613C10.0365 45.2613 10.5651 44.7303 10.5651 44.0745C10.5651 43.4186 10.0365 42.8876 9.38528 42.8876ZM9.38528 49.9394C8.62532 49.9394 8.00854 50.5592 8.00854 51.3245C8.00854 52.0899 8.62532 52.711 9.38528 52.711C10.1452 52.711 10.7606 52.0899 10.7606 51.3245C10.7606 50.5592 10.1452 49.9394 9.38528 49.9394ZM9.38528 56.8872C8.46011 56.8872 7.70841 57.6443 7.70841 58.576C7.70841 59.5077 8.46011 60.2634 9.38528 60.2634C10.3104 60.2634 11.0608 59.5077 11.0608 58.576C11.0608 57.6443 10.3104 56.8872 9.38528 56.8872ZM9.38528 64.1123C8.44496 64.1123 7.68363 64.8805 7.68363 65.8261C7.68363 66.7731 8.44496 67.5398 9.38528 67.5398C10.3242 67.5398 11.0869 66.7731 11.0869 65.8261C11.0869 64.8805 10.3242 64.1123 9.38528 64.1123ZM9.38528 71.0269C8.26048 71.0269 7.35045 71.9447 7.35045 73.0775C7.35045 74.2089 8.26048 75.1268 9.38528 75.1268C10.5101 75.1268 11.4215 74.2089 11.4215 73.0775C11.4215 71.9447 10.5101 71.0269 9.38528 71.0269ZM9.38528 78.0926C8.1586 78.0926 7.16459 79.0936 7.16459 80.3276C7.16459 81.563 8.1586 82.5641 9.38528 82.5641C10.612 82.5641 11.606 81.563 11.606 80.3276C11.606 79.0936 10.612 78.0926 9.38528 78.0926ZM9.38528 127.701C8.00441 127.701 6.88512 128.828 6.88512 130.218C6.88512 131.609 8.00441 132.735 9.38528 132.735C10.7661 132.735 11.8854 131.609 11.8854 130.218C11.8854 128.828 10.7661 127.701 9.38528 127.701ZM9.38528 106.382C8.00441 106.382 6.88512 107.507 6.88512 108.898C6.88512 110.289 8.00441 111.416 9.38528 111.416C10.7661 111.416 11.8854 110.289 11.8854 108.898C11.8854 107.507 10.7661 106.382 9.38528 106.382ZM9.38528 85.0625C8.00441 85.0625 6.88512 86.1884 6.88512 87.5791C6.88512 88.9697 8.00441 90.0956 9.38528 90.0956C10.7661 90.0956 11.8854 88.9697 11.8854 87.5791C11.8854 86.1884 10.7661 85.0625 9.38528 85.0625ZM9.38528 134.952C8.00441 134.952 6.88512 136.078 6.88512 137.469C6.88512 138.859 8.00441 139.986 9.38528 139.986C10.7661 139.986 11.8854 138.859 11.8854 137.469C11.8854 136.078 10.7661 134.952 9.38528 134.952ZM9.38528 113.632C8.00441 113.632 6.88512 114.759 6.88512 116.15C6.88512 117.539 8.00441 118.666 9.38528 118.666C10.7661 118.666 11.8854 117.539 11.8854 116.15C11.8854 114.759 10.7661 113.632 9.38528 113.632ZM9.38528 92.3112C8.00441 92.3112 6.88512 93.4399 6.88512 94.8291C6.88512 96.2198 8.00441 97.3471 9.38528 97.3471C10.7661 97.3471 11.8854 96.2198 11.8854 94.8291C11.8854 93.4399 10.7661 92.3112 9.38528 92.3112ZM9.38528 120.883C8.00441 120.883 6.88512 122.01 6.88512 123.4C6.88512 124.79 8.00441 125.918 9.38528 125.918C10.7661 125.918 11.8854 124.79 11.8854 123.4C11.8854 122.01 10.7661 120.883 9.38528 120.883ZM16.2717 122.289C14.8922 122.289 13.773 123.416 13.773 124.806C13.773 126.196 14.8922 127.323 16.2717 127.323C17.6526 127.323 18.7719 126.196 18.7719 124.806C18.7719 123.416 17.6526 122.289 16.2717 122.289ZM16.2731 51.3245C15.7376 51.3245 15.3053 51.7613 15.3053 52.2979C15.3053 52.8372 15.7376 53.2726 16.2731 53.2726C16.8059 53.2726 17.2396 52.8372 17.2396 52.2979C17.2396 51.7613 16.8059 51.3245 16.2731 51.3245ZM16.2731 58.4568C15.6729 58.4568 15.1869 58.9462 15.1869 59.5493C15.1869 60.1525 15.6729 60.6419 16.2731 60.6419C16.872 60.6419 17.358 60.1525 17.358 59.5493C17.358 58.9462 16.872 58.4568 16.2731 58.4568ZM16.2731 65.6125C15.6219 65.6125 15.0932 66.1436 15.0932 66.7994C15.0932 67.4552 15.6219 67.9876 16.2731 67.9876C16.9243 67.9876 17.4516 67.4552 17.4516 66.7994C17.4516 66.1436 16.9243 65.6125 16.2731 65.6125ZM16.2731 72.6657C15.5118 72.6657 14.8964 73.2855 14.8964 74.0509C14.8964 74.8162 15.5118 75.4374 16.2731 75.4374C17.0317 75.4374 17.6485 74.8162 17.6485 74.0509C17.6485 73.2855 17.0317 72.6657 16.2731 72.6657ZM16.2731 79.6136C15.3466 79.6136 14.5962 80.3692 14.5962 81.3009C14.5962 82.2341 15.3466 82.9897 16.2731 82.9897C17.1983 82.9897 17.9486 82.2341 17.9486 81.3009C17.9486 80.3692 17.1983 79.6136 16.2731 79.6136ZM16.2731 86.8387C15.3328 86.8387 14.5715 87.6068 14.5715 88.5524C14.5715 89.4994 15.3328 90.2661 16.2731 90.2661C17.2121 90.2661 17.9734 89.4994 17.9734 88.5524C17.9734 87.6068 17.2121 86.8387 16.2731 86.8387ZM16.2731 93.7532C15.1483 93.7532 14.2369 94.6711 14.2369 95.8039C14.2369 96.9353 15.1483 97.8531 16.2731 97.8531C17.3965 97.8531 18.3079 96.9353 18.3079 95.8039C18.3079 94.6711 17.3965 93.7532 16.2731 93.7532ZM16.2731 100.817C15.0464 100.817 14.0524 101.819 14.0524 103.054C14.0524 104.288 15.0464 105.29 16.2731 105.29C17.4984 105.29 18.4924 104.288 18.4924 103.054C18.4924 101.819 17.4984 100.817 16.2731 100.817ZM16.2717 129.108C14.8922 129.108 13.773 130.234 13.773 131.624C13.773 133.015 14.8922 134.142 16.2717 134.142C17.6526 134.142 18.7719 133.015 18.7719 131.624C18.7719 130.234 17.6526 129.108 16.2717 129.108ZM16.2717 107.787C14.8922 107.787 13.773 108.915 13.773 110.305C13.773 111.695 14.8922 112.822 16.2717 112.822C17.6526 112.822 18.7719 111.695 18.7719 110.305C18.7719 108.915 17.6526 107.787 16.2717 107.787ZM16.2717 136.358C14.8922 136.358 13.773 137.485 13.773 138.874C13.773 140.265 14.8922 141.392 16.2717 141.392C17.6526 141.392 18.7719 140.265 18.7719 138.874C18.7719 137.485 17.6526 136.358 16.2717 136.358ZM16.2717 115.038C14.8922 115.038 13.773 116.165 13.773 117.555C13.773 118.946 14.8922 120.072 16.2717 120.072C17.6526 120.072 18.7719 118.946 18.7719 117.555C18.7719 116.165 17.6526 115.038 16.2717 115.038ZM23.1596 136.291C21.7787 136.291 20.6594 137.419 20.6594 138.809C20.6594 140.199 21.7787 141.326 23.1596 141.326C24.5404 141.326 25.6584 140.199 25.6584 138.809C25.6584 137.419 24.5404 136.291 23.1596 136.291ZM23.1596 65.3269C22.6254 65.3269 22.1917 65.7637 22.1917 66.3016C22.1917 66.8396 22.6254 67.2764 23.1596 67.2764C23.6937 67.2764 24.1274 66.8396 24.1274 66.3016C24.1274 65.7637 23.6937 65.3269 23.1596 65.3269ZM23.1596 72.4591C22.5607 72.4591 22.0747 72.9486 22.0747 73.5517C22.0747 74.1562 22.5607 74.6457 23.1596 74.6457C23.7598 74.6457 24.2444 74.1562 24.2444 73.5517C24.2444 72.9486 23.7598 72.4591 23.1596 72.4591ZM23.1596 79.6149C22.5084 79.6149 21.9797 80.1474 21.9797 80.8032C21.9797 81.459 22.5084 81.99 23.1596 81.99C23.8108 81.99 24.3381 81.459 24.3381 80.8032C24.3381 80.1474 23.8108 79.6149 23.1596 79.6149ZM23.1596 86.6681C22.3996 86.6681 21.7842 87.2879 21.7842 88.0533C21.7842 88.8186 22.3996 89.4398 23.1596 89.4398C23.9195 89.4398 24.5349 88.8186 24.5349 88.0533C24.5349 87.2879 23.9195 86.6681 23.1596 86.6681ZM23.1596 93.6159C22.2344 93.6159 21.4841 94.3716 21.4841 95.3047C21.4841 96.2365 22.2344 96.9921 23.1596 96.9921C24.0847 96.9921 24.8351 96.2365 24.8351 95.3047C24.8351 94.3716 24.0847 93.6159 23.1596 93.6159ZM23.1596 100.841C22.2193 100.841 21.4579 101.609 21.4579 102.555C21.4579 103.502 22.2193 104.269 23.1596 104.269C24.0999 104.269 24.8612 103.502 24.8612 102.555C24.8612 101.609 24.0999 100.841 23.1596 100.841ZM23.1596 107.756C22.0348 107.756 21.1234 108.673 21.1234 109.806C21.1234 110.938 22.0348 111.856 23.1596 111.856C24.2844 111.856 25.1958 110.938 25.1958 109.806C25.1958 108.673 24.2844 107.756 23.1596 107.756ZM23.1596 114.82C21.9329 114.82 20.9389 115.821 20.9389 117.056C20.9389 118.292 21.9329 119.293 23.1596 119.293C24.3849 119.293 25.3789 118.292 25.3789 117.056C25.3789 115.821 24.3849 114.82 23.1596 114.82ZM23.1596 121.79C21.7787 121.79 20.6594 122.917 20.6594 124.308C20.6594 125.698 21.7787 126.824 23.1596 126.824C24.5404 126.824 25.6584 125.698 25.6584 124.308C25.6584 122.917 24.5404 121.79 23.1596 121.79ZM23.1596 129.04C21.7787 129.04 20.6594 130.167 20.6594 131.558C20.6594 132.949 21.7787 134.076 23.1596 134.076C24.5404 134.076 25.6584 132.949 25.6584 131.558C25.6584 130.167 24.5404 129.04 23.1596 129.04ZM30.0474 72.1181C29.5119 72.1181 29.0796 72.5548 29.0796 73.0928C29.0796 73.6308 29.5119 74.0661 30.0474 74.0661C30.5816 74.0661 31.0139 73.6308 31.0139 73.0928C31.0139 72.5548 30.5816 72.1181 30.0474 72.1181ZM30.0474 79.2503C29.4471 79.2503 28.9612 79.7397 28.9612 80.3429C28.9612 80.9474 29.4471 81.4368 30.0474 81.4368C30.6463 81.4368 31.1309 80.9474 31.1309 80.3429C31.1309 79.7397 30.6463 79.2503 30.0474 79.2503ZM30.0474 86.4075C29.3948 86.4075 28.8675 86.9385 28.8675 87.5943C28.8675 88.2501 29.3948 88.7826 30.0474 88.7826C30.6972 88.7826 31.2259 88.2501 31.2259 87.5943C31.2259 86.9385 30.6972 86.4075 30.0474 86.4075ZM30.0474 93.4593C29.2861 93.4593 28.6707 94.079 28.6707 94.8444C28.6707 95.6097 29.2861 96.2309 30.0474 96.2309C30.8074 96.2309 31.4228 95.6097 31.4228 94.8444C31.4228 94.079 30.8074 93.4593 30.0474 93.4593ZM30.0474 100.407C29.1209 100.407 28.3705 101.163 28.3705 102.096C28.3705 103.028 29.1209 103.783 30.0474 103.783C30.9726 103.783 31.7229 103.028 31.7229 102.096C31.7229 101.163 30.9726 100.407 30.0474 100.407ZM30.0474 107.632C29.1071 107.632 28.3458 108.4 28.3458 109.346C28.3458 110.293 29.1071 111.06 30.0474 111.06C30.9863 111.06 31.7477 110.293 31.7477 109.346C31.7477 108.4 30.9863 107.632 30.0474 107.632ZM30.0474 114.547C28.9226 114.547 28.0112 115.465 28.0112 116.597C28.0112 117.73 28.9226 118.647 30.0474 118.647C31.1708 118.647 32.0822 117.73 32.0822 116.597C32.0822 115.465 31.1708 114.547 30.0474 114.547ZM30.0474 121.611C28.8207 121.611 27.8267 122.612 27.8267 123.847C27.8267 125.083 28.8207 126.084 30.0474 126.084C31.2727 126.084 32.2667 125.083 32.2667 123.847C32.2667 122.612 31.2727 121.611 30.0474 121.611ZM30.046 128.581C28.6652 128.581 27.5472 129.708 27.5472 131.099C27.5472 132.488 28.6652 133.615 30.046 133.615C31.4269 133.615 32.5462 132.488 32.5462 131.099C32.5462 129.708 31.4269 128.581 30.046 128.581ZM30.046 135.832C28.6652 135.832 27.5472 136.958 27.5472 138.349C27.5472 139.74 28.6652 140.866 30.046 140.866C31.4269 140.866 32.5462 139.74 32.5462 138.349C32.5462 136.958 31.4269 135.832 30.046 135.832ZM36.9339 79.3695C36.3997 79.3695 35.966 79.8049 35.966 80.3429C35.966 80.8808 36.3997 81.3176 36.9339 81.3176C37.468 81.3176 37.9003 80.8808 37.9003 80.3429C37.9003 79.8049 37.468 79.3695 36.9339 79.3695ZM36.9339 86.5017C36.335 86.5017 35.849 86.9898 35.849 87.5943C35.849 88.1975 36.335 88.6869 36.9339 88.6869C37.5327 88.6869 38.0187 88.1975 38.0187 87.5943C38.0187 86.9898 37.5327 86.5017 36.9339 86.5017ZM36.9339 93.6575C36.2827 93.6575 35.754 94.1886 35.754 94.8444C35.754 95.5002 36.2827 96.0326 36.9339 96.0326C37.5851 96.0326 38.1124 95.5002 38.1124 94.8444C38.1124 94.1886 37.5851 93.6575 36.9339 93.6575ZM36.9339 100.709C36.1739 100.709 35.5571 101.331 35.5571 102.096C35.5571 102.861 36.1739 103.481 36.9339 103.481C37.6938 103.481 38.3092 102.861 38.3092 102.096C38.3092 101.331 37.6938 100.709 36.9339 100.709ZM36.9339 107.659C36.0073 107.659 35.2584 108.414 35.2584 109.346C35.2584 110.279 36.0073 111.035 36.9339 111.035C37.859 111.035 38.6094 110.279 38.6094 109.346C38.6094 108.414 37.859 107.659 36.9339 107.659ZM36.9339 114.884C35.9949 114.884 35.2322 115.65 35.2322 116.597C35.2322 117.543 35.9936 118.31 36.9339 118.31C37.8742 118.31 38.6355 117.543 38.6355 116.597C38.6355 115.65 37.8742 114.884 36.9339 114.884ZM36.9339 121.797C35.8091 121.797 34.8977 122.715 34.8977 123.847C34.8977 124.98 35.8091 125.898 36.9339 125.898C38.0573 125.898 38.9687 124.98 38.9687 123.847C38.9687 122.715 38.0573 121.797 36.9339 121.797ZM36.9339 128.862C35.7072 128.862 34.7132 129.864 34.7132 131.099C34.7132 132.333 35.7072 133.334 36.9339 133.334C38.1605 133.334 39.1532 132.333 39.1532 131.099C39.1532 129.864 38.1605 128.862 36.9339 128.862ZM36.9339 135.832C35.553 135.832 34.4337 136.958 34.4337 138.349C34.4337 139.74 35.553 140.866 36.9339 140.866C38.3147 140.866 39.4327 139.74 39.4327 138.349C39.4327 136.958 38.3147 135.832 36.9339 135.832ZM43.8203 84.8726C43.2862 84.8726 42.8539 85.3093 42.8539 85.8459C42.8539 86.3853 43.2862 86.8206 43.8203 86.8206C44.3545 86.8206 44.7882 86.3853 44.7882 85.8459C44.7882 85.3093 44.3545 84.8726 43.8203 84.8726ZM43.8203 92.0048C43.2214 92.0048 42.7355 92.4943 42.7355 93.0974C42.7355 93.7019 43.2214 94.1913 43.8203 94.1913C44.4192 94.1913 44.9066 93.7019 44.9066 93.0974C44.9066 92.4943 44.4192 92.0048 43.8203 92.0048ZM43.8203 99.1606C43.1705 99.1606 42.6418 99.693 42.6418 100.347C42.6418 101.003 43.1705 101.536 43.8203 101.536C44.4715 101.536 45.0002 101.003 45.0002 100.347C45.0002 99.693 44.4715 99.1606 43.8203 99.1606ZM43.8203 106.214C43.0604 106.214 42.445 106.834 42.445 107.599C42.445 108.364 43.0604 108.985 43.8203 108.985C44.5803 108.985 45.1971 108.364 45.1971 107.599C45.1971 106.834 44.5803 106.214 43.8203 106.214ZM43.8203 113.162C42.8952 113.162 42.1448 113.917 42.1448 114.85C42.1448 115.782 42.8952 116.538 43.8203 116.538C44.7469 116.538 45.4972 115.782 45.4972 114.85C45.4972 113.917 44.7469 113.162 43.8203 113.162ZM43.8203 120.387C42.8814 120.387 42.1187 121.153 42.1187 122.1C42.1187 123.047 42.8814 123.814 43.8203 123.814C44.7606 123.814 45.522 123.047 45.522 122.1C45.522 121.153 44.7606 120.387 43.8203 120.387ZM43.8203 127.301C42.6969 127.301 41.7855 128.219 41.7855 129.351C41.7855 130.483 42.6969 131.401 43.8203 131.401C44.9451 131.401 45.8565 130.483 45.8565 129.351C45.8565 128.219 44.9451 127.301 43.8203 127.301ZM43.8203 134.366C42.595 134.366 41.601 135.367 41.601 136.602C41.601 137.837 42.595 138.838 43.8203 138.838C45.047 138.838 46.041 137.837 46.041 136.602C46.041 135.367 45.047 134.366 43.8203 134.366ZM50.7082 86.8678C50.174 86.8678 49.7403 87.3032 49.7403 87.8425C49.7403 88.3805 50.174 88.8158 50.7082 88.8158C51.2423 88.8158 51.6746 88.3805 51.6746 87.8425C51.6746 87.3032 51.2423 86.8678 50.7082 86.8678ZM50.7082 94C50.1093 94 49.6219 94.4894 49.6219 95.0926C49.6219 95.6971 50.1093 96.1865 50.7082 96.1865C51.307 96.1865 51.793 95.6971 51.793 95.0926C51.793 94.4894 51.307 94 50.7082 94ZM50.7082 101.156C50.057 101.156 49.5283 101.688 49.5283 102.344C49.5283 103 50.057 103.531 50.7082 103.531C51.3594 103.531 51.8867 103 51.8867 102.344C51.8867 101.688 51.3594 101.156 50.7082 101.156ZM50.7082 108.209C49.9482 108.209 49.3314 108.829 49.3314 109.594C49.3314 110.359 49.9482 110.981 50.7082 110.981C51.4681 110.981 52.0835 110.359 52.0835 109.594C52.0835 108.829 51.4681 108.209 50.7082 108.209ZM50.7082 115.157C49.7816 115.157 49.0327 115.912 49.0327 116.846C49.0327 117.777 49.7816 118.533 50.7082 118.533C51.6333 118.533 52.3837 117.777 52.3837 116.846C52.3837 115.912 51.6333 115.157 50.7082 115.157ZM50.7082 122.382C49.7678 122.382 49.0065 123.15 49.0065 124.096C49.0065 125.043 49.7678 125.809 50.7082 125.809C51.6471 125.809 52.4098 125.043 52.4098 124.096C52.4098 123.15 51.6471 122.382 50.7082 122.382ZM50.7082 129.296C49.5834 129.296 48.672 130.214 48.672 131.347C48.672 132.479 49.5834 133.396 50.7082 133.396C51.8316 133.396 52.743 132.479 52.743 131.347C52.743 130.214 51.8316 129.296 50.7082 129.296ZM50.7082 136.361C49.4815 136.361 48.4875 137.362 48.4875 138.597C48.4875 139.833 49.4815 140.834 50.7082 140.834C51.9348 140.834 52.9275 139.833 52.9275 138.597C52.9275 137.362 51.9348 136.361 50.7082 136.361ZM57.5946 90.922C57.0604 90.922 56.6281 91.3573 56.6281 91.8953C56.6281 92.4333 57.0604 92.87 57.5946 92.87C58.1288 92.87 58.5625 92.4333 58.5625 91.8953C58.5625 91.3573 58.1288 90.922 57.5946 90.922ZM57.5946 98.0528C56.9957 98.0528 56.5098 98.5422 56.5098 99.1454C56.5098 99.7499 56.9957 100.239 57.5946 100.239C58.1949 100.239 58.6795 99.7499 58.6795 99.1454C58.6795 98.5422 58.1949 98.0528 57.5946 98.0528ZM57.5946 105.209C56.9434 105.209 56.4161 105.741 56.4161 106.397C56.4161 107.053 56.9434 107.584 57.5946 107.584C58.2458 107.584 58.7745 107.053 58.7745 106.397C58.7745 105.741 58.2458 105.209 57.5946 105.209ZM57.5946 112.262C56.8347 112.262 56.2193 112.882 56.2193 113.647C56.2193 114.412 56.8347 115.033 57.5946 115.033C58.3546 115.033 58.9714 114.412 58.9714 113.647C58.9714 112.882 58.3546 112.262 57.5946 112.262ZM57.5946 119.21C56.6695 119.21 55.9191 119.967 55.9191 120.898C55.9191 121.83 56.6695 122.586 57.5946 122.586C58.5198 122.586 59.2701 121.83 59.2701 120.898C59.2701 119.967 58.5198 119.21 57.5946 119.21ZM57.5946 126.436C56.6557 126.436 55.893 127.203 55.893 128.148C55.893 129.095 56.6557 129.862 57.5946 129.862C58.5349 129.862 59.2963 129.095 59.2963 128.148C59.2963 127.203 58.5349 126.436 57.5946 126.436ZM57.5946 133.349C56.4712 133.349 55.5598 134.267 55.5598 135.4C55.5598 136.531 56.4712 137.451 57.5946 137.451C58.7194 137.451 59.6308 136.531 59.6308 135.4C59.6308 134.267 58.7194 133.349 57.5946 133.349ZM57.5946 140.415C56.3679 140.415 55.3753 141.416 55.3753 142.65C55.3753 143.885 56.3679 144.886 57.5946 144.886C58.8213 144.886 59.8153 143.885 59.8153 142.65C59.8153 141.416 58.8213 140.415 57.5946 140.415ZM64.4825 95.955C63.9483 95.955 63.5146 96.3917 63.5146 96.9297C63.5146 97.4677 63.9483 97.9044 64.4825 97.9044C65.0166 97.9044 65.4489 97.4677 65.4489 96.9297C65.4489 96.3917 65.0166 95.955 64.4825 95.955ZM64.4825 103.087C63.8836 103.087 63.3976 103.577 63.3976 104.18C63.3976 104.784 63.8836 105.274 64.4825 105.274C65.0813 105.274 65.5673 104.784 65.5673 104.18C65.5673 103.577 65.0813 103.087 64.4825 103.087ZM64.4825 110.243C63.8313 110.243 63.3026 110.775 63.3026 111.431C63.3026 112.087 63.8313 112.619 64.4825 112.619C65.1337 112.619 65.6609 112.087 65.6609 111.431C65.6609 110.775 65.1337 110.243 64.4825 110.243ZM64.4825 117.296C63.7225 117.296 63.1071 117.916 63.1071 118.683C63.1071 119.448 63.7225 120.068 64.4825 120.068C65.2424 120.068 65.8578 119.448 65.8578 118.683C65.8578 117.916 65.2424 117.296 64.4825 117.296ZM64.4825 124.244C63.5559 124.244 62.8056 125.001 62.8056 125.933C62.8056 126.865 63.5559 127.62 64.4825 127.62C65.4076 127.62 66.158 126.865 66.158 125.933C66.158 125.001 65.4076 124.244 64.4825 124.244ZM64.4825 131.471C63.5421 131.471 62.7808 132.237 62.7808 133.183C62.7808 134.13 63.5421 134.897 64.4825 134.897C65.4214 134.897 66.1841 134.13 66.1841 133.183C66.1841 132.237 65.4214 131.471 64.4825 131.471ZM64.4825 138.384C63.3577 138.384 62.4463 139.302 62.4463 140.434C62.4463 141.566 63.3577 142.484 64.4825 142.484C65.6059 142.484 66.5173 141.566 66.5173 140.434C66.5173 139.302 65.6059 138.384 64.4825 138.384ZM71.3689 97.5037C70.8347 97.5037 70.4011 97.9405 70.4011 98.4784C70.4011 99.0164 70.8347 99.4518 71.3689 99.4518C71.9031 99.4518 72.3368 99.0164 72.3368 98.4784C72.3368 97.9405 71.9031 97.5037 71.3689 97.5037ZM71.3689 104.636C70.77 104.636 70.284 105.125 70.284 105.729C70.284 106.333 70.77 106.822 71.3689 106.822C71.9678 106.822 72.4538 106.333 72.4538 105.729C72.4538 105.125 71.9678 104.636 71.3689 104.636ZM71.3689 111.792C70.7177 111.792 70.1904 112.324 70.1904 112.98C70.1904 113.636 70.7177 114.167 71.3689 114.167C72.0201 114.167 72.5488 113.636 72.5488 112.98C72.5488 112.324 72.0201 111.792 71.3689 111.792ZM71.3689 118.845C70.609 118.845 69.9936 119.465 69.9936 120.23C69.9936 120.995 70.609 121.617 71.3689 121.617C72.1289 121.617 72.7457 120.995 72.7457 120.23C72.7457 119.465 72.1289 118.845 71.3689 118.845ZM71.3689 125.793C70.4437 125.793 69.6934 126.548 69.6934 127.48C69.6934 128.413 70.4437 129.169 71.3689 129.169C72.2941 129.169 73.0458 128.413 73.0458 127.48C73.0458 126.548 72.2941 125.793 71.3689 125.793ZM71.3689 133.018C70.43 133.018 69.6673 133.786 69.6673 134.732C69.6673 135.679 70.43 136.445 71.3689 136.445C72.3092 136.445 73.0706 135.679 73.0706 134.732C73.0706 133.786 72.3092 133.018 71.3689 133.018ZM71.3689 139.932C70.2455 139.932 69.3341 140.85 69.3341 141.983C69.3341 143.114 70.2455 144.032 71.3689 144.032C72.4937 144.032 73.4051 143.114 73.4051 141.983C73.4051 140.85 72.4937 139.932 71.3689 139.932ZM78.2568 98.9818C77.7226 98.9818 77.2889 99.4171 77.2889 99.9551C77.2889 100.493 77.7226 100.93 78.2568 100.93C78.7909 100.93 79.2232 100.493 79.2232 99.9551C79.2232 99.4171 78.7909 98.9818 78.2568 98.9818ZM78.2568 106.113C77.6565 106.113 77.1705 106.603 77.1705 107.207C77.1705 107.81 77.6565 108.299 78.2568 108.299C78.8556 108.299 79.3416 107.81 79.3416 107.207C79.3416 106.603 78.8556 106.113 78.2568 106.113ZM78.2568 113.27C77.6056 113.27 77.0769 113.801 77.0769 114.457C77.0769 115.112 77.6056 115.645 78.2568 115.645C78.908 115.645 79.4352 115.112 79.4352 114.457C79.4352 113.801 78.908 113.27 78.2568 113.27ZM78.2568 120.322C77.4968 120.322 76.88 120.943 76.88 121.708C76.88 122.473 77.4968 123.093 78.2568 123.093C79.0153 123.093 79.6321 122.473 79.6321 121.708C79.6321 120.943 79.0153 120.322 78.2568 120.322ZM78.2568 127.271C77.3316 127.271 76.5799 128.026 76.5799 128.958C76.5799 129.89 77.3316 130.647 78.2568 130.647C79.1819 130.647 79.9322 129.89 79.9322 128.958C79.9322 128.026 79.1819 127.271 78.2568 127.271ZM78.2568 134.496C77.3164 134.496 76.5551 135.263 76.5551 136.21C76.5551 137.155 77.3164 137.922 78.2568 137.922C79.1957 137.922 79.957 137.155 79.957 136.21C79.957 135.263 79.1957 134.496 78.2568 134.496ZM78.2568 141.409C77.132 141.409 76.2206 142.327 76.2206 143.46C76.2206 144.592 77.132 145.51 78.2568 145.51C79.3802 145.51 80.2916 144.592 80.2916 143.46C80.2916 142.327 79.3802 141.409 78.2568 141.409ZM85.1432 100.521C84.609 100.521 84.1754 100.958 84.1754 101.495C84.1754 102.033 84.609 102.469 85.1432 102.469C85.6774 102.469 86.1111 102.033 86.1111 101.495C86.1111 100.958 85.6774 100.521 85.1432 100.521ZM85.1432 107.653C84.5443 107.653 84.0583 108.142 84.0583 108.746C84.0583 109.35 84.5443 109.84 85.1432 109.84C85.7421 109.84 86.2281 109.35 86.2281 108.746C86.2281 108.142 85.7421 107.653 85.1432 107.653ZM85.1432 114.809C84.492 114.809 83.9633 115.341 83.9633 115.997C83.9633 116.653 84.492 117.184 85.1432 117.184C85.7944 117.184 86.3217 116.653 86.3217 115.997C86.3217 115.341 85.7944 114.809 85.1432 114.809ZM85.1432 121.862C84.3832 121.862 83.7678 122.482 83.7678 123.247C83.7678 124.012 84.3832 124.634 85.1432 124.634C85.9032 124.634 86.5186 124.012 86.5186 123.247C86.5186 122.482 85.9032 121.862 85.1432 121.862ZM85.1432 128.81C84.218 128.81 83.4677 129.567 83.4677 130.499C83.4677 131.43 84.218 132.186 85.1432 132.186C86.0684 132.186 86.8187 131.43 86.8187 130.499C86.8187 129.567 86.0684 128.81 85.1432 128.81ZM85.1432 136.035C84.2029 136.035 83.4416 136.803 83.4416 137.749C83.4416 138.696 84.2029 139.462 85.1432 139.462C86.0835 139.462 86.8449 138.696 86.8449 137.749C86.8449 136.803 86.0835 136.035 85.1432 136.035ZM92.031 102.075C91.4955 102.075 91.0632 102.512 91.0632 103.05C91.0632 103.588 91.4955 104.023 92.031 104.023C92.5638 104.023 92.9975 103.588 92.9975 103.05C92.9975 102.512 92.5638 102.075 92.031 102.075ZM92.031 109.207C91.4308 109.207 90.9448 109.697 90.9448 110.3C90.9448 110.903 91.4308 111.392 92.031 111.392C92.6299 111.392 93.1159 110.903 93.1159 110.3C93.1159 109.697 92.6299 109.207 92.031 109.207ZM92.031 116.363C91.3785 116.363 90.8512 116.894 90.8512 117.551C90.8512 118.207 91.3785 118.738 92.031 118.738C92.6822 118.738 93.2095 118.207 93.2095 117.551C93.2095 116.894 92.6822 116.363 92.031 116.363ZM92.031 123.416C91.2711 123.416 90.6543 124.036 90.6543 124.801C90.6543 125.567 91.2711 126.188 92.031 126.188C92.7896 126.188 93.4064 125.567 93.4064 124.801C93.4064 124.036 92.7896 123.416 92.031 123.416ZM92.031 130.364C91.1045 130.364 90.3542 131.12 90.3542 132.051C90.3542 132.985 91.1045 133.74 92.031 133.74C92.9562 133.74 93.7065 132.985 93.7065 132.051C93.7065 131.12 92.9562 130.364 92.031 130.364ZM92.031 137.589C91.0907 137.589 90.3294 138.357 90.3294 139.303C90.3294 140.25 91.0907 141.017 92.031 141.017C92.97 141.017 93.7327 140.25 93.7327 139.303C93.7327 138.357 92.97 137.589 92.031 137.589ZM98.9175 103.897C98.3833 103.897 97.9497 104.334 97.9497 104.872C97.9497 105.41 98.3833 105.845 98.9175 105.845C99.4517 105.845 99.884 105.41 99.884 104.872C99.884 104.334 99.4517 103.897 98.9175 103.897ZM98.9175 111.029C98.3186 111.029 97.8326 111.519 97.8326 112.122C97.8326 112.725 98.3186 113.214 98.9175 113.214C99.5164 113.214 100.002 112.725 100.002 112.122C100.002 111.519 99.5164 111.029 98.9175 111.029ZM98.9175 118.185C98.2663 118.185 97.739 118.716 97.739 119.373C97.739 120.029 98.2663 120.56 98.9175 120.56C99.5687 120.56 100.097 120.029 100.097 119.373C100.097 118.716 99.5687 118.185 98.9175 118.185ZM98.9175 125.238C98.1575 125.238 97.5421 125.858 97.5421 126.623C97.5421 127.389 98.1575 128.01 98.9175 128.01C99.6775 128.01 100.293 127.389 100.293 126.623C100.293 125.858 99.6775 125.238 98.9175 125.238ZM98.9175 132.186C97.991 132.186 97.2406 132.942 97.2406 133.875C97.2406 134.805 97.991 135.562 98.9175 135.562C99.8427 135.562 100.593 134.805 100.593 133.875C100.593 132.942 99.8427 132.186 98.9175 132.186ZM98.9175 139.411C97.9786 139.411 97.2159 140.178 97.2159 141.125C97.2159 142.072 97.9786 142.839 98.9175 142.839C99.8564 142.839 100.619 142.072 100.619 141.125C100.619 140.178 99.8564 139.411 98.9175 139.411ZM105.804 104.698C105.271 104.698 104.837 105.134 104.837 105.672C104.837 106.21 105.271 106.646 105.804 106.646C106.338 106.646 106.772 106.21 106.772 105.672C106.772 105.134 106.338 104.698 105.804 104.698ZM105.804 111.829C105.205 111.829 104.719 112.319 104.719 112.923C104.719 113.526 105.205 114.016 105.804 114.016C106.404 114.016 106.89 113.526 106.89 112.923C106.89 112.319 106.404 111.829 105.804 111.829ZM105.804 118.986C105.153 118.986 104.625 119.517 104.625 120.173C104.625 120.829 105.153 121.36 105.804 121.36C106.455 121.36 106.984 120.829 106.984 120.173C106.984 119.517 106.455 118.986 105.804 118.986ZM105.804 126.038C105.045 126.038 104.429 126.658 104.429 127.425C104.429 128.19 105.045 128.81 105.804 128.81C106.564 128.81 107.181 128.19 107.181 127.425C107.181 126.658 106.564 126.038 105.804 126.038ZM105.804 132.986C104.879 132.986 104.128 133.743 104.128 134.675C104.128 135.606 104.879 136.362 105.804 136.362C106.731 136.362 107.481 135.606 107.481 134.675C107.481 133.743 106.731 132.986 105.804 132.986ZM105.804 140.212C104.865 140.212 104.104 140.979 104.104 141.926C104.104 142.872 104.865 143.639 105.804 143.639C106.744 143.639 107.506 142.872 107.506 141.926C107.506 140.979 106.744 140.212 105.804 140.212ZM112.692 105.869C112.158 105.869 111.725 106.305 111.725 106.843C111.725 107.381 112.158 107.818 112.692 107.818C113.226 107.818 113.658 107.381 113.658 106.843C113.658 106.305 113.226 105.869 112.692 105.869ZM112.692 113.001C112.092 113.001 111.607 113.49 111.607 114.095C111.607 114.698 112.092 115.187 112.692 115.187C113.291 115.187 113.777 114.698 113.777 114.095C113.777 113.49 113.291 113.001 112.692 113.001ZM112.692 120.158C112.041 120.158 111.512 120.689 111.512 121.345C111.512 122.001 112.041 122.533 112.692 122.533C113.343 122.533 113.87 122.001 113.87 121.345C113.87 120.689 113.343 120.158 112.692 120.158ZM112.692 127.21C111.932 127.21 111.316 127.831 111.316 128.596C111.316 129.362 111.932 129.981 112.692 129.981C113.452 129.981 114.067 129.362 114.067 128.596C114.067 127.831 113.452 127.21 112.692 127.21ZM112.692 134.159C111.767 134.159 111.016 134.915 111.016 135.846C111.016 136.778 111.767 137.534 112.692 137.534C113.617 137.534 114.367 136.778 114.367 135.846C114.367 134.915 113.617 134.159 112.692 134.159ZM112.692 141.384C111.751 141.384 110.99 142.151 110.99 143.096C110.99 144.043 111.751 144.81 112.692 144.81C113.631 144.81 114.393 144.043 114.393 143.096C114.393 142.151 113.631 141.384 112.692 141.384ZM119.58 106.965C119.044 106.965 118.612 107.402 118.612 107.94C118.612 108.478 119.044 108.913 119.58 108.913C120.112 108.913 120.546 108.478 120.546 107.94C120.546 107.402 120.112 106.965 119.58 106.965ZM119.58 114.098C118.979 114.098 118.493 114.587 118.493 115.19C118.493 115.793 118.979 116.283 119.58 116.283C120.179 116.283 120.663 115.793 120.663 115.19C120.663 114.587 120.179 114.098 119.58 114.098ZM119.58 121.253C118.927 121.253 118.4 121.784 118.4 122.442C118.4 123.096 118.927 123.628 119.58 123.628C120.229 123.628 120.758 123.096 120.758 122.442C120.758 121.784 120.229 121.253 119.58 121.253ZM119.58 128.305C118.818 128.305 118.203 128.926 118.203 129.692C118.203 130.457 118.818 131.078 119.58 131.078C120.338 131.078 120.955 130.457 120.955 129.692C120.955 128.926 120.338 128.305 119.58 128.305ZM119.58 135.254C118.653 135.254 117.903 136.01 117.903 136.942C117.903 137.875 118.653 138.63 119.58 138.63C120.505 138.63 121.255 137.875 121.255 136.942C121.255 136.01 120.505 135.254 119.58 135.254ZM126.466 107.019C125.932 107.019 125.498 107.455 125.498 107.993C125.498 108.531 125.932 108.967 126.466 108.967C127 108.967 127.433 108.531 127.433 107.993C127.433 107.455 127 107.019 126.466 107.019ZM126.466 114.152C125.866 114.152 125.381 114.641 125.381 115.244C125.381 115.847 125.866 116.337 126.466 116.337C127.065 116.337 127.551 115.847 127.551 115.244C127.551 114.641 127.065 114.152 126.466 114.152ZM126.466 121.307C125.815 121.307 125.286 121.838 125.286 122.494C125.286 123.15 125.815 123.682 126.466 123.682C127.117 123.682 127.645 123.15 127.645 122.494C127.645 121.838 127.117 121.307 126.466 121.307ZM126.466 128.359C125.706 128.359 125.089 128.98 125.089 129.746C125.089 130.511 125.706 131.131 126.466 131.131C127.226 131.131 127.841 130.511 127.841 129.746C127.841 128.98 127.226 128.359 126.466 128.359ZM126.466 135.308C125.54 135.308 124.789 136.064 124.789 136.996C124.789 137.929 125.54 138.685 126.466 138.685C127.391 138.685 128.142 137.929 128.142 136.996C128.142 136.064 127.391 135.308 126.466 135.308ZM133.353 107.993C132.818 107.993 132.386 108.429 132.386 108.967C132.386 109.505 132.818 109.941 133.353 109.941C133.887 109.941 134.32 109.505 134.32 108.967C134.32 108.429 133.887 107.993 133.353 107.993ZM133.353 115.125C132.754 115.125 132.268 115.614 132.268 116.217C132.268 116.822 132.754 117.311 133.353 117.311C133.953 117.311 134.439 116.822 134.439 116.217C134.439 115.614 133.953 115.125 133.353 115.125ZM133.353 122.281C132.701 122.281 132.174 122.813 132.174 123.469C132.174 124.125 132.701 124.656 133.353 124.656C134.004 124.656 134.532 124.125 134.532 123.469C134.532 122.813 134.004 122.281 133.353 122.281ZM133.353 129.334C132.594 129.334 131.977 129.954 131.977 130.719C131.977 131.484 132.594 132.106 133.353 132.106C134.113 132.106 134.729 131.484 134.729 130.719C134.729 129.954 134.113 129.334 133.353 129.334ZM133.353 136.282C132.427 136.282 131.677 137.037 131.677 137.97C131.677 138.902 132.427 139.658 133.353 139.658C134.279 139.658 135.028 138.902 135.028 137.97C135.028 137.037 134.279 136.282 133.353 136.282ZM140.24 108.679C139.706 108.679 139.273 109.116 139.273 109.654C139.273 110.192 139.706 110.627 140.24 110.627C140.775 110.627 141.207 110.192 141.207 109.654C141.207 109.116 140.775 108.679 140.24 108.679ZM140.24 115.811C139.642 115.811 139.154 116.301 139.154 116.904C139.154 117.507 139.642 117.996 140.24 117.996C140.839 117.996 141.325 117.507 141.325 116.904C141.325 116.301 140.839 115.811 140.24 115.811ZM140.24 122.967C139.589 122.967 139.061 123.499 139.061 124.155C139.061 124.811 139.589 125.342 140.24 125.342C140.892 125.342 141.419 124.811 141.419 124.155C141.419 123.499 140.892 122.967 140.24 122.967ZM140.24 130.02C139.48 130.02 138.864 130.64 138.864 131.405C138.864 132.171 139.48 132.792 140.24 132.792C141 132.792 141.616 132.171 141.616 131.405C141.616 130.64 141 130.02 140.24 130.02ZM140.24 136.968C139.314 136.968 138.564 137.724 138.564 138.657C138.564 139.589 139.314 140.344 140.24 140.344C141.166 140.344 141.916 139.589 141.916 138.657C141.916 137.724 141.166 136.968 140.24 136.968ZM147.127 109.048C146.593 109.048 146.16 109.483 146.16 110.023C146.16 110.561 146.593 110.996 147.127 110.996C147.661 110.996 148.095 110.561 148.095 110.023C148.095 109.483 147.661 109.048 147.127 109.048ZM147.127 116.18C146.528 116.18 146.042 116.669 146.042 117.273C146.042 117.876 146.528 118.365 147.127 118.365C147.727 118.365 148.212 117.876 148.212 117.273C148.212 116.669 147.727 116.18 147.127 116.18ZM147.127 123.336C146.476 123.336 145.948 123.868 145.948 124.524C145.948 125.179 146.476 125.711 147.127 125.711C147.778 125.711 148.305 125.179 148.305 124.524C148.305 123.868 147.778 123.336 147.127 123.336ZM147.127 130.388C146.367 130.388 145.75 131.009 145.75 131.774C145.75 132.54 146.367 133.159 147.127 133.159C147.887 133.159 148.504 132.54 148.504 131.774C148.504 131.009 147.887 130.388 147.127 130.388ZM147.127 137.337C146.202 137.337 145.451 138.092 145.451 139.024C145.451 139.957 146.202 140.713 147.127 140.713C148.053 140.713 148.802 139.957 148.802 139.024C148.802 138.092 148.053 137.337 147.127 137.337ZM154.015 109.548C153.479 109.548 153.047 109.985 153.047 110.523C153.047 111.061 153.479 111.496 154.015 111.496C154.549 111.496 154.981 111.061 154.981 110.523C154.981 109.985 154.549 109.548 154.015 109.548ZM154.015 116.681C153.414 116.681 152.928 117.17 152.928 117.773C152.928 118.376 153.414 118.866 154.015 118.866C154.614 118.866 155.1 118.376 155.1 117.773C155.1 117.17 154.614 116.681 154.015 116.681ZM154.015 123.836C153.362 123.836 152.835 124.369 152.835 125.025C152.835 125.68 153.362 126.211 154.015 126.211C154.666 126.211 155.193 125.68 155.193 125.025C155.193 124.369 154.666 123.836 154.015 123.836ZM154.015 130.888C153.255 130.888 152.638 131.509 152.638 132.275C152.638 133.04 153.255 133.661 154.015 133.661C154.773 133.661 155.39 133.04 155.39 132.275C155.39 131.509 154.773 130.888 154.015 130.888ZM154.015 137.837C153.088 137.837 152.338 138.593 152.338 139.526C152.338 140.458 153.088 141.214 154.015 141.214C154.94 141.214 155.69 140.458 155.69 139.526C155.69 138.593 154.94 137.837 154.015 137.837ZM160.901 110.498C160.367 110.498 159.935 110.933 159.935 111.471C159.935 112.009 160.367 112.446 160.901 112.446C161.435 112.446 161.869 112.009 161.869 111.471C161.869 110.933 161.435 110.498 160.901 110.498ZM160.901 117.63C160.302 117.63 159.816 118.12 159.816 118.723C159.816 119.326 160.302 119.815 160.901 119.815C161.5 119.815 161.986 119.326 161.986 118.723C161.986 118.12 161.5 117.63 160.901 117.63ZM160.901 124.786C160.25 124.786 159.721 125.317 159.721 125.973C159.721 126.629 160.25 127.161 160.901 127.161C161.552 127.161 162.081 126.629 162.081 125.973C162.081 125.317 161.552 124.786 160.901 124.786ZM160.901 131.838C160.141 131.838 159.526 132.459 159.526 133.224C159.526 133.99 160.141 134.61 160.901 134.61C161.661 134.61 162.278 133.99 162.278 133.224C162.278 132.459 161.661 131.838 160.901 131.838ZM160.901 138.787C159.976 138.787 159.226 139.543 159.226 140.475C159.226 141.408 159.976 142.163 160.901 142.163C161.826 142.163 162.578 141.408 162.578 140.475C162.578 139.543 161.826 138.787 160.901 138.787ZM167.789 110.365C167.255 110.365 166.821 110.8 166.821 111.338C166.821 111.876 167.255 112.313 167.789 112.313C168.323 112.313 168.755 111.876 168.755 111.338C168.755 110.8 168.323 110.365 167.789 110.365ZM167.789 117.497C167.189 117.497 166.703 117.987 166.703 118.59C166.703 119.194 167.189 119.682 167.789 119.682C168.388 119.682 168.874 119.194 168.874 118.59C168.874 117.987 168.388 117.497 167.789 117.497ZM167.789 124.653C167.138 124.653 166.609 125.184 166.609 125.84C166.609 126.496 167.138 127.028 167.789 127.028C168.439 127.028 168.967 126.496 168.967 125.84C168.967 125.184 168.439 124.653 167.789 124.653ZM167.789 131.705C167.029 131.705 166.412 132.326 166.412 133.091C166.412 133.857 167.029 134.476 167.789 134.476C168.549 134.476 169.164 133.857 169.164 133.091C169.164 132.326 168.549 131.705 167.789 131.705ZM167.789 138.654C166.862 138.654 166.112 139.41 166.112 140.341C166.112 141.275 166.862 142.03 167.789 142.03C168.714 142.03 169.464 141.275 169.464 140.341C169.464 139.41 168.714 138.654 167.789 138.654ZM174.675 111.183C174.141 111.183 173.708 111.62 173.708 112.156C173.708 112.696 174.141 113.131 174.675 113.131C175.21 113.131 175.643 112.696 175.643 112.156C175.643 111.62 175.21 111.183 174.675 111.183ZM174.675 118.315C174.077 118.315 173.591 118.803 173.591 119.408C173.591 120.011 174.077 120.5 174.675 120.5C175.274 120.5 175.76 120.011 175.76 119.408C175.76 118.803 175.274 118.315 174.675 118.315ZM174.675 125.471C174.024 125.471 173.496 126.002 173.496 126.658C173.496 127.314 174.024 127.845 174.675 127.845C175.327 127.845 175.854 127.314 175.854 126.658C175.854 126.002 175.327 125.471 174.675 125.471ZM174.675 132.523C173.915 132.523 173.299 133.144 173.299 133.909C173.299 134.675 173.915 135.295 174.675 135.295C175.435 135.295 176.051 134.675 176.051 133.909C176.051 133.144 175.435 132.523 174.675 132.523ZM174.675 139.472C173.75 139.472 173 140.228 173 141.159C173 142.091 173.75 142.847 174.675 142.847C175.601 142.847 176.352 142.091 176.352 141.159C176.352 140.228 175.601 139.472 174.675 139.472ZM181.563 111.953C181.028 111.953 180.595 112.388 180.595 112.927C180.595 113.464 181.028 113.901 181.563 113.901C182.096 113.901 182.53 113.464 182.53 112.927C182.53 112.388 182.096 111.953 181.563 111.953ZM181.563 119.083C180.963 119.083 180.477 119.573 180.477 120.177C180.477 120.781 180.963 121.27 181.563 121.27C182.162 121.27 182.648 120.781 182.648 120.177C182.648 119.573 182.162 119.083 181.563 119.083ZM181.563 126.241C180.911 126.241 180.383 126.772 180.383 127.429C180.383 128.083 180.911 128.616 181.563 128.616C182.213 128.616 182.742 128.083 182.742 127.429C182.742 126.772 182.213 126.241 181.563 126.241ZM181.563 133.292C180.802 133.292 180.187 133.914 180.187 134.679C180.187 135.444 180.802 136.064 181.563 136.064C182.322 136.064 182.939 135.444 182.939 134.679C182.939 133.914 182.322 133.292 181.563 133.292ZM181.563 140.242C180.637 140.242 179.886 140.997 179.886 141.929C179.886 142.861 180.637 143.618 181.563 143.618C182.488 143.618 183.239 142.861 183.239 141.929C183.239 140.997 182.488 140.242 181.563 140.242ZM188.45 113.231C187.916 113.231 187.482 113.668 187.482 114.206C187.482 114.744 187.916 115.179 188.45 115.179C188.984 115.179 189.418 114.744 189.418 114.206C189.418 113.668 188.984 113.231 188.45 113.231ZM188.45 120.363C187.851 120.363 187.365 120.853 187.365 121.456C187.365 122.059 187.851 122.548 188.45 122.548C189.05 122.548 189.535 122.059 189.535 121.456C189.535 120.853 189.05 120.363 188.45 120.363ZM188.45 127.519C187.799 127.519 187.271 128.051 187.271 128.707C187.271 129.363 187.799 129.894 188.45 129.894C189.101 129.894 189.63 129.363 189.63 128.707C189.63 128.051 189.101 127.519 188.45 127.519ZM188.45 134.572C187.69 134.572 187.074 135.192 187.074 135.957C187.074 136.723 187.69 137.344 188.45 137.344C189.21 137.344 189.825 136.723 189.825 135.957C189.825 135.192 189.21 134.572 188.45 134.572ZM188.45 141.52C187.525 141.52 186.774 142.276 186.774 143.207C186.774 144.14 187.525 144.896 188.45 144.896C189.375 144.896 190.125 144.14 190.125 143.207C190.125 142.276 189.375 141.52 188.45 141.52ZM195.336 113.42C194.802 113.42 194.37 113.855 194.37 114.393C194.37 114.932 194.802 115.368 195.336 115.368C195.872 115.368 196.304 114.932 196.304 114.393C196.304 113.855 195.872 113.42 195.336 113.42ZM195.336 120.552C194.737 120.552 194.251 121.04 194.251 121.644C194.251 122.247 194.737 122.737 195.336 122.737C195.936 122.737 196.422 122.247 196.422 121.644C196.422 121.04 195.936 120.552 195.336 120.552ZM195.336 127.708C194.685 127.708 194.158 128.239 194.158 128.896C194.158 129.55 194.685 130.083 195.336 130.083C195.987 130.083 196.516 129.55 196.516 128.896C196.516 128.239 195.987 127.708 195.336 127.708ZM195.336 134.759C194.576 134.759 193.961 135.38 193.961 136.146C193.961 136.911 194.576 137.531 195.336 137.531C196.096 137.531 196.713 136.911 196.713 136.146C196.713 135.38 196.096 134.759 195.336 134.759ZM195.336 141.709C194.411 141.709 193.661 142.464 193.661 143.396C193.661 144.329 194.411 145.085 195.336 145.085C196.263 145.085 197.013 144.329 197.013 143.396C197.013 142.464 196.263 141.709 195.336 141.709ZM202.224 114.871C201.69 114.871 201.256 115.308 201.256 115.845C201.256 116.384 201.69 116.819 202.224 116.819C202.758 116.819 203.191 116.384 203.191 115.845C203.191 115.308 202.758 114.871 202.224 114.871ZM202.224 122.003C201.625 122.003 201.139 122.493 201.139 123.096C201.139 123.699 201.625 124.189 202.224 124.189C202.823 124.189 203.309 123.699 203.309 123.096C203.309 122.493 202.823 122.003 202.224 122.003ZM202.224 129.159C201.573 129.159 201.046 129.69 201.046 130.347C201.046 131.002 201.573 131.534 202.224 131.534C202.875 131.534 203.403 131.002 203.403 130.347C203.403 129.69 202.875 129.159 202.224 129.159ZM202.224 136.212C201.464 136.212 200.847 136.832 200.847 137.598C200.847 138.363 201.464 138.984 202.224 138.984C202.984 138.984 203.599 138.363 203.599 137.598C203.599 136.832 202.984 136.212 202.224 136.212ZM209.11 116.172C208.576 116.172 208.144 116.608 208.144 117.146C208.144 117.684 208.576 118.12 209.11 118.12C209.645 118.12 210.078 117.684 210.078 117.146C210.078 116.608 209.645 116.172 209.11 116.172ZM209.11 123.304C208.512 123.304 208.026 123.793 208.026 124.397C208.026 125 208.512 125.489 209.11 125.489C209.711 125.489 210.195 125 210.195 124.397C210.195 123.793 209.711 123.304 209.11 123.304ZM209.11 130.46C208.459 130.46 207.932 130.992 207.932 131.648C207.932 132.304 208.459 132.835 209.11 132.835C209.762 132.835 210.29 132.304 210.29 131.648C210.29 130.992 209.762 130.46 209.11 130.46ZM209.11 137.512C208.351 137.512 207.735 138.133 207.735 138.898C207.735 139.663 208.351 140.285 209.11 140.285C209.87 140.285 210.487 139.663 210.487 138.898C210.487 138.133 209.87 137.512 209.11 137.512ZM215.998 117.486C215.464 117.486 215.03 117.923 215.03 118.461C215.03 118.999 215.464 119.434 215.998 119.434C216.533 119.434 216.965 118.999 216.965 118.461C216.965 117.923 216.533 117.486 215.998 117.486ZM215.998 124.618C215.398 124.618 214.912 125.108 214.912 125.711C214.912 126.314 215.398 126.804 215.998 126.804C216.597 126.804 217.083 126.314 217.083 125.711C217.083 125.108 216.597 124.618 215.998 124.618ZM215.998 131.774C215.347 131.774 214.818 132.305 214.818 132.962C214.818 133.617 215.347 134.149 215.998 134.149C216.65 134.149 217.177 133.617 217.177 132.962C217.177 132.305 216.65 131.774 215.998 131.774ZM215.998 138.826C215.238 138.826 214.622 139.447 214.622 140.212C214.622 140.978 215.238 141.598 215.998 141.598C216.758 141.598 217.374 140.978 217.374 140.212C217.374 139.447 216.758 138.826 215.998 138.826ZM222.885 119.357C222.351 119.357 221.918 119.792 221.918 120.33C221.918 120.868 222.351 121.305 222.885 121.305C223.419 121.305 223.853 120.868 223.853 120.33C223.853 119.792 223.419 119.357 222.885 119.357ZM222.885 126.487C222.286 126.487 221.8 126.977 221.8 127.58C221.8 128.184 222.286 128.674 222.885 128.674C223.485 128.674 223.971 128.184 223.971 127.58C223.971 126.977 223.485 126.487 222.885 126.487ZM222.885 133.645C222.234 133.645 221.706 134.176 221.706 134.831C221.706 135.487 222.234 136.02 222.885 136.02C223.536 136.02 224.065 135.487 224.065 134.831C224.065 134.176 223.536 133.645 222.885 133.645ZM222.885 140.696C222.125 140.696 221.509 141.318 221.509 142.081C221.509 142.847 222.125 143.468 222.885 143.468C223.645 143.468 224.262 142.847 224.262 142.081C224.262 141.318 223.645 140.696 222.885 140.696ZM229.773 121.578C229.238 121.578 228.805 122.013 228.805 122.551C228.805 123.089 229.238 123.526 229.773 123.526C230.307 123.526 230.739 123.089 230.739 122.551C230.739 122.013 230.307 121.578 229.773 121.578ZM229.773 128.709C229.174 128.709 228.688 129.198 228.688 129.801C228.688 130.404 229.174 130.895 229.773 130.895C230.372 130.895 230.857 130.404 230.857 129.801C230.857 129.198 230.372 128.709 229.773 128.709ZM229.773 135.864C229.121 135.864 228.593 136.397 228.593 137.053C228.593 137.708 229.121 138.239 229.773 138.239C230.422 138.239 230.951 137.708 230.951 137.053C230.951 136.397 230.422 135.864 229.773 135.864ZM229.773 142.918C229.013 142.918 228.396 143.537 228.396 144.303C228.396 145.068 229.013 145.689 229.773 145.689C230.533 145.689 231.148 145.068 231.148 144.303C231.148 143.537 230.533 142.918 229.773 142.918ZM236.659 124.173C236.125 124.173 235.691 124.609 235.691 125.147C235.691 125.686 236.125 126.121 236.659 126.121C237.193 126.121 237.627 125.686 237.627 125.147C237.627 124.609 237.193 124.173 236.659 124.173ZM236.659 131.304C236.06 131.304 235.574 131.795 235.574 132.398C235.574 133.001 236.06 133.491 236.659 133.491C237.259 133.491 237.744 133.001 237.744 132.398C237.744 131.795 237.259 131.304 236.659 131.304ZM236.659 138.461C236.008 138.461 235.481 138.992 235.481 139.648C235.481 140.304 236.008 140.836 236.659 140.836C237.31 140.836 237.838 140.304 237.838 139.648C237.838 138.992 237.31 138.461 236.659 138.461ZM243.547 126.931C243.011 126.931 242.579 127.368 242.579 127.906C242.579 128.444 243.011 128.879 243.547 128.879C244.081 128.879 244.513 128.444 244.513 127.906C244.513 127.368 244.081 126.931 243.547 126.931ZM243.547 134.063C242.947 134.063 242.461 134.553 242.461 135.156C242.461 135.759 242.947 136.248 243.547 136.248C244.146 136.248 244.632 135.759 244.632 135.156C244.632 134.553 244.146 134.063 243.547 134.063ZM243.547 141.219C242.896 141.219 242.367 141.75 242.367 142.407C242.367 143.063 242.896 143.594 243.547 143.594C244.198 143.594 244.725 143.063 244.725 142.407C244.725 141.75 244.198 141.219 243.547 141.219ZM250.433 130.238C249.899 130.238 249.467 130.675 249.467 131.211C249.467 131.751 249.899 132.186 250.433 132.186C250.968 132.186 251.401 131.751 251.401 131.211C251.401 130.675 250.968 130.238 250.433 130.238ZM250.433 137.369C249.834 137.369 249.348 137.858 249.348 138.463C249.348 139.066 249.834 139.555 250.433 139.555C251.032 139.555 251.518 139.066 251.518 138.463C251.518 137.858 251.032 137.369 250.433 137.369ZM257.321 134.533C256.787 134.533 256.353 134.97 256.353 135.508C256.353 136.046 256.787 136.481 257.321 136.481C257.855 136.481 258.288 136.046 258.288 135.508C258.288 134.97 257.855 134.533 257.321 134.533ZM257.321 141.666C256.721 141.666 256.235 142.155 256.235 142.758C256.235 143.363 256.721 143.852 257.321 143.852C257.92 143.852 258.406 143.363 258.406 142.758C258.406 142.155 257.92 141.666 257.321 141.666ZM264.208 138.987C263.673 138.987 263.24 139.424 263.24 139.962C263.24 140.499 263.673 140.936 264.208 140.936C264.742 140.936 265.176 140.499 265.176 139.962C265.176 139.424 264.742 138.987 264.208 138.987Z" fill="#155689"/>
</g>
</g>
<defs>
<clipPath id="clip0_0_1">
<rect width="595" height="842" fill="white" transform="translate(0 -704.789)"/>
</clipPath>
</defs>
</svg>
