<svg width="11" height="11" viewBox="0 0 11 11" fill="none" xmlns="http://www.w3.org/2000/svg">
<path d="M8.43113 3.21847C8.06689 3.21919 7.77072 2.92426 7.77001 2.56001C7.7693 2.19577 8.06422 1.89959 8.42864 1.89888C8.79306 1.89817 9.08922 2.19327 9.08994 2.55752C9.09047 2.92176 8.79555 3.21776 8.43113 3.21847Z" fill="black"/>
<path fill-rule="evenodd" clip-rule="evenodd" d="M5.50526 8.3238C3.94583 8.32683 2.679 7.06515 2.67598 5.50534C2.67295 3.9459 3.93495 2.67887 5.49439 2.67584C7.05418 2.67281 8.32118 3.9352 8.32421 5.49448C8.32724 7.05428 7.06487 8.32077 5.50526 8.3238ZM5.49635 3.66683C4.48417 3.66861 3.66481 4.49101 3.66659 5.50339C3.66855 6.51593 4.49112 7.33513 5.5033 7.33317C6.51584 7.33121 7.33521 6.50898 7.33324 5.49644C7.33128 4.48389 6.50871 3.66487 5.49635 3.66683Z" fill="black"/>
<path fill-rule="evenodd" clip-rule="evenodd" d="M1.88797 0.296303C2.23724 0.159443 2.63695 0.0657077 3.22215 0.0380867C3.8088 0.00993328 3.99608 0.00351588 5.4894 0.000665785C6.98308 -0.00218432 7.17036 0.00351478 7.75699 0.029532C8.34239 0.0548364 8.74227 0.147147 9.09226 0.282583C9.45436 0.422113 9.76158 0.609941 10.0677 0.914846C10.3739 1.2201 10.5624 1.52626 10.7037 1.88783C10.8404 2.23747 10.9341 2.63682 10.9619 3.22239C10.9897 3.80885 10.9965 3.99597 10.9994 5.48948C11.0022 6.98282 10.9961 7.17029 10.9705 7.75729C10.945 8.34233 10.8529 8.74239 10.7174 9.09221C10.5775 9.45431 10.3901 9.76153 10.0852 10.0677C9.78028 10.374 9.47378 10.5624 9.11222 10.7039C8.76258 10.8404 8.36324 10.9341 7.77803 10.9621C7.1914 10.9899 7.0041 10.9965 5.51025 10.9993C4.01711 11.0022 3.82982 10.9965 3.24319 10.9706C2.65779 10.945 2.25774 10.8529 1.90793 10.7176C1.54583 10.5775 1.23861 10.3902 0.932459 10.0852C0.626134 9.78007 0.437427 9.47374 0.296293 9.11217C0.159435 8.76271 0.0660491 8.36318 0.038075 7.77814C0.0100998 7.19132 0.00350857 7.00385 0.000659571 5.51051C-0.00220043 4.017 0.00368347 3.82989 0.029341 3.24324C0.0551833 2.65767 0.146959 2.25778 0.282393 1.90761C0.422275 1.54568 0.609742 1.23864 0.915002 0.932309C1.2199 0.626159 1.5264 0.437258 1.88797 0.296303ZM2.26487 9.79361C2.45893 9.86828 2.7501 9.95738 3.28631 9.98073C3.86653 10.0059 4.04027 10.0114 5.50847 10.0085C6.97719 10.0058 7.15095 9.99961 7.73098 9.97235C8.26665 9.94686 8.55783 9.85669 8.75135 9.78114C9.00815 9.68081 9.19098 9.56088 9.38307 9.3686C9.57517 9.1756 9.69404 8.99223 9.79347 8.73544C9.86831 8.5412 9.95724 8.24984 9.98058 7.71363C10.0061 7.13376 10.0114 6.95984 10.0086 5.49127C10.0059 4.02305 9.99965 3.84913 9.97203 3.26908C9.94672 2.73322 9.85673 2.44204 9.781 2.24869C9.68067 1.99154 9.5611 1.80907 9.36829 1.61678C9.17547 1.4245 8.99211 1.306 8.73496 1.20656C8.54125 1.13154 8.24972 1.04279 7.71388 1.01945C7.13365 0.993967 6.95973 0.988795 5.49118 0.99165C4.02299 0.9945 3.84925 1.00038 3.2692 1.02783C2.73318 1.0533 2.44235 1.1433 2.24847 1.21904C1.99186 1.31936 1.80903 1.43858 1.61675 1.63158C1.42482 1.82457 1.30597 2.00758 1.20653 2.26491C1.13205 2.45879 1.04241 2.75033 1.01943 3.28619C0.994116 3.86641 0.988775 4.04034 0.991625 5.50855C0.994302 6.97712 1.00053 7.15105 1.0278 7.73074C1.05293 8.26695 1.14362 8.55777 1.21901 8.75184C1.31933 9.00827 1.43891 9.19111 1.63154 9.38339C1.82454 9.57496 2.0079 9.69417 2.26487 9.79361Z" fill="black"/>
</svg>
