<svg xmlns="http://www.w3.org/2000/svg" xmlns:xlink="http://www.w3.org/1999/xlink" width="1080" zoomAndPan="magnify" viewBox="0 0 810 809.999993" height="1080" preserveAspectRatio="xMidYMid meet" version="1.0"><defs><clipPath id="541e97b49c"><path d="M 136 0 L 810 0 L 810 246 L 136 246 Z M 136 0 " clip-rule="nonzero"/></clipPath><clipPath id="46c4604b21"><path d="M 206.257812 -756.539062 L 1674.960938 -654.402344 L 1572.199219 823.28125 L 103.496094 721.140625 Z M 206.257812 -756.539062 " clip-rule="nonzero"/></clipPath><clipPath id="28e7e4e5f6"><path d="M 206.257812 -756.539062 L 1674.960938 -654.402344 L 1572.199219 823.28125 L 103.496094 721.140625 Z M 206.257812 -756.539062 " clip-rule="nonzero"/></clipPath><clipPath id="8fe71b789d"><path d="M 143 0 L 810 0 L 810 260 L 143 260 Z M 143 0 " clip-rule="nonzero"/></clipPath><clipPath id="3aa108e335"><path d="M 206.257812 -756.539062 L 1674.960938 -654.402344 L 1572.199219 823.28125 L 103.496094 721.140625 Z M 206.257812 -756.539062 " clip-rule="nonzero"/></clipPath><clipPath id="8812455d22"><path d="M 206.257812 -756.539062 L 1674.960938 -654.402344 L 1572.199219 823.28125 L 103.496094 721.140625 Z M 206.257812 -756.539062 " clip-rule="nonzero"/></clipPath><clipPath id="738f6827e5"><path d="M 149 0 L 810 0 L 810 275 L 149 275 Z M 149 0 " clip-rule="nonzero"/></clipPath><clipPath id="d1fb2a68ec"><path d="M 206.257812 -756.539062 L 1674.960938 -654.402344 L 1572.199219 823.28125 L 103.496094 721.140625 Z M 206.257812 -756.539062 " clip-rule="nonzero"/></clipPath><clipPath id="ffdc5414a2"><path d="M 206.257812 -756.539062 L 1674.960938 -654.402344 L 1572.199219 823.28125 L 103.496094 721.140625 Z M 206.257812 -756.539062 " clip-rule="nonzero"/></clipPath><clipPath id="c8f12c38f0"><path d="M 156 0 L 810 0 L 810 289 L 156 289 Z M 156 0 " clip-rule="nonzero"/></clipPath><clipPath id="8c5ecd5a2e"><path d="M 206.257812 -756.539062 L 1674.960938 -654.402344 L 1572.199219 823.28125 L 103.496094 721.140625 Z M 206.257812 -756.539062 " clip-rule="nonzero"/></clipPath><clipPath id="63bf06997f"><path d="M 206.257812 -756.539062 L 1674.960938 -654.402344 L 1572.199219 823.28125 L 103.496094 721.140625 Z M 206.257812 -756.539062 " clip-rule="nonzero"/></clipPath><clipPath id="9cd970d276"><path d="M 163 0 L 810 0 L 810 303 L 163 303 Z M 163 0 " clip-rule="nonzero"/></clipPath><clipPath id="e2b21ae7be"><path d="M 206.257812 -756.539062 L 1674.960938 -654.402344 L 1572.199219 823.28125 L 103.496094 721.140625 Z M 206.257812 -756.539062 " clip-rule="nonzero"/></clipPath><clipPath id="b05ccd0a5c"><path d="M 206.257812 -756.539062 L 1674.960938 -654.402344 L 1572.199219 823.28125 L 103.496094 721.140625 Z M 206.257812 -756.539062 " clip-rule="nonzero"/></clipPath><clipPath id="a2646158b0"><path d="M 169 0 L 810 0 L 810 318 L 169 318 Z M 169 0 " clip-rule="nonzero"/></clipPath><clipPath id="961ddb6827"><path d="M 206.257812 -756.539062 L 1674.960938 -654.402344 L 1572.199219 823.28125 L 103.496094 721.140625 Z M 206.257812 -756.539062 " clip-rule="nonzero"/></clipPath><clipPath id="838d8fe2dd"><path d="M 206.257812 -756.539062 L 1674.960938 -654.402344 L 1572.199219 823.28125 L 103.496094 721.140625 Z M 206.257812 -756.539062 " clip-rule="nonzero"/></clipPath><clipPath id="8fee586179"><path d="M 176 0 L 810 0 L 810 332 L 176 332 Z M 176 0 " clip-rule="nonzero"/></clipPath><clipPath id="c1f04b4278"><path d="M 206.257812 -756.539062 L 1674.960938 -654.402344 L 1572.199219 823.28125 L 103.496094 721.140625 Z M 206.257812 -756.539062 " clip-rule="nonzero"/></clipPath><clipPath id="2847faa388"><path d="M 206.257812 -756.539062 L 1674.960938 -654.402344 L 1572.199219 823.28125 L 103.496094 721.140625 Z M 206.257812 -756.539062 " clip-rule="nonzero"/></clipPath><clipPath id="206a4b2a1f"><path d="M 183 0 L 810 0 L 810 347 L 183 347 Z M 183 0 " clip-rule="nonzero"/></clipPath><clipPath id="41aa3c3c10"><path d="M 206.257812 -756.539062 L 1674.960938 -654.402344 L 1572.199219 823.28125 L 103.496094 721.140625 Z M 206.257812 -756.539062 " clip-rule="nonzero"/></clipPath><clipPath id="bb427f4e7c"><path d="M 206.257812 -756.539062 L 1674.960938 -654.402344 L 1572.199219 823.28125 L 103.496094 721.140625 Z M 206.257812 -756.539062 " clip-rule="nonzero"/></clipPath><clipPath id="45a95b1b55"><path d="M 189 0 L 810 0 L 810 361 L 189 361 Z M 189 0 " clip-rule="nonzero"/></clipPath><clipPath id="28ef8e1ad8"><path d="M 206.257812 -756.539062 L 1674.960938 -654.402344 L 1572.199219 823.28125 L 103.496094 721.140625 Z M 206.257812 -756.539062 " clip-rule="nonzero"/></clipPath><clipPath id="61e0262348"><path d="M 206.257812 -756.539062 L 1674.960938 -654.402344 L 1572.199219 823.28125 L 103.496094 721.140625 Z M 206.257812 -756.539062 " clip-rule="nonzero"/></clipPath><clipPath id="eb5fc09c0d"><path d="M 196 0 L 810 0 L 810 376 L 196 376 Z M 196 0 " clip-rule="nonzero"/></clipPath><clipPath id="78ca8bfd14"><path d="M 206.257812 -756.539062 L 1674.960938 -654.402344 L 1572.199219 823.28125 L 103.496094 721.140625 Z M 206.257812 -756.539062 " clip-rule="nonzero"/></clipPath><clipPath id="b51e02e09c"><path d="M 206.257812 -756.539062 L 1674.960938 -654.402344 L 1572.199219 823.28125 L 103.496094 721.140625 Z M 206.257812 -756.539062 " clip-rule="nonzero"/></clipPath><clipPath id="a63132e167"><path d="M 203 0 L 810 0 L 810 390 L 203 390 Z M 203 0 " clip-rule="nonzero"/></clipPath><clipPath id="924b7836ea"><path d="M 206.257812 -756.539062 L 1674.960938 -654.402344 L 1572.199219 823.28125 L 103.496094 721.140625 Z M 206.257812 -756.539062 " clip-rule="nonzero"/></clipPath><clipPath id="f92acdd223"><path d="M 206.257812 -756.539062 L 1674.960938 -654.402344 L 1572.199219 823.28125 L 103.496094 721.140625 Z M 206.257812 -756.539062 " clip-rule="nonzero"/></clipPath><clipPath id="9391076ab0"><path d="M 209 0 L 810 0 L 810 405 L 209 405 Z M 209 0 " clip-rule="nonzero"/></clipPath><clipPath id="950ba40d85"><path d="M 206.257812 -756.539062 L 1674.960938 -654.402344 L 1572.199219 823.28125 L 103.496094 721.140625 Z M 206.257812 -756.539062 " clip-rule="nonzero"/></clipPath><clipPath id="cba9c3832d"><path d="M 206.257812 -756.539062 L 1674.960938 -654.402344 L 1572.199219 823.28125 L 103.496094 721.140625 Z M 206.257812 -756.539062 " clip-rule="nonzero"/></clipPath><clipPath id="edd7bcfffd"><path d="M 216 19 L 810 19 L 810 419 L 216 419 Z M 216 19 " clip-rule="nonzero"/></clipPath><clipPath id="9bf73a818b"><path d="M 206.257812 -756.539062 L 1674.960938 -654.402344 L 1572.199219 823.28125 L 103.496094 721.140625 Z M 206.257812 -756.539062 " clip-rule="nonzero"/></clipPath><clipPath id="be131b5c18"><path d="M 206.257812 -756.539062 L 1674.960938 -654.402344 L 1572.199219 823.28125 L 103.496094 721.140625 Z M 206.257812 -756.539062 " clip-rule="nonzero"/></clipPath><clipPath id="90213a4e0d"><path d="M 223 76 L 810 76 L 810 434 L 223 434 Z M 223 76 " clip-rule="nonzero"/></clipPath><clipPath id="df25bf64b5"><path d="M 206.257812 -756.539062 L 1674.960938 -654.402344 L 1572.199219 823.28125 L 103.496094 721.140625 Z M 206.257812 -756.539062 " clip-rule="nonzero"/></clipPath><clipPath id="dafe4eb2cf"><path d="M 206.257812 -756.539062 L 1674.960938 -654.402344 L 1572.199219 823.28125 L 103.496094 721.140625 Z M 206.257812 -756.539062 " clip-rule="nonzero"/></clipPath><clipPath id="2d1bb5ce0c"><path d="M 229 134 L 810 134 L 810 448 L 229 448 Z M 229 134 " clip-rule="nonzero"/></clipPath><clipPath id="e805b13f8b"><path d="M 206.257812 -756.539062 L 1674.960938 -654.402344 L 1572.199219 823.28125 L 103.496094 721.140625 Z M 206.257812 -756.539062 " clip-rule="nonzero"/></clipPath><clipPath id="6b305168ed"><path d="M 206.257812 -756.539062 L 1674.960938 -654.402344 L 1572.199219 823.28125 L 103.496094 721.140625 Z M 206.257812 -756.539062 " clip-rule="nonzero"/></clipPath><clipPath id="748dabe04b"><path d="M 236 191 L 810 191 L 810 462 L 236 462 Z M 236 191 " clip-rule="nonzero"/></clipPath><clipPath id="e42f808bff"><path d="M 206.257812 -756.539062 L 1674.960938 -654.402344 L 1572.199219 823.28125 L 103.496094 721.140625 Z M 206.257812 -756.539062 " clip-rule="nonzero"/></clipPath><clipPath id="d51915aba1"><path d="M 206.257812 -756.539062 L 1674.960938 -654.402344 L 1572.199219 823.28125 L 103.496094 721.140625 Z M 206.257812 -756.539062 " clip-rule="nonzero"/></clipPath><clipPath id="5efc65dc5e"><path d="M 243 221 L 810 221 L 810 477 L 243 477 Z M 243 221 " clip-rule="nonzero"/></clipPath><clipPath id="98540a90df"><path d="M 206.257812 -756.539062 L 1674.960938 -654.402344 L 1572.199219 823.28125 L 103.496094 721.140625 Z M 206.257812 -756.539062 " clip-rule="nonzero"/></clipPath><clipPath id="ae6b4f90a1"><path d="M 206.257812 -756.539062 L 1674.960938 -654.402344 L 1572.199219 823.28125 L 103.496094 721.140625 Z M 206.257812 -756.539062 " clip-rule="nonzero"/></clipPath><clipPath id="469ceb897d"><path d="M 249 242 L 810 242 L 810 491 L 249 491 Z M 249 242 " clip-rule="nonzero"/></clipPath><clipPath id="53185b98b6"><path d="M 206.257812 -756.539062 L 1674.960938 -654.402344 L 1572.199219 823.28125 L 103.496094 721.140625 Z M 206.257812 -756.539062 " clip-rule="nonzero"/></clipPath><clipPath id="1a43440e09"><path d="M 206.257812 -756.539062 L 1674.960938 -654.402344 L 1572.199219 823.28125 L 103.496094 721.140625 Z M 206.257812 -756.539062 " clip-rule="nonzero"/></clipPath><clipPath id="a4518907a3"><path d="M 256 264 L 810 264 L 810 506 L 256 506 Z M 256 264 " clip-rule="nonzero"/></clipPath><clipPath id="12090665ab"><path d="M 206.257812 -756.539062 L 1674.960938 -654.402344 L 1572.199219 823.28125 L 103.496094 721.140625 Z M 206.257812 -756.539062 " clip-rule="nonzero"/></clipPath><clipPath id="fd50063bb3"><path d="M 206.257812 -756.539062 L 1674.960938 -654.402344 L 1572.199219 823.28125 L 103.496094 721.140625 Z M 206.257812 -756.539062 " clip-rule="nonzero"/></clipPath><clipPath id="05289947c1"><path d="M 263 285 L 810 285 L 810 520 L 263 520 Z M 263 285 " clip-rule="nonzero"/></clipPath><clipPath id="b81028c5a2"><path d="M 206.257812 -756.539062 L 1674.960938 -654.402344 L 1572.199219 823.28125 L 103.496094 721.140625 Z M 206.257812 -756.539062 " clip-rule="nonzero"/></clipPath><clipPath id="76b48bd869"><path d="M 206.257812 -756.539062 L 1674.960938 -654.402344 L 1572.199219 823.28125 L 103.496094 721.140625 Z M 206.257812 -756.539062 " clip-rule="nonzero"/></clipPath><clipPath id="034c31ed59"><path d="M 269 307 L 810 307 L 810 535 L 269 535 Z M 269 307 " clip-rule="nonzero"/></clipPath><clipPath id="016eedf2a4"><path d="M 206.257812 -756.539062 L 1674.960938 -654.402344 L 1572.199219 823.28125 L 103.496094 721.140625 Z M 206.257812 -756.539062 " clip-rule="nonzero"/></clipPath><clipPath id="8757fe1811"><path d="M 206.257812 -756.539062 L 1674.960938 -654.402344 L 1572.199219 823.28125 L 103.496094 721.140625 Z M 206.257812 -756.539062 " clip-rule="nonzero"/></clipPath><clipPath id="ce8206b254"><path d="M 276 329 L 810 329 L 810 549 L 276 549 Z M 276 329 " clip-rule="nonzero"/></clipPath><clipPath id="eea53bd24c"><path d="M 206.257812 -756.539062 L 1674.960938 -654.402344 L 1572.199219 823.28125 L 103.496094 721.140625 Z M 206.257812 -756.539062 " clip-rule="nonzero"/></clipPath><clipPath id="b94d848af1"><path d="M 206.257812 -756.539062 L 1674.960938 -654.402344 L 1572.199219 823.28125 L 103.496094 721.140625 Z M 206.257812 -756.539062 " clip-rule="nonzero"/></clipPath><clipPath id="2b780f749d"><path d="M 283 350 L 810 350 L 810 594 L 283 594 Z M 283 350 " clip-rule="nonzero"/></clipPath><clipPath id="3d9f2bfc14"><path d="M 206.257812 -756.539062 L 1674.960938 -654.402344 L 1572.199219 823.28125 L 103.496094 721.140625 Z M 206.257812 -756.539062 " clip-rule="nonzero"/></clipPath><clipPath id="78eb410fd2"><path d="M 206.257812 -756.539062 L 1674.960938 -654.402344 L 1572.199219 823.28125 L 103.496094 721.140625 Z M 206.257812 -756.539062 " clip-rule="nonzero"/></clipPath><clipPath id="274bdd4af0"><path d="M 289 371 L 810 371 L 810 651 L 289 651 Z M 289 371 " clip-rule="nonzero"/></clipPath><clipPath id="0965b2c0a1"><path d="M 206.257812 -756.539062 L 1674.960938 -654.402344 L 1572.199219 823.28125 L 103.496094 721.140625 Z M 206.257812 -756.539062 " clip-rule="nonzero"/></clipPath><clipPath id="301a02b85d"><path d="M 206.257812 -756.539062 L 1674.960938 -654.402344 L 1572.199219 823.28125 L 103.496094 721.140625 Z M 206.257812 -756.539062 " clip-rule="nonzero"/></clipPath><clipPath id="05ffd2927e"><path d="M 296 393 L 810 393 L 810 709 L 296 709 Z M 296 393 " clip-rule="nonzero"/></clipPath><clipPath id="c791d8f70b"><path d="M 206.257812 -756.539062 L 1674.960938 -654.402344 L 1572.199219 823.28125 L 103.496094 721.140625 Z M 206.257812 -756.539062 " clip-rule="nonzero"/></clipPath><clipPath id="77135caadf"><path d="M 206.257812 -756.539062 L 1674.960938 -654.402344 L 1572.199219 823.28125 L 103.496094 721.140625 Z M 206.257812 -756.539062 " clip-rule="nonzero"/></clipPath><clipPath id="510569a4ae"><path d="M 303 414 L 810 414 L 810 766 L 303 766 Z M 303 414 " clip-rule="nonzero"/></clipPath><clipPath id="4dbe67c482"><path d="M 206.257812 -756.539062 L 1674.960938 -654.402344 L 1572.199219 823.28125 L 103.496094 721.140625 Z M 206.257812 -756.539062 " clip-rule="nonzero"/></clipPath><clipPath id="230c15cc37"><path d="M 206.257812 -756.539062 L 1674.960938 -654.402344 L 1572.199219 823.28125 L 103.496094 721.140625 Z M 206.257812 -756.539062 " clip-rule="nonzero"/></clipPath><clipPath id="3265d8e3b1"><path d="M 309 435 L 810 435 L 810 810 L 309 810 Z M 309 435 " clip-rule="nonzero"/></clipPath><clipPath id="a6372a0570"><path d="M 206.257812 -756.539062 L 1674.960938 -654.402344 L 1572.199219 823.28125 L 103.496094 721.140625 Z M 206.257812 -756.539062 " clip-rule="nonzero"/></clipPath><clipPath id="3c0f053615"><path d="M 206.257812 -756.539062 L 1674.960938 -654.402344 L 1572.199219 823.28125 L 103.496094 721.140625 Z M 206.257812 -756.539062 " clip-rule="nonzero"/></clipPath></defs><rect x="-81" width="972" fill="#ffffff" y="-80.999999" height="971.999992" fill-opacity="1"/><rect x="-81" width="972" fill="#ffffff" y="-80.999999" height="971.999992" fill-opacity="1"/><g clip-path="url(#541e97b49c)"><g clip-path="url(#46c4604b21)"><g clip-path="url(#28e7e4e5f6)"><path fill="#155689" d="M 136.625 245.15625 C 143.007812 155.449219 170.128906 66.890625 216.855469 -10.097656 C 234.203125 -38.417969 254.570312 -65.46875 280.003906 -87.050781 C 319.339844 -120.757812 363.5 -130.675781 414.15625 -125.097656 C 451.371094 -121.195312 489.140625 -110.726562 525.90625 -104.222656 C 620.964844 -87.027344 718.789062 -83.640625 814.410156 -98.238281 C 980.464844 -123.265625 1135.777344 -205.953125 1246.421875 -332.722656 C 1308.621094 -404.003906 1357.367188 -485.753906 1402.082031 -568.824219 C 1419.964844 -602.164062 1437.277344 -635.816406 1454.597656 -669.457031 C 1385.519531 -530.269531 1315.09375 -386.480469 1200.632812 -278.328125 C 1197.90625 -275.625 1193.132812 -271.277344 1190.164062 -268.671875 C 1183.691406 -262.8125 1175.292969 -255.3125 1168.675781 -249.984375 C 1139.683594 -225.664062 1108.136719 -203.683594 1075.644531 -184.375 C 1026.609375 -155.417969 973.933594 -132.363281 919.464844 -115.773438 C 810.433594 -82.386719 693.988281 -75.695312 581.128906 -89.90625 C 543.976562 -94.339844 505.804688 -102.023438 469.230469 -110.207031 C 393.824219 -126.9375 332.148438 -131.792969 272.300781 -74.390625 C 246.644531 -50.128906 226.394531 -20.609375 209 9.960938 C 168.144531 81.835938 143.933594 162.875 136.632812 245.148438 Z M 136.625 245.15625 " fill-opacity="1" fill-rule="nonzero"/></g></g></g><g clip-path="url(#8fe71b789d)"><g clip-path="url(#3aa108e335)"><g clip-path="url(#8812455d22)"><path fill="#155689" d="M 143.28125 259.609375 C 150.9375 171.773438 178.847656 85.417969 225.570312 10.539062 C 243.597656 -17.945312 264.597656 -45.191406 290.8125 -66.613281 C 366.765625 -129.296875 446.246094 -99.339844 532.304688 -83.757812 C 538.335938 -82.742188 550.070312 -80.773438 556.246094 -79.738281 C 560.957031 -79.050781 572.328125 -77.441406 576.84375 -76.785156 C 811.453125 -43.800781 1051.851562 -101.707031 1224.414062 -269.519531 C 1324.40625 -366.96875 1391.933594 -491.074219 1459.105469 -612.050781 C 1450.394531 -595.675781 1441.667969 -579.3125 1432.871094 -562.976562 C 1397.527344 -497.789062 1360.761719 -432.988281 1317.542969 -372.601562 C 1287.765625 -331.191406 1254.707031 -291.566406 1217.554688 -256.566406 C 1076.476562 -123.085938 886.949219 -58.957031 694.253906 -62.15625 C 639.660156 -62.824219 585.011719 -68.519531 531.3125 -78.300781 C 450.4375 -92.984375 371.863281 -123.144531 298.890625 -67.566406 C 272.226562 -47.410156 250.59375 -21.214844 232.203125 6.535156 C 182.546875 81.980469 152.636719 169.898438 143.28125 259.601562 Z M 143.28125 259.609375 " fill-opacity="1" fill-rule="nonzero"/></g></g></g><g clip-path="url(#738f6827e5)"><g clip-path="url(#d1fb2a68ec)"><g clip-path="url(#ffdc5414a2)"><path fill="#155689" d="M 149.9375 274.0625 C 158.84375 188.113281 187.46875 103.871094 234.304688 31.128906 C 257.871094 -5.082031 286.570312 -39.671875 324.371094 -61.585938 C 354.78125 -79.453125 389.464844 -84.882812 424.234375 -82.484375 C 442.511719 -81.375 460.601562 -78.421875 478.546875 -75.03125 C 593.628906 -49.957031 712.613281 -38.527344 829.796875 -54.046875 C 989.132812 -73.925781 1143.394531 -144.769531 1255.65625 -260.621094 C 1327.269531 -333.753906 1382.882812 -420.5625 1435.554688 -507.855469 C 1444.964844 -523.40625 1454.296875 -539.015625 1463.621094 -554.628906 C 1414.902344 -469.992188 1365.578125 -384.953125 1303.917969 -308.894531 C 1228.683594 -215.960938 1138.675781 -147.289062 1028.34375 -100.925781 C 901.988281 -47.492188 761.699219 -32.425781 625.792969 -45.78125 C 575.925781 -50.222656 526.492188 -59.796875 477.582031 -69.976562 C 410.1875 -83.207031 354.386719 -85.179688 298.84375 -38.628906 C 270.984375 -15.582031 248.785156 13.847656 229.679688 44.363281 C 186.605469 113.808594 159.699219 193.015625 149.933594 274.078125 Z M 149.9375 274.0625 " fill-opacity="1" fill-rule="nonzero"/></g></g></g><g clip-path="url(#c8f12c38f0)"><g clip-path="url(#8c5ecd5a2e)"><g clip-path="url(#63bf06997f)"><path fill="#155689" d="M 156.601562 288.503906 C 169.023438 185.308594 212.960938 75.449219 284.730469 -0.898438 C 299.472656 -16.1875 316.292969 -30.042969 334.878906 -40.414062 C 336.441406 -41.234375 339.292969 -42.808594 340.835938 -43.632812 C 345.429688 -45.917969 351.449219 -48.617188 356.328125 -50.457031 C 357.972656 -51.191406 360.964844 -52.101562 362.726562 -52.691406 C 364.882812 -53.371094 367.011719 -54.148438 369.191406 -54.746094 C 372.042969 -55.449219 376.421875 -56.605469 379.050781 -57.214844 C 380.933594 -57.570312 387.023438 -58.679688 389.039062 -59.0625 C 404.589844 -61.308594 420.566406 -61.765625 436.21875 -60.640625 C 474.078125 -58.089844 511.273438 -48.550781 548.554688 -42.253906 C 742.21875 -8.652344 944.140625 -23.558594 1118.5 -119.886719 C 1161.203125 -143.550781 1201.605469 -171.628906 1238.261719 -203.890625 C 1278.175781 -239.28125 1314.074219 -279.183594 1346.828125 -321.261719 C 1390.6875 -377.410156 1429.410156 -437.515625 1468.15625 -497.257812 C 1453.980469 -474.582031 1439.835938 -451.886719 1425.277344 -429.449219 C 1380.59375 -360.148438 1332.6875 -292.371094 1274.914062 -233.234375 C 1085.125 -38.382812 807.53125 10.242188 547.667969 -37.125 C 519.207031 -42.132812 490.804688 -48.707031 462.304688 -52.984375 C 447.085938 -55.125 431.429688 -56.726562 416.058594 -56.515625 C 410.792969 -56.539062 404.785156 -56.175781 399.554688 -55.773438 C 395.101562 -55.253906 393.566406 -55.070312 389.722656 -54.617188 C 389.722656 -54.617188 383.234375 -53.464844 383.234375 -53.464844 C 383.234375 -53.464844 379.984375 -52.886719 379.984375 -52.886719 C 375.101562 -51.730469 368.851562 -50.253906 364.089844 -48.574219 C 317.625 -33.625 281.359375 3.863281 253.242188 42.433594 C 201.371094 114.828125 168.714844 200.382812 156.613281 288.496094 Z M 156.601562 288.503906 " fill-opacity="1" fill-rule="nonzero"/></g></g></g><g clip-path="url(#9cd970d276)"><g clip-path="url(#e2b21ae7be)"><g clip-path="url(#b05ccd0a5c)"><path fill="#155689" d="M 163.257812 302.957031 C 177.597656 200.695312 221.46875 96.332031 293.226562 21.027344 C 319.476562 -5.816406 351.628906 -27.46875 388.78125 -35.402344 C 392.925781 -36.113281 397.839844 -37.207031 401.863281 -37.636719 C 407.78125 -38.480469 414.140625 -38.949219 420.015625 -39.296875 C 435.875 -39.871094 452.066406 -38.90625 467.808594 -36.863281 C 500.304688 -32.757812 532.46875 -25.175781 564.785156 -20.179688 C 612.109375 -12.578125 659.960938 -7.367188 707.851562 -5.585938 C 960.28125 4.863281 1189.464844 -78.039062 1351.011719 -277.226562 C 1363.238281 -291.824219 1376.339844 -308.058594 1387.945312 -323.167969 C 1417.285156 -361.148438 1445.007812 -400.636719 1472.664062 -439.84375 C 1440.785156 -392.945312 1408.445312 -345.890625 1373.5 -301.1875 C 1286.28125 -188.394531 1189.898438 -106.546875 1055.996094 -54.378906 C 898.25 7.941406 723.125 12.113281 557.492188 -16.234375 C 533.957031 -20.277344 510.027344 -25.332031 486.582031 -29.3125 C 465.242188 -32.90625 443.480469 -35.445312 421.816406 -34.84375 C 380.484375 -33.769531 346.953125 -20.023438 315.019531 6.03125 C 306.867188 12.828125 298.492188 20.46875 291.195312 28.199219 C 221.4375 103.523438 179.300781 202.039062 163.257812 302.957031 Z M 163.257812 302.957031 " fill-opacity="1" fill-rule="nonzero"/></g></g></g><g clip-path="url(#a2646158b0)"><g clip-path="url(#961ddb6827)"><g clip-path="url(#838d8fe2dd)"><path fill="#155689" d="M 169.917969 317.398438 C 184.417969 225.28125 222.367188 136.171875 282.109375 64.25 C 306.4375 35.59375 335.515625 9.640625 370.609375 -4.902344 C 408.960938 -20.957031 451.75 -19.550781 492.050781 -13.359375 C 517.558594 -9.457031 542.6875 -4.273438 568.109375 -0.191406 C 711.28125 22.898438 860.058594 24.933594 1000.8125 -13.265625 C 1087.390625 -36.617188 1170.371094 -74.898438 1242.25 -128.765625 C 1279.824219 -157.085938 1314.464844 -189.273438 1346.515625 -223.710938 C 1393.46875 -273.652344 1435.371094 -328.207031 1477.175781 -382.464844 C 1436.222656 -327.457031 1394.816406 -272.550781 1348.402344 -221.957031 C 1302.058594 -171.34375 1249.902344 -125.367188 1191.222656 -89.472656 C 1103.273438 -35.359375 1003.152344 -2.058594 901.101562 12.304688 C 794.648438 27.550781 686.082031 23.121094 580.046875 6.632812 C 550.457031 2.1875 520.847656 -4.160156 491.363281 -8.816406 C 451.703125 -14.992188 409.839844 -16.777344 372.078125 -1.304688 C 336.46875 13.203125 306.988281 39.589844 282.421875 68.714844 C 223.601562 139.574219 185.585938 226.839844 169.917969 317.390625 Z M 169.917969 317.398438 " fill-opacity="1" fill-rule="nonzero"/></g></g></g><g clip-path="url(#8fee586179)"><g clip-path="url(#c1f04b4278)"><g clip-path="url(#2847faa388)"><path fill="#155689" d="M 176.574219 331.851562 C 184.902344 284.261719 199.722656 237.46875 220.617188 193.898438 C 251.25 130.4375 300.507812 58.789062 363.613281 24.664062 C 422.925781 -7.167969 484.019531 4.535156 546.898438 15.667969 C 759.921875 53.910156 991.128906 49.777344 1185.285156 -55.410156 C 1274.589844 -102.964844 1349.082031 -173.371094 1415.828125 -248.554688 C 1438.1875 -273.695312 1459.964844 -299.359375 1481.699219 -325.050781 C 1357.097656 -170.5625 1243.628906 -51.648438 1047.15625 6.226562 C 966.378906 30.707031 881.855469 41.757812 797.574219 42.753906 C 721.667969 43.59375 645.828125 36.816406 571 24.484375 C 529.683594 17.859375 488.433594 7.796875 446.425781 8.285156 C 442.96875 8.339844 437.386719 8.476562 433.933594 8.792969 C 432.699219 8.898438 429.0625 9.070312 427.707031 9.289062 C 424.332031 9.722656 418.695312 10.257812 415.339844 10.980469 C 415.339844 10.980469 409.195312 12.066406 409.195312 12.066406 C 409.195312 12.066406 403.128906 13.511719 403.128906 13.511719 C 399.417969 14.273438 394.746094 15.859375 391.136719 16.921875 C 388.976562 17.546875 387.257812 18.292969 385.261719 19 C 349.855469 32.125 320.15625 57.125 295.15625 84.917969 C 234.046875 154.34375 193.945312 241.21875 176.574219 331.851562 Z M 176.574219 331.851562 " fill-opacity="1" fill-rule="nonzero"/></g></g></g><g clip-path="url(#206a4b2a1f)"><g clip-path="url(#41aa3c3c10)"><g clip-path="url(#bb427f4e7c)"><path fill="#155689" d="M 183.230469 346.292969 C 190.300781 309.929688 201.246094 273.871094 215.855469 239.804688 C 244.949219 171.894531 295.238281 95.800781 358.015625 55.125 C 379.035156 41.660156 402.800781 32.109375 427.558594 28.269531 C 435.609375 27.046875 444.289062 26.171875 452.445312 25.925781 C 485.726562 24.707031 518.667969 30.433594 551.292969 35.9375 C 745.007812 69.457031 950.816406 74.203125 1136.25 0.867188 C 1178.355469 -15.664062 1219.148438 -36.191406 1257.074219 -60.898438 C 1329.984375 -107.964844 1392.765625 -168.785156 1452.242188 -231.574219 C 1463.644531 -243.523438 1474.929688 -255.59375 1486.226562 -267.652344 C 1418.390625 -192.769531 1348.5 -118.078125 1263.984375 -61.679688 C 1127.460938 30.15625 960.089844 65.421875 797.296875 64.105469 C 714.503906 63.640625 632 54.613281 550.558594 40.277344 C 534.289062 37.449219 518.03125 34.652344 501.707031 32.632812 C 483.351562 30.332031 464.871094 29.1875 446.457031 30.234375 C 438.546875 30.683594 429.90625 31.671875 422.117188 33.15625 C 418.199219 33.757812 413.933594 34.957031 410.152344 35.792969 C 331.390625 56.410156 270.207031 138.207031 233.324219 206.976562 C 210.148438 250.683594 193.4375 297.890625 183.238281 346.304688 Z M 183.230469 346.292969 " fill-opacity="1" fill-rule="nonzero"/></g></g></g><g clip-path="url(#45a95b1b55)"><g clip-path="url(#28ef8e1ad8)"><g clip-path="url(#61e0262348)"><path fill="#155689" d="M 189.886719 360.746094 C 201.496094 306.164062 222.015625 253.367188 250.421875 205.335938 C 286.996094 144.867188 341.128906 78.800781 410.542969 56.453125 C 473.9375 36.210938 540.335938 55.457031 604.09375 63.792969 C 833.652344 97.757812 1085.058594 89.957031 1285.695312 -39.0625 C 1317.980469 -59.773438 1348.992188 -83.160156 1378.46875 -107.691406 C 1417.332031 -140.179688 1454.191406 -175.21875 1490.742188 -210.253906 C 1450.410156 -170.363281 1409.40625 -130.726562 1365.636719 -94.570312 C 1328.089844 -63.59375 1287.988281 -35.242188 1245.398438 -11.613281 C 1167.082031 31.863281 1080.3125 58.785156 992.082031 73 C 847.285156 96.128906 699.230469 84.859375 555.347656 60.484375 C 508.003906 52.613281 458.339844 45.078125 411.625 59.828125 C 342.214844 81.589844 287.261719 148.679688 250.574219 208.953125 C 222.4375 255.839844 202.128906 307.460938 189.894531 360.738281 Z M 189.886719 360.746094 " fill-opacity="1" fill-rule="nonzero"/></g></g></g><g clip-path="url(#eb5fc09c0d)"><g clip-path="url(#78ca8bfd14)"><g clip-path="url(#b51e02e09c)"><path fill="#155689" d="M 196.550781 375.199219 C 214.6875 297.449219 251.085938 223.796875 303.121094 163.140625 C 318.796875 144.96875 335.917969 127.90625 354.972656 113.277344 C 437.808594 48.714844 513.925781 70.503906 608.453125 84.078125 C 858.90625 120.707031 1130.042969 115.277344 1344.804688 -34.78125 C 1397.746094 -70.351562 1446.714844 -111.554688 1495.25 -152.839844 C 1447.28125 -110.765625 1398.667969 -69.195312 1346.03125 -32.980469 C 1131.246094 119.371094 859.382812 125.660156 607.878906 88.058594 C 514.742188 74.550781 438.585938 52.4375 356.746094 115.617188 C 325.082031 139.734375 298.628906 170.046875 275.519531 202.304688 C 238.480469 254.179688 211.953125 313.410156 196.542969 375.207031 Z M 196.550781 375.199219 " fill-opacity="1" fill-rule="nonzero"/></g></g></g><g clip-path="url(#a63132e167)"><g clip-path="url(#924b7836ea)"><g clip-path="url(#f92acdd223)"><path fill="#155689" d="M 203.207031 389.640625 C 227.257812 294.636719 282.097656 200.09375 359.128906 138.417969 C 360.949219 137.082031 364.503906 134.320312 366.207031 133.066406 C 367.535156 132.105469 372.015625 128.984375 373.449219 127.949219 C 375.273438 126.703125 379.152344 124.234375 380.871094 123.074219 C 382.308594 122.21875 386.921875 119.394531 388.464844 118.464844 C 390.449219 117.402344 394.382812 115.144531 396.238281 114.144531 C 396.238281 114.144531 398.882812 112.808594 398.882812 112.808594 C 398.882812 112.808594 404.179688 110.136719 404.179688 110.136719 C 406.242188 109.246094 410.359375 107.3125 412.285156 106.472656 C 413.878906 105.863281 418.851562 103.828125 420.554688 103.171875 C 423.902344 102.054688 428.488281 100.308594 431.820312 99.433594 C 445.050781 95.429688 458.824219 92.953125 472.582031 91.847656 C 504.101562 89.179688 535.648438 93.042969 566.777344 97.523438 C 767 128.140625 976.082031 144.671875 1172.832031 86.191406 C 1294.257812 51.5625 1400.191406 -19.867188 1499.785156 -95.460938 C 1471.871094 -73.941406 1443.597656 -52.578125 1414.707031 -32.324219 C 1402.402344 -23.78125 1388.238281 -14.101562 1375.625 -6.019531 C 1299.988281 43.515625 1216.332031 80.878906 1128.269531 101.761719 C 943.894531 146.230469 751.71875 130.167969 566.230469 101.226562 C 535.339844 96.699219 504.070312 92.855469 472.871094 95.355469 C 459.328125 96.359375 445.777344 98.707031 432.757812 102.5625 C 429.359375 103.433594 424.957031 105.082031 421.660156 106.171875 C 421.660156 106.171875 416.230469 108.296875 416.230469 108.296875 C 416.230469 108.296875 413.515625 109.363281 413.515625 109.363281 C 410.90625 110.496094 407.917969 111.867188 405.507812 112.925781 C 405.507812 112.925781 400.273438 115.515625 400.273438 115.515625 C 400.273438 115.515625 397.65625 116.824219 397.65625 116.824219 C 395.007812 118.242188 392.378906 119.726562 389.964844 121.039062 C 389.964844 121.039062 384.941406 124.042969 384.941406 124.042969 C 384.941406 124.042969 382.429688 125.542969 382.429688 125.542969 C 379.722656 127.273438 377.503906 128.753906 375.070312 130.3125 C 372.90625 131.875 367.734375 135.347656 365.519531 137.085938 C 334.074219 160.398438 307.484375 189.691406 284.15625 221.039062 C 246.773438 271.402344 219.542969 329.117188 203.21875 389.644531 Z M 203.207031 389.640625 " fill-opacity="1" fill-rule="nonzero"/></g></g></g><g clip-path="url(#9391076ab0)"><g clip-path="url(#950ba40d85)"><g clip-path="url(#cba9c3832d)"><path fill="#155689" d="M 209.867188 404.09375 C 231.304688 325.867188 272.421875 252.664062 329.085938 194.410156 C 358.878906 164.050781 393.773438 137.308594 434.410156 123.480469 C 463.9375 113.238281 495.65625 111.453125 526.617188 113.398438 C 557.621094 115.410156 588.160156 120.667969 618.757812 124.753906 C 710.550781 137.328125 802.894531 146.644531 895.570312 147.96875 C 1037.839844 149.824219 1182.984375 130.515625 1313.191406 70.761719 C 1337.65625 59.707031 1362.089844 47.308594 1385.597656 34.359375 C 1426.183594 11.945312 1465.363281 -12.894531 1504.292969 -38.046875 C 1443.261719 2.660156 1380.933594 42.167969 1314.097656 72.761719 C 1155.261719 147.011719 975.617188 159.808594 802.773438 148.140625 C 710.097656 143.09375 618.5 126.386719 526.402344 116.863281 C 451.300781 111.296875 398.195312 133.453125 343.203125 183.992188 C 279.800781 243.386719 234 320.792969 209.882812 404.105469 Z M 209.867188 404.09375 " fill-opacity="1" fill-rule="nonzero"/></g></g></g><g clip-path="url(#edd7bcfffd)"><g clip-path="url(#9bf73a818b)"><g clip-path="url(#be131b5c18)"><path fill="#155689" d="M 216.523438 418.535156 C 237.050781 349.136719 273.46875 284.257812 322.375 230.753906 C 350.800781 199.96875 383.460938 172.015625 421.683594 154.1875 C 442.488281 144.347656 465.042969 138.183594 487.914062 135.800781 C 526.097656 131.875 564.34375 137.023438 602.125 142.171875 C 669.960938 151.46875 738.191406 159.800781 806.421875 165.160156 C 987.59375 180.203125 1175.695312 172.066406 1345 100.21875 C 1401.382812 77.082031 1455.421875 48.644531 1508.8125 19.332031 C 1442.582031 56.863281 1374.855469 92.632812 1303.113281 118.644531 C 1231.496094 145.121094 1156.234375 160.933594 1080.347656 168.605469 C 912.960938 185.757812 744.816406 165.535156 579.027344 142.503906 C 563.933594 140.589844 548.820312 138.890625 533.65625 138.140625 C 499.683594 136.238281 465.015625 139.363281 433.277344 152.207031 C 394.445312 167.796875 360.796875 194.101562 331.785156 223.910156 C 309.316406 246.917969 289.011719 272.710938 271.617188 299.738281 C 248.125 336.621094 229.566406 376.792969 216.53125 418.539062 Z M 216.523438 418.535156 " fill-opacity="1" fill-rule="nonzero"/></g></g></g><g clip-path="url(#90213a4e0d)"><g clip-path="url(#df25bf64b5)"><g clip-path="url(#dafe4eb2cf)"><path fill="#155689" d="M 223.179688 432.988281 C 251.882812 343.640625 307.027344 261.570312 382.269531 204.851562 C 416.035156 179.925781 454.230469 162.253906 496.257812 157.769531 C 526.34375 154.40625 556.707031 156.664062 586.632812 160.160156 C 661.25 169.558594 735.8125 179.519531 810.714844 186.226562 C 985.820312 202.722656 1166.496094 202.59375 1335.238281 147.484375 C 1396.203125 128.246094 1455.15625 103.132812 1513.316406 76.746094 C 1443.628906 109.511719 1372.269531 139.8125 1297.992188 160.757812 C 1080.714844 222.542969 851.59375 197.765625 630.996094 169.085938 C 572.117188 161.503906 510.550781 150.8125 452.84375 170.164062 C 433.316406 176.65625 414.824219 186.070312 397.53125 197.195312 C 364.519531 218.722656 335.71875 246.277344 310.441406 276.398438 C 271.738281 322.371094 242.253906 376.0625 223.175781 433.007812 Z M 223.179688 432.988281 " fill-opacity="1" fill-rule="nonzero"/></g></g></g><g clip-path="url(#2d1bb5ce0c)"><g clip-path="url(#e805b13f8b)"><g clip-path="url(#6b305168ed)"><path fill="#155689" d="M 229.835938 447.433594 C 258.808594 363.125 312.082031 286.472656 382.949219 231.992188 C 419.921875 203.65625 463.84375 183.023438 510.65625 179.09375 C 523.605469 177.832031 536.828125 177.5625 549.824219 177.960938 C 638.984375 183.457031 727.054688 199.308594 815.964844 207.296875 C 992.734375 226.140625 1174.121094 232.023438 1347.617188 187.355469 C 1405.378906 173.085938 1461.882812 154.292969 1517.828125 134.132812 C 1434.359375 165.554688 1348.820312 192.660156 1260.734375 207.734375 C 1054.296875 243.15625 844.257812 215.328125 638.371094 189.582031 C 594.246094 184.179688 549.792969 177.417969 505.398438 182.488281 C 475.9375 185.683594 447.417969 195.285156 421.503906 209.554688 C 375.949219 234.671875 337.585938 271.265625 305.101562 311.558594 C 272.769531 352.261719 247.328125 398.503906 229.816406 447.429688 Z M 229.835938 447.433594 " fill-opacity="1" fill-rule="nonzero"/></g></g></g><g clip-path="url(#748dabe04b)"><g clip-path="url(#e42f808bff)"><g clip-path="url(#d51915aba1)"><path fill="#155689" d="M 236.5 461.882812 C 272.28125 365.765625 339.96875 278.625 430.378906 228.503906 C 469.460938 207.003906 514.335938 197.992188 558.726562 199.5625 C 588.292969 200.160156 617.605469 203.921875 646.835938 207.324219 C 792.964844 224.507812 938.992188 245.9375 1086.300781 248.863281 C 1196.683594 251.796875 1307.261719 241.605469 1415.125 217.875 C 1451.109375 210.09375 1486.804688 201.109375 1522.351562 191.53125 C 1409.140625 223.957031 1292.609375 246.867188 1174.660156 250.816406 C 997.632812 257.605469 821.75 231.296875 646.492188 210.191406 C 617.257812 206.734375 588.027344 202.9375 558.660156 202.308594 C 496.824219 200.019531 443.960938 217.363281 394.042969 253.683594 C 322.632812 305.628906 267.898438 379.519531 236.492188 461.882812 Z M 236.5 461.882812 " fill-opacity="1" fill-rule="nonzero"/></g></g></g><g clip-path="url(#5efc65dc5e)"><g clip-path="url(#98540a90df)"><g clip-path="url(#ae6b4f90a1)"><path fill="#155689" d="M 243.15625 476.335938 C 280.710938 381.710938 350.117188 297.277344 440.710938 249.339844 C 479.828125 228.78125 524.207031 219.984375 568.21875 221.179688 C 597.539062 221.550781 626.640625 224.992188 655.65625 228.21875 C 786.269531 242.878906 916.21875 263.472656 1047.300781 273.5 C 1178.195312 285.144531 1310.328125 282.128906 1440.394531 263.085938 C 1469.304688 258.96875 1498.113281 254.148438 1526.859375 248.945312 C 1383.542969 277.339844 1236.71875 289.042969 1090.808594 279.316406 C 1003.304688 273.78125 916.15625 264 829.21875 252.742188 C 742.332031 242.5625 655.617188 227.511719 568.175781 223.753906 C 553.621094 223.554688 539.039062 224.046875 524.613281 225.820312 C 481.066406 230.648438 439.96875 248.757812 404.113281 273.503906 C 332.136719 323.410156 276.023438 395.308594 243.136719 476.351562 Z M 243.15625 476.335938 " fill-opacity="1" fill-rule="nonzero"/></g></g></g><g clip-path="url(#469ceb897d)"><g clip-path="url(#53185b98b6)"><g clip-path="url(#1a43440e09)"><path fill="#155689" d="M 249.816406 490.777344 C 277.78125 423.832031 322.460938 363.78125 378.5 317.617188 C 423.105469 280.628906 476.507812 251.75 534.730469 245.054688 C 563.65625 241.539062 592.925781 242.539062 621.882812 244.914062 C 720.804688 253.777344 825.488281 269.699219 924.199219 283.398438 C 968.066406 289.65625 1020.566406 295.757812 1064.527344 301.078125 C 1161.753906 312.257812 1259.746094 318.269531 1357.621094 316.378906 C 1415.648438 315.464844 1473.609375 311.914062 1531.378906 306.34375 C 1387.046875 322.09375 1241.121094 321.929688 1096.726562 306.976562 C 1059.542969 303.265625 1014.929688 297.503906 977.78125 293.179688 C 971.417969 292.53125 931.1875 286.957031 923.828125 286.019531 C 825 272.558594 720.617188 256.351562 621.667969 247.367188 C 542.746094 240.105469 481.8125 248.847656 414.464844 293.125 C 341.8125 340.992188 284.199219 410.976562 249.804688 490.796875 Z M 249.816406 490.777344 " fill-opacity="1" fill-rule="nonzero"/></g></g></g><g clip-path="url(#a4518907a3)"><g clip-path="url(#12090665ab)"><g clip-path="url(#fd50063bb3)"><path fill="#155689" d="M 256.472656 505.230469 C 297.398438 413.757812 371.40625 333.601562 462.433594 290.53125 C 532.050781 257.40625 601.285156 262.328125 675.59375 270.199219 C 833.425781 286.765625 989.914062 318.171875 1147.203125 338.84375 C 1275.984375 356.039062 1405.953125 365.472656 1535.914062 363.738281 C 1333.527344 369.144531 1131.921875 341.746094 932.644531 308.90625 C 840.011719 294.179688 747.207031 279.28125 653.808594 270.351562 C 632.28125 268.332031 610.675781 266.648438 589.054688 266.589844 C 545.839844 265.980469 502.457031 273.761719 463.179688 292.140625 C 371.808594 335.296875 298.46875 413.699219 256.472656 505.222656 Z M 256.472656 505.230469 " fill-opacity="1" fill-rule="nonzero"/></g></g></g><g clip-path="url(#05289947c1)"><g clip-path="url(#b81028c5a2)"><g clip-path="url(#76b48bd869)"><path fill="#155689" d="M 263.128906 519.675781 C 306.507812 428.832031 381.625 352.160156 473.828125 310.90625 C 542.214844 279.878906 613.914062 283.695312 686.675781 291.289062 C 857.964844 308.6875 1028.289062 348.050781 1197.835938 377.195312 C 1311.324219 396.652344 1425.488281 413.269531 1540.429688 421.128906 C 1454.171875 415.949219 1368.300781 405.445312 1282.859375 392.632812 C 1055.066406 360.523438 830.929688 297.355469 600.378906 287.9375 C 557.28125 287.582031 514.027344 294.945312 474.488281 312.414062 C 382.734375 353.03125 306.757812 429.671875 263.136719 519.675781 Z M 263.128906 519.675781 " fill-opacity="1" fill-rule="nonzero"/></g></g></g><g clip-path="url(#034c31ed59)"><g clip-path="url(#016eedf2a4)"><g clip-path="url(#8757fe1811)"><path fill="#155689" d="M 269.792969 534.125 C 302.199219 469.796875 350.972656 414.050781 410.046875 372.882812 C 449.867188 345.125 494.613281 323.476562 542.421875 313.984375 C 565.394531 309.351562 588.890625 307.5625 612.296875 307.496094 C 698.703125 308.617188 784.464844 322.011719 869.367188 337.070312 C 1005.53125 362.703125 1144.960938 397.023438 1280.238281 427.488281 C 1368.011719 446.75 1455.984375 465.550781 1544.957031 478.542969 C 1455.910156 466.09375 1367.78125 447.90625 1279.945312 428.847656 C 1144.53125 398.921875 1005.160156 364.640625 868.988281 339.171875 C 784.222656 324.039062 698.539062 310.5625 612.3125 309.34375 C 589.007812 309.390625 565.640625 311.128906 542.765625 315.648438 C 495.113281 324.945312 450.511719 346.367188 410.742188 373.871094 C 351.636719 414.78125 302.523438 470.054688 269.804688 534.128906 Z M 269.792969 534.125 " fill-opacity="1" fill-rule="nonzero"/></g></g></g><g clip-path="url(#ce8206b254)"><g clip-path="url(#eea53bd24c)"><g clip-path="url(#b94d848af1)"><path fill="#155689" d="M 276.449219 548.570312 C 320.589844 465.992188 392.621094 398.703125 477.761719 359.835938 C 524.671875 338.375 573.304688 328.976562 624.769531 329.011719 C 826.941406 332.824219 1022.972656 391.179688 1216.230469 445.515625 C 1325.371094 476.53125 1438.9375 511.109375 1549.464844 535.941406 C 1493.214844 523.699219 1437.492188 509.171875 1381.996094 493.882812 C 1160.671875 433.730469 940.027344 358.714844 710.855469 335.378906 C 628.667969 327.417969 555.144531 325.855469 478.28125 361.019531 C 393.222656 399.628906 320.960938 466.386719 276.441406 548.578125 Z M 276.449219 548.570312 " fill-opacity="1" fill-rule="nonzero"/></g></g></g><g clip-path="url(#2b780f749d)"><g clip-path="url(#3d9f2bfc14)"><g clip-path="url(#78eb410fd2)"><path fill="#155689" d="M 283.109375 563.019531 C 332.847656 475.101562 415.191406 406.097656 510.128906 371.757812 C 571.53125 349.160156 638.082031 347.695312 702.621094 352.996094 C 911.902344 369.605469 1111.539062 440.8125 1308.234375 509.90625 C 1386.699219 537.863281 1474.417969 569.632812 1553.980469 593.328125 C 1474.433594 570.066406 1386.578125 538.71875 1307.875 510.9375 C 1111.109375 442.476562 911.609375 371.394531 702.511719 354.535156 C 638.164062 349.222656 571.820312 350.558594 510.535156 372.886719 C 445.242188 396.207031 386.144531 436.226562 338.949219 486.890625 C 317.664062 510.007812 298.75 535.761719 283.109375 563.011719 Z M 283.109375 563.019531 " fill-opacity="1" fill-rule="nonzero"/></g></g></g><g clip-path="url(#274bdd4af0)"><g clip-path="url(#0965b2c0a1)"><g clip-path="url(#301a02b85d)"><path fill="#155689" d="M 289.765625 577.472656 C 356.5 466.003906 478.058594 386.683594 607.792969 374.296875 C 622.214844 372.867188 636.695312 372.160156 651.183594 371.996094 C 855.0625 372.472656 1050.785156 442.292969 1237.480469 518.171875 C 1344.746094 561.75 1449.976562 610.304688 1558.507812 650.734375 C 1451.652344 611.574219 1342.636719 561.910156 1237.097656 519.113281 C 1063.53125 448.617188 883.09375 384.789062 694.5625 374.121094 C 665.6875 372.617188 636.695312 372.566406 607.898438 375.367188 C 478.828125 387.375 356.546875 466.871094 289.773438 577.472656 Z M 289.765625 577.472656 " fill-opacity="1" fill-rule="nonzero"/></g></g></g><g clip-path="url(#05ffd2927e)"><g clip-path="url(#c791d8f70b)"><g clip-path="url(#77135caadf)"><path fill="#155689" d="M 296.421875 591.917969 C 358.640625 493.183594 464.101562 424.171875 578.21875 401.804688 C 635.503906 390.734375 694.402344 391.722656 752.238281 397.449219 C 1045.53125 427.515625 1299.597656 589.617188 1563.015625 708.128906 C 1299.257812 590.613281 1045.214844 428.945312 752.136719 398.53125 C 694.394531 392.738281 635.597656 391.6875 578.394531 402.65625 C 464.417969 424.933594 359.003906 493.542969 296.429688 591.90625 Z M 296.421875 591.917969 " fill-opacity="1" fill-rule="nonzero"/></g></g></g><g clip-path="url(#510569a4ae)"><g clip-path="url(#4dbe67c482)"><g clip-path="url(#230c15cc37)"><path fill="#155689" d="M 303.078125 606.367188 C 372.25 501.988281 490.480469 435.613281 613.597656 419.425781 C 653.515625 414.015625 694.03125 413.480469 734.203125 415.96875 C 803.640625 420.457031 872.320312 434.460938 938.871094 454.492188 C 1164.015625 522.347656 1360.15625 658.871094 1567.523438 765.535156 C 1359.8125 659.65625 1163.722656 523.09375 938.546875 455.554688 C 872.078125 435.472656 803.5 421.410156 734.140625 416.855469 C 686.742188 413.867188 638.828125 415.121094 592.019531 423.585938 C 477.070312 444.046875 368.421875 508.546875 303.070312 606.367188 Z M 303.078125 606.367188 " fill-opacity="1" fill-rule="nonzero"/></g></g></g><g clip-path="url(#3265d8e3b1)"><g clip-path="url(#a6372a0570)"><g clip-path="url(#3c0f053615)"><path fill="#155689" d="M 309.742188 620.8125 C 416.039062 468.167969 616.078125 416.40625 793.273438 441.59375 C 812.917969 444.09375 833.878906 447.804688 853.265625 451.839844 C 967.113281 475.972656 1074.699219 523.664062 1175.988281 580.109375 C 1311.445312 655.265625 1438.160156 745.21875 1572.058594 822.933594 C 1437.914062 745.632812 1311.140625 655.75 1175.648438 580.71875 C 1074.390625 524.382812 966.816406 476.90625 853.09375 452.628906 C 833.742188 448.589844 812.785156 444.851562 793.175781 442.34375 C 616.199219 417.011719 416.289062 468.699219 309.742188 620.820312 Z M 309.742188 620.8125 " fill-opacity="1" fill-rule="nonzero"/></g></g></g></svg>