<svg xmlns="http://www.w3.org/2000/svg" xmlns:xlink="http://www.w3.org/1999/xlink" width="1080" zoomAndPan="magnify" viewBox="0 0 810 809.999993" height="1080" preserveAspectRatio="xMidYMid meet" version="1.0"><defs><clipPath id="66615f0ab5"><path d="M 0 399.59375 L 771.75 399.59375 L 771.75 809.84375 L 0 809.84375 Z M 0 399.59375 " clip-rule="nonzero"/></clipPath><clipPath id="9b74130566"><path d="M 0.175781 0.601562 L 771.75 0.601562 L 771.75 410.84375 L 0.175781 410.84375 Z M 0.175781 0.601562 " clip-rule="nonzero"/></clipPath><clipPath id="d2242a2a57"><rect x="0" width="772" y="0" height="411"/></clipPath></defs><rect x="-81" width="972" fill="#ffffff" y="-80.999999" height="971.999992" fill-opacity="1"/><rect x="-81" width="972" fill="#ffffff" y="-80.999999" height="971.999992" fill-opacity="1"/><g clip-path="url(#66615f0ab5)"><g transform="matrix(1, 0, 0, 1, 0, 399)"><g clip-path="url(#d2242a2a57)"><g clip-path="url(#9b74130566)"><path fill="#155689" d="M 1.175781 410.964844 L 13 410.964844 C 13.746094 409.839844 14.179688 408.496094 14.179688 407.046875 C 14.179688 403.128906 11.003906 399.957031 7.089844 399.957031 C 3.171875 399.957031 -0.00390625 403.128906 -0.00390625 407.046875 C -0.00390625 408.496094 0.429688 409.839844 1.175781 410.964844 Z M 20.320312 410.964844 L 32.9375 410.964844 C 33.4375 409.992188 33.722656 408.890625 33.722656 407.722656 C 33.722656 403.804688 30.546875 400.628906 26.628906 400.628906 C 22.710938 400.628906 19.535156 403.804688 19.535156 407.722656 C 19.535156 408.890625 19.820312 409.992188 20.320312 410.964844 Z M 39.113281 410.964844 L 53.226562 410.964844 C 52.863281 407.382812 49.84375 404.59375 46.167969 404.59375 C 42.492188 404.59375 39.472656 407.386719 39.113281 410.964844 Z M 58.652344 410.964844 L 72.769531 410.964844 C 72.789062 410.738281 72.800781 410.507812 72.800781 410.277344 C 72.800781 406.359375 69.628906 403.1875 65.710938 403.1875 C 61.792969 403.1875 58.617188 406.359375 58.617188 410.277344 C 58.617188 410.507812 58.628906 410.738281 58.652344 410.964844 Z M 78.199219 410.964844 L 92.304688 410.964844 C 92.328125 410.714844 92.34375 410.457031 92.34375 410.203125 C 92.34375 406.285156 89.167969 403.109375 85.25 403.109375 C 81.332031 403.109375 78.160156 406.285156 78.160156 410.203125 C 78.160156 410.457031 78.171875 410.714844 78.199219 410.964844 Z M 97.738281 410.964844 L 111.84375 410.964844 C 111.871094 410.714844 111.882812 410.457031 111.882812 410.199219 C 111.882812 406.285156 108.710938 403.109375 104.792969 403.109375 C 100.875 403.109375 97.699219 406.285156 97.699219 410.199219 C 97.699219 410.457031 97.714844 410.714844 97.738281 410.964844 Z M 120.089844 410.964844 L 128.574219 410.964844 C 130.304688 409.671875 131.425781 407.605469 131.425781 405.28125 C 131.425781 401.363281 128.25 398.1875 124.332031 398.1875 C 120.414062 398.1875 117.242188 401.363281 117.242188 405.28125 C 117.242188 407.605469 118.359375 409.671875 120.089844 410.964844 Z M 136.78125 410.964844 L 150.964844 410.964844 L 150.964844 410.902344 C 150.964844 406.984375 147.792969 403.808594 143.871094 403.808594 C 139.957031 403.808594 136.78125 406.984375 136.78125 410.902344 Z M 179.273438 410.964844 L 186.636719 410.964844 C 185.601562 410.21875 184.332031 409.777344 182.957031 409.777344 C 181.582031 409.777344 180.308594 410.21875 179.273438 410.964844 Z M 236.347656 410.964844 L 246.808594 410.964844 C 247.15625 410.21875 247.355469 409.386719 247.355469 408.507812 C 247.355469 405.320312 244.769531 402.734375 241.578125 402.734375 C 238.390625 402.734375 235.804688 405.320312 235.804688 408.507812 C 235.804688 409.386719 236 410.21875 236.347656 410.964844 Z M 255.671875 410.964844 L 266.566406 410.964844 C 265.773438 408.71875 263.632812 407.113281 261.121094 407.113281 C 258.605469 407.113281 256.464844 408.71875 255.671875 410.964844 Z M 338.292969 410.964844 L 340.273438 410.964844 C 342.464844 410.507812 344.109375 408.566406 344.109375 406.238281 C 344.109375 403.570312 341.949219 401.410156 339.285156 401.410156 C 336.617188 401.410156 334.453125 403.570312 334.453125 406.238281 C 334.453125 408.566406 336.101562 410.507812 338.292969 410.964844 Z M 357.277344 410.964844 L 360.371094 410.964844 C 362.277344 410.320312 363.652344 408.515625 363.652344 406.390625 C 363.652344 403.722656 361.488281 401.5625 358.824219 401.5625 C 356.160156 401.5625 353.996094 403.722656 353.996094 406.390625 C 353.996094 408.515625 355.371094 410.320312 357.277344 410.964844 Z M 373.894531 410.964844 L 382.835938 410.964844 C 383.066406 410.398438 383.191406 409.78125 383.191406 409.132812 C 383.191406 406.46875 381.03125 404.304688 378.367188 404.304688 C 375.699219 404.304688 373.535156 406.46875 373.535156 409.132812 C 373.535156 409.78125 373.664062 410.398438 373.894531 410.964844 Z M 393.078125 410.964844 L 402.734375 410.964844 C 402.675781 408.347656 400.535156 406.238281 397.90625 406.238281 C 395.273438 406.238281 393.132812 408.347656 393.078125 410.964844 Z M 412.753906 410.964844 L 422.136719 410.964844 C 421.625 408.847656 419.71875 407.277344 417.445312 407.277344 C 415.171875 407.277344 413.265625 408.847656 412.753906 410.964844 Z M 432.890625 410.964844 L 441.085938 410.964844 C 440.230469 409.597656 438.714844 408.6875 436.988281 408.6875 C 435.257812 408.6875 433.742188 409.597656 432.890625 410.964844 Z M 569.988281 410.964844 L 577.554688 410.964844 C 578.167969 410.164062 578.527344 409.167969 578.527344 408.085938 C 578.527344 405.457031 576.398438 403.328125 573.773438 403.328125 C 571.148438 403.328125 569.015625 405.457031 569.015625 408.085938 C 569.015625 409.167969 569.378906 410.164062 569.988281 410.964844 Z M 588.625 410.964844 L 598.003906 410.964844 C 597.628906 408.710938 595.671875 406.992188 593.3125 406.992188 C 590.953125 406.992188 588.996094 408.710938 588.625 410.964844 Z M 611.277344 410.964844 L 614.433594 410.964844 C 613.9375 410.789062 613.40625 410.695312 612.855469 410.695312 C 612.300781 410.695312 611.769531 410.789062 611.277344 410.964844 Z M 668.863281 410.964844 L 674.089844 410.964844 C 673.398438 410.339844 672.484375 409.957031 671.476562 409.957031 C 670.472656 409.957031 669.554688 410.339844 668.863281 410.964844 Z M 707.242188 410.964844 L 713.875 410.964844 C 713.894531 410.820312 713.90625 410.671875 713.90625 410.519531 C 713.90625 408.671875 712.40625 407.175781 710.558594 407.175781 C 708.710938 407.175781 707.210938 408.671875 707.210938 410.519531 C 707.210938 410.671875 707.222656 410.820312 707.242188 410.964844 Z M 766.890625 410.964844 L 771.46875 410.964844 C 771.757812 410.527344 771.925781 410.007812 771.925781 409.449219 C 771.925781 407.933594 770.695312 406.707031 769.179688 406.707031 C 767.664062 406.707031 766.4375 407.933594 766.4375 409.449219 C 766.4375 410.007812 766.605469 410.527344 766.890625 410.964844 Z M 7.089844 200.550781 C 3.171875 200.550781 -0.00390625 203.726562 -0.00390625 207.644531 C -0.00390625 211.558594 3.171875 214.734375 7.089844 214.734375 C 11.003906 214.734375 14.179688 211.558594 14.179688 207.644531 C 14.179688 203.726562 11.003906 200.550781 7.089844 200.550781 Z M 7.089844 0.625 C 5.570312 0.625 4.34375 1.851562 4.34375 3.367188 C 4.34375 4.882812 5.570312 6.113281 7.089844 6.113281 C 8.605469 6.113281 9.832031 4.882812 9.832031 3.367188 C 9.832031 1.851562 8.605469 0.625 7.089844 0.625 Z M 7.089844 20.714844 C 5.386719 20.714844 4.007812 22.09375 4.007812 23.796875 C 4.007812 25.496094 5.386719 26.875 7.089844 26.875 C 8.789062 26.875 10.167969 25.496094 10.167969 23.796875 C 10.167969 22.09375 8.789062 20.714844 7.089844 20.714844 Z M 7.089844 40.875 C 5.242188 40.875 3.742188 42.375 3.742188 44.222656 C 3.742188 46.070312 5.242188 47.566406 7.089844 47.566406 C 8.9375 47.566406 10.433594 46.070312 10.433594 44.222656 C 10.433594 42.375 8.9375 40.875 7.089844 40.875 Z M 7.089844 60.746094 C 4.933594 60.746094 3.183594 62.496094 3.183594 64.652344 C 3.183594 66.804688 4.933594 68.554688 7.089844 68.554688 C 9.246094 68.554688 10.992188 66.804688 10.992188 64.652344 C 10.992188 62.496094 9.246094 60.746094 7.089844 60.746094 Z M 7.089844 80.320312 C 4.460938 80.320312 2.332031 82.449219 2.332031 85.078125 C 2.332031 87.703125 4.460938 89.832031 7.089844 89.832031 C 9.714844 89.832031 11.84375 87.703125 11.84375 85.078125 C 11.84375 82.449219 9.714844 80.320312 7.089844 80.320312 Z M 7.089844 100.679688 C 4.421875 100.679688 2.261719 102.839844 2.261719 105.503906 C 2.261719 108.171875 4.421875 110.332031 7.089844 110.332031 C 9.753906 110.332031 11.917969 108.171875 11.917969 105.503906 C 11.917969 102.839844 9.753906 100.679688 7.089844 100.679688 Z M 7.089844 120.15625 C 3.898438 120.15625 1.3125 122.746094 1.3125 125.933594 C 1.3125 129.121094 3.898438 131.707031 7.089844 131.707031 C 10.277344 131.707031 12.863281 129.121094 12.863281 125.933594 C 12.863281 122.746094 10.277344 120.15625 7.089844 120.15625 Z M 7.089844 140.0625 C 3.609375 140.0625 0.789062 142.882812 0.789062 146.359375 C 0.789062 149.839844 3.609375 152.660156 7.089844 152.660156 C 10.566406 152.660156 13.386719 149.839844 13.386719 146.359375 C 13.386719 142.882812 10.566406 140.0625 7.089844 140.0625 Z M 7.089844 339.890625 C 3.171875 339.890625 -0.00390625 343.066406 -0.00390625 346.980469 C -0.00390625 350.898438 3.171875 354.074219 7.089844 354.074219 C 11.003906 354.074219 14.179688 350.898438 14.179688 346.980469 C 14.179688 343.066406 11.003906 339.890625 7.089844 339.890625 Z M 7.089844 279.824219 C 3.171875 279.824219 -0.00390625 283 -0.00390625 286.917969 C -0.00390625 290.835938 3.171875 294.011719 7.089844 294.011719 C 11.003906 294.011719 14.179688 290.835938 14.179688 286.917969 C 14.179688 283 11.003906 279.824219 7.089844 279.824219 Z M 7.089844 219.761719 C 3.171875 219.761719 -0.00390625 222.933594 -0.00390625 226.855469 C -0.00390625 230.769531 3.171875 233.945312 7.089844 233.945312 C 11.003906 233.945312 14.179688 230.769531 14.179688 226.855469 C 14.179688 222.933594 11.003906 219.761719 7.089844 219.761719 Z M 7.089844 159.695312 C 3.171875 159.695312 -0.00390625 162.871094 -0.00390625 166.789062 C -0.00390625 170.707031 3.171875 173.878906 7.089844 173.878906 C 11.003906 173.878906 14.179688 170.707031 14.179688 166.789062 C 14.179688 162.871094 11.003906 159.695312 7.089844 159.695312 Z M 7.089844 360.316406 C 3.171875 360.316406 -0.00390625 363.492188 -0.00390625 367.410156 C -0.00390625 371.324219 3.171875 374.5 7.089844 374.5 C 11.003906 374.5 14.179688 371.324219 14.179688 367.410156 C 14.179688 363.492188 11.003906 360.316406 7.089844 360.316406 Z M 7.089844 300.253906 C 3.171875 300.253906 -0.00390625 303.429688 -0.00390625 307.347656 C -0.00390625 311.261719 3.171875 314.4375 7.089844 314.4375 C 11.003906 314.4375 14.179688 311.261719 14.179688 307.347656 C 14.179688 303.429688 11.003906 300.253906 7.089844 300.253906 Z M 7.089844 240.1875 C 3.171875 240.1875 -0.00390625 243.363281 -0.00390625 247.28125 C -0.00390625 251.199219 3.171875 254.375 7.089844 254.375 C 11.003906 254.375 14.179688 251.199219 14.179688 247.28125 C 14.179688 243.363281 11.003906 240.1875 7.089844 240.1875 Z M 7.089844 180.125 C 3.171875 180.125 -0.00390625 183.296875 -0.00390625 187.214844 C -0.00390625 191.132812 3.171875 194.308594 7.089844 194.308594 C 11.003906 194.308594 14.179688 191.132812 14.179688 187.214844 C 14.179688 183.296875 11.003906 180.125 7.089844 180.125 Z M 7.089844 380.746094 C 3.171875 380.746094 -0.00390625 383.921875 -0.00390625 387.835938 C -0.00390625 391.753906 3.171875 394.929688 7.089844 394.929688 C 11.003906 394.929688 14.179688 391.753906 14.179688 387.835938 C 14.179688 383.921875 11.003906 380.746094 7.089844 380.746094 Z M 7.089844 320.679688 C 3.171875 320.679688 -0.00390625 323.855469 -0.00390625 327.773438 C -0.00390625 331.691406 3.171875 334.863281 7.089844 334.863281 C 11.003906 334.863281 14.179688 331.691406 14.179688 327.773438 C 14.179688 323.855469 11.003906 320.679688 7.089844 320.679688 Z M 7.089844 260.617188 C 3.171875 260.617188 -0.00390625 263.792969 -0.00390625 267.707031 C -0.00390625 271.625 3.171875 274.800781 7.089844 274.800781 C 11.003906 274.800781 14.179688 271.625 14.179688 267.707031 C 14.179688 263.792969 11.003906 260.617188 7.089844 260.617188 Z M 26.628906 280.5 C 22.710938 280.5 19.535156 283.675781 19.535156 287.59375 C 19.535156 291.511719 22.710938 294.683594 26.628906 294.683594 C 30.546875 294.683594 33.722656 291.511719 33.722656 287.59375 C 33.722656 283.675781 30.546875 280.5 26.628906 280.5 Z M 26.628906 80.570312 C 25.113281 80.570312 23.882812 81.800781 23.882812 83.316406 C 23.882812 84.832031 25.113281 86.0625 26.628906 86.0625 C 28.144531 86.0625 29.371094 84.832031 29.371094 83.316406 C 29.371094 81.800781 28.144531 80.570312 26.628906 80.570312 Z M 26.628906 100.664062 C 24.929688 100.664062 23.550781 102.042969 23.550781 103.742188 C 23.550781 105.445312 24.929688 106.824219 26.628906 106.824219 C 28.332031 106.824219 29.707031 105.445312 29.707031 103.742188 C 29.707031 102.042969 28.332031 100.664062 26.628906 100.664062 Z M 26.628906 120.828125 C 24.78125 120.828125 23.285156 122.324219 23.285156 124.171875 C 23.285156 126.019531 24.78125 127.515625 26.628906 127.515625 C 28.476562 127.515625 29.976562 126.019531 29.976562 124.171875 C 29.976562 122.324219 28.476562 120.828125 26.628906 120.828125 Z M 26.628906 140.695312 C 24.472656 140.695312 22.722656 142.441406 22.722656 144.597656 C 22.722656 146.753906 24.472656 148.503906 26.628906 148.503906 C 28.785156 148.503906 30.53125 146.753906 30.53125 144.597656 C 30.53125 142.441406 28.785156 140.695312 26.628906 140.695312 Z M 26.628906 160.269531 C 24.003906 160.269531 21.871094 162.402344 21.871094 165.027344 C 21.871094 167.652344 24.003906 169.78125 26.628906 169.78125 C 29.253906 169.78125 31.382812 167.652344 31.382812 165.027344 C 31.382812 162.402344 29.253906 160.269531 26.628906 160.269531 Z M 26.628906 180.625 C 23.960938 180.625 21.800781 182.789062 21.800781 185.453125 C 21.800781 188.121094 23.960938 190.28125 26.628906 190.28125 C 29.292969 190.28125 31.457031 188.121094 31.457031 185.453125 C 31.457031 182.789062 29.292969 180.625 26.628906 180.625 Z M 26.628906 200.105469 C 23.4375 200.105469 20.855469 202.691406 20.855469 205.882812 C 20.855469 209.070312 23.4375 211.65625 26.628906 211.65625 C 29.820312 211.65625 32.40625 209.070312 32.40625 205.882812 C 32.40625 202.691406 29.820312 200.105469 26.628906 200.105469 Z M 26.628906 220.011719 C 23.148438 220.011719 20.328125 222.832031 20.328125 226.308594 C 20.328125 229.789062 23.148438 232.609375 26.628906 232.609375 C 30.109375 232.609375 32.929688 229.789062 32.929688 226.308594 C 32.929688 222.832031 30.109375 220.011719 26.628906 220.011719 Z M 26.628906 359.773438 C 22.710938 359.773438 19.535156 362.949219 19.535156 366.867188 C 19.535156 370.785156 22.710938 373.957031 26.628906 373.957031 C 30.546875 373.957031 33.722656 370.785156 33.722656 366.867188 C 33.722656 362.949219 30.546875 359.773438 26.628906 359.773438 Z M 26.628906 299.710938 C 22.710938 299.710938 19.535156 302.882812 19.535156 306.800781 C 19.535156 310.71875 22.710938 313.894531 26.628906 313.894531 C 30.546875 313.894531 33.722656 310.71875 33.722656 306.800781 C 33.722656 302.882812 30.546875 299.710938 26.628906 299.710938 Z M 26.628906 239.648438 C 22.710938 239.648438 19.535156 242.820312 19.535156 246.738281 C 19.535156 250.65625 22.710938 253.828125 26.628906 253.828125 C 30.546875 253.828125 33.722656 250.65625 33.722656 246.738281 C 33.722656 242.820312 30.546875 239.648438 26.628906 239.648438 Z M 26.628906 380.203125 C 22.710938 380.203125 19.535156 383.375 19.535156 387.292969 C 19.535156 391.210938 22.710938 394.386719 26.628906 394.386719 C 30.546875 394.386719 33.722656 391.210938 33.722656 387.292969 C 33.722656 383.375 30.546875 380.203125 26.628906 380.203125 Z M 26.628906 320.136719 C 22.710938 320.136719 19.535156 323.3125 19.535156 327.230469 C 19.535156 331.144531 22.710938 334.320312 26.628906 334.320312 C 30.546875 334.320312 33.722656 331.144531 33.722656 327.230469 C 33.722656 323.3125 30.546875 320.136719 26.628906 320.136719 Z M 26.628906 260.070312 C 22.710938 260.070312 19.535156 263.25 19.535156 267.164062 C 19.535156 271.082031 22.710938 274.257812 26.628906 274.257812 C 30.546875 274.257812 33.722656 271.082031 33.722656 267.164062 C 33.722656 263.25 30.546875 260.070312 26.628906 260.070312 Z M 26.628906 340.566406 C 22.710938 340.566406 19.535156 343.742188 19.535156 347.65625 C 19.535156 351.574219 22.710938 354.75 26.628906 354.75 C 30.546875 354.75 33.722656 351.574219 33.722656 347.65625 C 33.722656 343.742188 30.546875 340.566406 26.628906 340.566406 Z M 46.167969 344.527344 C 42.253906 344.527344 39.078125 347.703125 39.078125 351.617188 C 39.078125 355.535156 42.253906 358.710938 46.167969 358.710938 C 50.085938 358.710938 53.261719 355.535156 53.261719 351.617188 C 53.261719 347.703125 50.085938 344.527344 46.167969 344.527344 Z M 46.171875 144.597656 C 44.652344 144.597656 43.425781 145.828125 43.425781 147.339844 C 43.425781 148.859375 44.652344 150.085938 46.171875 150.085938 C 47.683594 150.085938 48.914062 148.859375 48.914062 147.339844 C 48.914062 145.828125 47.683594 144.597656 46.171875 144.597656 Z M 46.171875 164.691406 C 44.46875 164.691406 43.089844 166.070312 43.089844 167.769531 C 43.089844 169.46875 44.46875 170.847656 46.171875 170.847656 C 47.871094 170.847656 49.25 169.46875 49.25 167.769531 C 49.25 166.070312 47.871094 164.691406 46.171875 164.691406 Z M 46.171875 184.851562 C 44.324219 184.851562 42.824219 186.347656 42.824219 188.195312 C 42.824219 190.042969 44.324219 191.542969 46.171875 191.542969 C 48.019531 191.542969 49.515625 190.042969 49.515625 188.195312 C 49.515625 186.347656 48.019531 184.851562 46.171875 184.851562 Z M 46.171875 204.722656 C 44.011719 204.722656 42.265625 206.46875 42.265625 208.625 C 42.265625 210.78125 44.011719 212.53125 46.171875 212.53125 C 48.324219 212.53125 50.074219 210.78125 50.074219 208.625 C 50.074219 206.46875 48.324219 204.722656 46.171875 204.722656 Z M 46.171875 224.296875 C 43.542969 224.296875 41.414062 226.425781 41.414062 229.050781 C 41.414062 231.679688 43.542969 233.808594 46.171875 233.808594 C 48.796875 233.808594 50.925781 231.679688 50.925781 229.050781 C 50.925781 226.425781 48.796875 224.296875 46.171875 224.296875 Z M 46.171875 244.652344 C 43.503906 244.652344 41.34375 246.816406 41.34375 249.480469 C 41.34375 252.148438 43.503906 254.308594 46.171875 254.308594 C 48.835938 254.308594 50.996094 252.148438 50.996094 249.480469 C 50.996094 246.816406 48.835938 244.652344 46.171875 244.652344 Z M 46.171875 264.132812 C 42.980469 264.132812 40.394531 266.71875 40.394531 269.910156 C 40.394531 273.097656 42.980469 275.683594 46.171875 275.683594 C 49.359375 275.683594 51.945312 273.097656 51.945312 269.910156 C 51.945312 266.71875 49.359375 264.132812 46.171875 264.132812 Z M 46.171875 284.035156 C 42.691406 284.035156 39.871094 286.855469 39.871094 290.335938 C 39.871094 293.8125 42.691406 296.636719 46.171875 296.636719 C 49.648438 296.636719 52.46875 293.8125 52.46875 290.335938 C 52.46875 286.855469 49.648438 284.035156 46.171875 284.035156 Z M 46.167969 363.738281 C 42.253906 363.738281 39.078125 366.910156 39.078125 370.828125 C 39.078125 374.746094 42.253906 377.921875 46.167969 377.921875 C 50.085938 377.921875 53.261719 374.746094 53.261719 370.828125 C 53.261719 366.910156 50.085938 363.738281 46.167969 363.738281 Z M 46.167969 303.671875 C 42.253906 303.671875 39.078125 306.847656 39.078125 310.765625 C 39.078125 314.679688 42.253906 317.855469 46.167969 317.855469 C 50.085938 317.855469 53.261719 314.679688 53.261719 310.765625 C 53.261719 306.847656 50.085938 303.671875 46.167969 303.671875 Z M 46.167969 384.164062 C 42.253906 384.164062 39.078125 387.339844 39.078125 391.253906 C 39.078125 395.171875 42.253906 398.347656 46.167969 398.347656 C 50.085938 398.347656 53.261719 395.171875 53.261719 391.253906 C 53.261719 387.339844 50.085938 384.164062 46.167969 384.164062 Z M 46.167969 324.097656 C 42.253906 324.097656 39.078125 327.273438 39.078125 331.191406 C 39.078125 335.109375 42.253906 338.28125 46.167969 338.28125 C 50.085938 338.28125 53.261719 335.109375 53.261719 331.191406 C 53.261719 327.273438 50.085938 324.097656 46.167969 324.097656 Z M 65.710938 383.976562 C 61.792969 383.976562 58.617188 387.152344 58.617188 391.070312 C 58.617188 394.984375 61.792969 398.160156 65.710938 398.160156 C 69.628906 398.160156 72.800781 394.984375 72.800781 391.070312 C 72.800781 387.152344 69.628906 383.976562 65.710938 383.976562 Z M 65.710938 184.046875 C 64.195312 184.046875 62.964844 185.277344 62.964844 186.792969 C 62.964844 188.308594 64.195312 189.539062 65.710938 189.539062 C 67.226562 189.539062 68.457031 188.308594 68.457031 186.792969 C 68.457031 185.277344 67.226562 184.046875 65.710938 184.046875 Z M 65.710938 204.140625 C 64.011719 204.140625 62.632812 205.519531 62.632812 207.21875 C 62.632812 208.921875 64.011719 210.300781 65.710938 210.300781 C 67.414062 210.300781 68.789062 208.921875 68.789062 207.21875 C 68.789062 205.519531 67.414062 204.140625 65.710938 204.140625 Z M 65.710938 224.300781 C 63.863281 224.300781 62.363281 225.800781 62.363281 227.648438 C 62.363281 229.496094 63.863281 230.992188 65.710938 230.992188 C 67.558594 230.992188 69.054688 229.496094 69.054688 227.648438 C 69.054688 225.800781 67.558594 224.300781 65.710938 224.300781 Z M 65.710938 244.171875 C 63.554688 244.171875 61.808594 245.917969 61.808594 248.074219 C 61.808594 250.230469 63.554688 251.980469 65.710938 251.980469 C 67.867188 251.980469 69.613281 250.230469 69.613281 248.074219 C 69.613281 245.917969 67.867188 244.171875 65.710938 244.171875 Z M 65.710938 263.746094 C 63.085938 263.746094 60.957031 265.875 60.957031 268.503906 C 60.957031 271.128906 63.085938 273.257812 65.710938 273.257812 C 68.335938 273.257812 70.464844 271.128906 70.464844 268.503906 C 70.464844 265.875 68.335938 263.746094 65.710938 263.746094 Z M 65.710938 284.101562 C 63.042969 284.101562 60.882812 286.265625 60.882812 288.929688 C 60.882812 291.597656 63.042969 293.757812 65.710938 293.757812 C 68.378906 293.757812 70.539062 291.597656 70.539062 288.929688 C 70.539062 286.265625 68.378906 284.101562 65.710938 284.101562 Z M 65.710938 303.582031 C 62.519531 303.582031 59.933594 306.167969 59.933594 309.359375 C 59.933594 312.546875 62.519531 315.132812 65.710938 315.132812 C 68.902344 315.132812 71.488281 312.546875 71.488281 309.359375 C 71.488281 306.167969 68.902344 303.582031 65.710938 303.582031 Z M 65.710938 323.484375 C 62.230469 323.484375 59.410156 326.304688 59.410156 329.785156 C 59.410156 333.265625 62.230469 336.085938 65.710938 336.085938 C 69.1875 336.085938 72.007812 333.265625 72.007812 329.785156 C 72.007812 326.304688 69.1875 323.484375 65.710938 323.484375 Z M 65.710938 343.121094 C 61.792969 343.121094 58.617188 346.296875 58.617188 350.214844 C 58.617188 354.132812 61.792969 357.304688 65.710938 357.304688 C 69.628906 357.304688 72.800781 354.132812 72.800781 350.214844 C 72.800781 346.296875 69.628906 343.121094 65.710938 343.121094 Z M 65.710938 363.546875 C 61.792969 363.546875 58.617188 366.722656 58.617188 370.640625 C 58.617188 374.558594 61.792969 377.734375 65.710938 377.734375 C 69.628906 377.734375 72.800781 374.558594 72.800781 370.640625 C 72.800781 366.722656 69.628906 363.546875 65.710938 363.546875 Z M 85.253906 203.179688 C 83.734375 203.179688 82.507812 204.410156 82.507812 205.925781 C 82.507812 207.441406 83.734375 208.667969 85.253906 208.667969 C 86.769531 208.667969 87.996094 207.441406 87.996094 205.925781 C 87.996094 204.410156 86.769531 203.179688 85.253906 203.179688 Z M 85.253906 223.273438 C 83.550781 223.273438 82.171875 224.652344 82.171875 226.351562 C 82.171875 228.054688 83.550781 229.433594 85.253906 229.433594 C 86.953125 229.433594 88.328125 228.054688 88.328125 226.351562 C 88.328125 224.652344 86.953125 223.273438 85.253906 223.273438 Z M 85.253906 243.4375 C 83.402344 243.4375 81.90625 244.933594 81.90625 246.78125 C 81.90625 248.628906 83.402344 250.128906 85.253906 250.128906 C 87.097656 250.128906 88.597656 248.628906 88.597656 246.78125 C 88.597656 244.933594 87.097656 243.4375 85.253906 243.4375 Z M 85.253906 263.304688 C 83.09375 263.304688 81.347656 265.050781 81.347656 267.207031 C 81.347656 269.363281 83.09375 271.113281 85.253906 271.113281 C 87.410156 271.113281 89.15625 269.363281 89.15625 267.207031 C 89.15625 265.050781 87.410156 263.304688 85.253906 263.304688 Z M 85.253906 282.878906 C 82.625 282.878906 80.496094 285.007812 80.496094 287.636719 C 80.496094 290.261719 82.625 292.390625 85.253906 292.390625 C 87.878906 292.390625 90.007812 290.261719 90.007812 287.636719 C 90.007812 285.007812 87.878906 282.878906 85.253906 282.878906 Z M 85.253906 303.234375 C 82.585938 303.234375 80.425781 305.398438 80.425781 308.0625 C 80.425781 310.730469 82.585938 312.890625 85.253906 312.890625 C 87.917969 312.890625 90.078125 310.730469 90.078125 308.0625 C 90.078125 305.398438 87.917969 303.234375 85.253906 303.234375 Z M 85.253906 322.714844 C 82.0625 322.714844 79.476562 325.300781 79.476562 328.492188 C 79.476562 331.683594 82.0625 334.265625 85.253906 334.265625 C 88.441406 334.265625 91.027344 331.683594 91.027344 328.492188 C 91.027344 325.300781 88.441406 322.714844 85.253906 322.714844 Z M 85.253906 342.617188 C 81.773438 342.617188 78.953125 345.4375 78.953125 348.917969 C 78.953125 352.398438 81.773438 355.21875 85.253906 355.21875 C 88.730469 355.21875 91.550781 352.398438 91.550781 348.917969 C 91.550781 345.4375 88.730469 342.617188 85.253906 342.617188 Z M 85.25 362.253906 C 81.332031 362.253906 78.160156 365.429688 78.160156 369.347656 C 78.160156 373.261719 81.332031 376.4375 85.25 376.4375 C 89.167969 376.4375 92.34375 373.261719 92.34375 369.347656 C 92.34375 365.429688 89.167969 362.253906 85.25 362.253906 Z M 85.25 382.683594 C 81.332031 382.683594 78.160156 385.855469 78.160156 389.773438 C 78.160156 393.691406 81.332031 396.863281 85.25 396.863281 C 89.167969 396.863281 92.34375 393.691406 92.34375 389.773438 C 92.34375 385.855469 89.167969 382.683594 85.25 382.683594 Z M 104.792969 223.609375 C 103.277344 223.609375 102.046875 224.835938 102.046875 226.351562 C 102.046875 227.867188 103.277344 229.097656 104.792969 229.097656 C 106.308594 229.097656 107.535156 227.867188 107.535156 226.351562 C 107.535156 224.835938 106.308594 223.609375 104.792969 223.609375 Z M 104.792969 243.703125 C 103.09375 243.703125 101.714844 245.078125 101.714844 246.78125 C 101.714844 248.480469 103.09375 249.859375 104.792969 249.859375 C 106.492188 249.859375 107.871094 248.480469 107.871094 246.78125 C 107.871094 245.078125 106.492188 243.703125 104.792969 243.703125 Z M 104.792969 263.863281 C 102.945312 263.863281 101.445312 265.359375 101.445312 267.207031 C 101.445312 269.054688 102.945312 270.554688 104.792969 270.554688 C 106.640625 270.554688 108.136719 269.054688 108.136719 267.207031 C 108.136719 265.359375 106.640625 263.863281 104.792969 263.863281 Z M 104.792969 283.730469 C 102.636719 283.730469 100.886719 285.480469 100.886719 287.636719 C 100.886719 289.792969 102.636719 291.539062 104.792969 291.539062 C 106.949219 291.539062 108.695312 289.792969 108.695312 287.636719 C 108.695312 285.480469 106.949219 283.730469 104.792969 283.730469 Z M 104.792969 303.308594 C 102.164062 303.308594 100.039062 305.4375 100.039062 308.0625 C 100.039062 310.691406 102.164062 312.820312 104.792969 312.820312 C 107.417969 312.820312 109.546875 310.691406 109.546875 308.0625 C 109.546875 305.4375 107.417969 303.308594 104.792969 303.308594 Z M 104.792969 323.664062 C 102.128906 323.664062 99.964844 325.824219 99.964844 328.492188 C 99.964844 331.15625 102.125 333.316406 104.792969 333.316406 C 107.460938 333.316406 109.621094 331.15625 109.621094 328.492188 C 109.621094 325.824219 107.460938 323.664062 104.792969 323.664062 Z M 104.792969 343.140625 C 101.601562 343.140625 99.015625 345.726562 99.015625 348.917969 C 99.015625 352.109375 101.601562 354.695312 104.792969 354.695312 C 107.980469 354.695312 110.566406 352.109375 110.566406 348.917969 C 110.566406 345.726562 107.980469 343.140625 104.792969 343.140625 Z M 104.792969 363.046875 C 101.3125 363.046875 98.492188 365.867188 98.492188 369.347656 C 98.492188 372.824219 101.3125 375.644531 104.792969 375.644531 C 108.273438 375.644531 111.089844 372.824219 111.089844 369.347656 C 111.089844 365.867188 108.273438 363.046875 104.792969 363.046875 Z M 104.792969 382.683594 C 100.875 382.683594 97.699219 385.855469 97.699219 389.773438 C 97.699219 393.691406 100.875 396.863281 104.792969 396.863281 C 108.710938 396.863281 111.882812 393.691406 111.882812 389.773438 C 111.882812 385.855469 108.710938 382.683594 104.792969 382.683594 Z M 124.332031 239.113281 C 122.816406 239.113281 121.589844 240.34375 121.589844 241.855469 C 121.589844 243.375 122.816406 244.601562 124.332031 244.601562 C 125.847656 244.601562 127.078125 243.375 127.078125 241.855469 C 127.078125 240.34375 125.847656 239.113281 124.332031 239.113281 Z M 124.332031 259.207031 C 122.632812 259.207031 121.253906 260.585938 121.253906 262.285156 C 121.253906 263.988281 122.632812 265.367188 124.332031 265.367188 C 126.03125 265.367188 127.414062 263.988281 127.414062 262.285156 C 127.414062 260.585938 126.03125 259.207031 124.332031 259.207031 Z M 124.332031 279.367188 C 122.488281 279.367188 120.988281 280.867188 120.988281 282.710938 C 120.988281 284.558594 122.488281 286.058594 124.332031 286.058594 C 126.179688 286.058594 127.679688 284.558594 127.679688 282.710938 C 127.679688 280.867188 126.179688 279.367188 124.332031 279.367188 Z M 124.332031 299.238281 C 122.175781 299.238281 120.429688 300.984375 120.429688 303.140625 C 120.429688 305.296875 122.175781 307.046875 124.332031 307.046875 C 126.488281 307.046875 128.238281 305.296875 128.238281 303.140625 C 128.238281 300.984375 126.488281 299.238281 124.332031 299.238281 Z M 124.332031 318.8125 C 121.707031 318.8125 119.578125 320.941406 119.578125 323.570312 C 119.578125 326.195312 121.707031 328.324219 124.332031 328.324219 C 126.960938 328.324219 129.089844 326.195312 129.089844 323.570312 C 129.089844 320.941406 126.960938 318.8125 124.332031 318.8125 Z M 124.332031 339.167969 C 121.667969 339.167969 119.503906 341.328125 119.503906 343.996094 C 119.503906 346.664062 121.667969 348.824219 124.332031 348.824219 C 127 348.824219 129.160156 346.664062 129.160156 343.996094 C 129.160156 341.328125 127 339.167969 124.332031 339.167969 Z M 124.332031 358.648438 C 121.144531 358.648438 118.558594 361.234375 118.558594 364.421875 C 118.558594 367.613281 121.144531 370.199219 124.332031 370.199219 C 127.523438 370.199219 130.109375 367.613281 130.109375 364.421875 C 130.109375 361.234375 127.523438 358.648438 124.332031 358.648438 Z M 124.332031 378.550781 C 120.855469 378.550781 118.035156 381.371094 118.035156 384.851562 C 118.035156 388.332031 120.855469 391.152344 124.332031 391.152344 C 127.8125 391.152344 130.632812 388.332031 130.632812 384.851562 C 130.632812 381.371094 127.8125 378.550781 124.332031 378.550781 Z M 143.875 244.734375 C 142.359375 244.734375 141.128906 245.960938 141.128906 247.480469 C 141.128906 248.996094 142.359375 250.222656 143.875 250.222656 C 145.390625 250.222656 146.617188 248.996094 146.617188 247.480469 C 146.617188 245.960938 145.390625 244.734375 143.875 244.734375 Z M 143.875 264.828125 C 142.175781 264.828125 140.792969 266.207031 140.792969 267.90625 C 140.792969 269.609375 142.175781 270.988281 143.875 270.988281 C 145.574219 270.988281 146.953125 269.609375 146.953125 267.90625 C 146.953125 266.207031 145.574219 264.828125 143.875 264.828125 Z M 143.875 284.988281 C 142.027344 284.988281 140.527344 286.488281 140.527344 288.335938 C 140.527344 290.183594 142.027344 291.679688 143.875 291.679688 C 145.722656 291.679688 147.21875 290.183594 147.21875 288.335938 C 147.21875 286.488281 145.722656 284.988281 143.875 284.988281 Z M 143.875 304.859375 C 141.71875 304.859375 139.96875 306.605469 139.96875 308.761719 C 139.96875 310.917969 141.71875 312.667969 143.875 312.667969 C 146.03125 312.667969 147.777344 310.917969 147.777344 308.761719 C 147.777344 306.605469 146.03125 304.859375 143.875 304.859375 Z M 143.875 324.433594 C 141.246094 324.433594 139.121094 326.5625 139.121094 329.191406 C 139.121094 331.816406 141.246094 333.945312 143.875 333.945312 C 146.5 333.945312 148.628906 331.816406 148.628906 329.191406 C 148.628906 326.5625 146.5 324.433594 143.875 324.433594 Z M 143.875 344.789062 C 141.207031 344.789062 139.046875 346.953125 139.046875 349.617188 C 139.046875 352.285156 141.207031 354.445312 143.875 354.445312 C 146.539062 354.445312 148.703125 352.285156 148.703125 349.617188 C 148.703125 346.953125 146.539062 344.789062 143.875 344.789062 Z M 143.875 364.269531 C 140.683594 364.269531 138.097656 366.855469 138.097656 370.046875 C 138.097656 373.234375 140.683594 375.820312 143.875 375.820312 C 147.0625 375.820312 149.648438 373.234375 149.648438 370.046875 C 149.648438 366.855469 147.0625 364.269531 143.875 364.269531 Z M 143.875 384.171875 C 140.394531 384.171875 137.574219 386.992188 137.574219 390.472656 C 137.574219 393.953125 140.394531 396.773438 143.875 396.773438 C 147.355469 396.773438 150.171875 393.953125 150.171875 390.472656 C 150.171875 386.992188 147.355469 384.171875 143.875 384.171875 Z M 163.414062 256.15625 C 161.898438 256.15625 160.671875 257.382812 160.671875 258.898438 C 160.671875 260.414062 161.898438 261.644531 163.414062 261.644531 C 164.929688 261.644531 166.160156 260.414062 166.160156 258.898438 C 166.160156 257.382812 164.929688 256.15625 163.414062 256.15625 Z M 163.414062 276.246094 C 161.714844 276.246094 160.335938 277.625 160.335938 279.324219 C 160.335938 281.027344 161.714844 282.40625 163.414062 282.40625 C 165.117188 282.40625 166.492188 281.027344 166.492188 279.324219 C 166.492188 277.625 165.117188 276.246094 163.414062 276.246094 Z M 163.414062 296.40625 C 161.566406 296.40625 160.070312 297.90625 160.070312 299.753906 C 160.070312 301.601562 161.566406 303.097656 163.414062 303.097656 C 165.261719 303.097656 166.761719 301.601562 166.761719 299.753906 C 166.761719 297.90625 165.261719 296.40625 163.414062 296.40625 Z M 163.414062 316.277344 C 161.257812 316.277344 159.511719 318.023438 159.511719 320.179688 C 159.511719 322.335938 161.257812 324.085938 163.414062 324.085938 C 165.570312 324.085938 167.320312 322.335938 167.320312 320.179688 C 167.320312 318.023438 165.570312 316.277344 163.414062 316.277344 Z M 163.414062 335.851562 C 160.789062 335.851562 158.660156 337.984375 158.660156 340.609375 C 158.660156 343.234375 160.789062 345.363281 163.414062 345.363281 C 166.039062 345.363281 168.167969 343.234375 168.167969 340.609375 C 168.167969 337.984375 166.039062 335.851562 163.414062 335.851562 Z M 163.414062 356.210938 C 160.75 356.210938 158.585938 358.371094 158.585938 361.035156 C 158.585938 363.703125 160.75 365.863281 163.414062 365.863281 C 166.082031 365.863281 168.242188 363.703125 168.242188 361.035156 C 168.242188 358.371094 166.082031 356.210938 163.414062 356.210938 Z M 163.414062 375.6875 C 160.226562 375.6875 157.640625 378.273438 157.640625 381.464844 C 157.640625 384.652344 160.226562 387.242188 163.414062 387.242188 C 166.605469 387.242188 169.191406 384.652344 169.191406 381.464844 C 169.191406 378.273438 166.605469 375.6875 163.414062 375.6875 Z M 163.414062 395.59375 C 159.933594 395.59375 157.117188 398.414062 157.117188 401.890625 C 157.117188 405.371094 159.933594 408.191406 163.414062 408.191406 C 166.894531 408.191406 169.714844 405.371094 169.714844 401.890625 C 169.714844 398.414062 166.894531 395.59375 163.414062 395.59375 Z M 182.957031 270.335938 C 181.441406 270.335938 180.210938 271.566406 180.210938 273.082031 C 180.210938 274.597656 181.441406 275.828125 182.957031 275.828125 C 184.472656 275.828125 185.699219 274.597656 185.699219 273.082031 C 185.699219 271.566406 184.472656 270.335938 182.957031 270.335938 Z M 182.957031 290.429688 C 181.257812 290.429688 179.878906 291.808594 179.878906 293.507812 C 179.878906 295.210938 181.257812 296.589844 182.957031 296.589844 C 184.65625 296.589844 186.035156 295.210938 186.035156 293.507812 C 186.035156 291.808594 184.65625 290.429688 182.957031 290.429688 Z M 182.957031 310.589844 C 181.109375 310.589844 179.609375 312.089844 179.609375 313.9375 C 179.609375 315.785156 181.109375 317.285156 182.957031 317.285156 C 184.804688 317.285156 186.300781 315.785156 186.300781 313.9375 C 186.300781 312.089844 184.804688 310.589844 182.957031 310.589844 Z M 182.957031 330.460938 C 180.800781 330.460938 179.054688 332.207031 179.054688 334.367188 C 179.054688 336.523438 180.800781 338.269531 182.957031 338.269531 C 185.113281 338.269531 186.859375 336.523438 186.859375 334.367188 C 186.859375 332.207031 185.113281 330.460938 182.957031 330.460938 Z M 182.957031 350.035156 C 180.328125 350.035156 178.199219 352.167969 178.199219 354.792969 C 178.199219 357.417969 180.328125 359.546875 182.957031 359.546875 C 185.582031 359.546875 187.710938 357.417969 187.710938 354.792969 C 187.710938 352.167969 185.582031 350.035156 182.957031 350.035156 Z M 182.957031 370.394531 C 180.289062 370.394531 178.128906 372.554688 178.128906 375.21875 C 178.128906 377.886719 180.289062 380.046875 182.957031 380.046875 C 185.621094 380.046875 187.785156 377.886719 187.785156 375.21875 C 187.785156 372.554688 185.621094 370.394531 182.957031 370.394531 Z M 182.957031 389.871094 C 179.765625 389.871094 177.179688 392.457031 177.179688 395.648438 C 177.179688 398.835938 179.765625 401.421875 182.957031 401.421875 C 186.144531 401.421875 188.730469 398.835938 188.730469 395.648438 C 188.730469 392.457031 186.144531 389.871094 182.957031 389.871094 Z M 202.496094 274.699219 C 200.980469 274.699219 199.75 275.929688 199.75 277.445312 C 199.75 278.960938 200.980469 280.1875 202.496094 280.1875 C 204.011719 280.1875 205.242188 278.960938 205.242188 277.445312 C 205.242188 275.929688 204.011719 274.699219 202.496094 274.699219 Z M 202.496094 294.792969 C 200.796875 294.792969 199.417969 296.171875 199.417969 297.871094 C 199.417969 299.574219 200.796875 300.953125 202.496094 300.953125 C 204.195312 300.953125 205.574219 299.574219 205.574219 297.871094 C 205.574219 296.171875 204.195312 294.792969 202.496094 294.792969 Z M 202.496094 314.953125 C 200.648438 314.953125 199.152344 316.453125 199.152344 318.300781 C 199.152344 320.148438 200.648438 321.644531 202.496094 321.644531 C 204.34375 321.644531 205.84375 320.148438 205.84375 318.300781 C 205.84375 316.453125 204.34375 314.953125 202.496094 314.953125 Z M 202.496094 334.824219 C 200.339844 334.824219 198.59375 336.570312 198.59375 338.726562 C 198.59375 340.882812 200.339844 342.632812 202.496094 342.632812 C 204.652344 342.632812 206.402344 340.882812 206.402344 338.726562 C 206.402344 336.570312 204.652344 334.824219 202.496094 334.824219 Z M 202.496094 354.398438 C 199.871094 354.398438 197.742188 356.527344 197.742188 359.152344 C 197.742188 361.78125 199.871094 363.910156 202.496094 363.910156 C 205.121094 363.910156 207.253906 361.78125 207.253906 359.152344 C 207.253906 356.527344 205.121094 354.398438 202.496094 354.398438 Z M 202.496094 374.753906 C 199.832031 374.753906 197.667969 376.917969 197.667969 379.582031 C 197.667969 382.25 199.832031 384.410156 202.496094 384.410156 C 205.164062 384.410156 207.324219 382.25 207.324219 379.582031 C 207.324219 376.917969 205.164062 374.753906 202.496094 374.753906 Z M 202.496094 394.234375 C 199.308594 394.234375 196.722656 396.820312 196.722656 400.011719 C 196.722656 403.199219 199.308594 405.785156 202.496094 405.785156 C 205.6875 405.785156 208.273438 403.199219 208.273438 400.011719 C 208.273438 396.820312 205.6875 394.234375 202.496094 394.234375 Z M 222.039062 278.863281 C 220.523438 278.863281 219.292969 280.089844 219.292969 281.605469 C 219.292969 283.121094 220.523438 284.351562 222.039062 284.351562 C 223.554688 284.351562 224.78125 283.121094 224.78125 281.605469 C 224.78125 280.089844 223.554688 278.863281 222.039062 278.863281 Z M 222.039062 298.953125 C 220.335938 298.953125 218.957031 300.335938 218.957031 302.035156 C 218.957031 303.734375 220.335938 305.113281 222.039062 305.113281 C 223.738281 305.113281 225.117188 303.734375 225.117188 302.035156 C 225.117188 300.335938 223.738281 298.953125 222.039062 298.953125 Z M 222.039062 319.117188 C 220.191406 319.117188 218.691406 320.613281 218.691406 322.460938 C 218.691406 324.308594 220.191406 325.808594 222.039062 325.808594 C 223.886719 325.808594 225.382812 324.308594 225.382812 322.460938 C 225.382812 320.613281 223.886719 319.117188 222.039062 319.117188 Z M 222.039062 338.984375 C 219.882812 338.984375 218.132812 340.734375 218.132812 342.890625 C 218.132812 345.046875 219.882812 346.792969 222.039062 346.792969 C 224.191406 346.792969 225.941406 345.046875 225.941406 342.890625 C 225.941406 340.734375 224.191406 338.984375 222.039062 338.984375 Z M 222.039062 358.5625 C 219.414062 358.5625 217.28125 360.691406 217.28125 363.316406 C 217.28125 365.941406 219.414062 368.074219 222.039062 368.074219 C 224.664062 368.074219 226.792969 365.941406 226.792969 363.316406 C 226.792969 360.691406 224.664062 358.5625 222.039062 358.5625 Z M 222.039062 378.917969 C 219.371094 378.917969 217.210938 381.078125 217.210938 383.746094 C 217.210938 386.410156 219.371094 388.570312 222.039062 388.570312 C 224.703125 388.570312 226.863281 386.410156 226.863281 383.746094 C 226.863281 381.078125 224.703125 378.917969 222.039062 378.917969 Z M 222.039062 398.394531 C 218.847656 398.394531 216.261719 400.980469 216.261719 404.171875 C 216.261719 407.363281 218.847656 409.949219 222.039062 409.949219 C 225.226562 409.949219 227.8125 407.363281 227.8125 404.171875 C 227.8125 400.980469 225.226562 398.394531 222.039062 398.394531 Z M 241.578125 283.199219 C 240.0625 283.199219 238.832031 284.429688 238.832031 285.945312 C 238.832031 287.460938 240.0625 288.6875 241.578125 288.6875 C 243.09375 288.6875 244.324219 287.460938 244.324219 285.945312 C 244.324219 284.429688 243.09375 283.199219 241.578125 283.199219 Z M 241.578125 303.292969 C 239.878906 303.292969 238.5 304.671875 238.5 306.371094 C 238.5 308.074219 239.878906 309.453125 241.578125 309.453125 C 243.277344 309.453125 244.65625 308.074219 244.65625 306.371094 C 244.65625 304.671875 243.277344 303.292969 241.578125 303.292969 Z M 241.578125 323.453125 C 239.730469 323.453125 238.230469 324.953125 238.230469 326.800781 C 238.230469 328.648438 239.730469 330.144531 241.578125 330.144531 C 243.425781 330.144531 244.921875 328.648438 244.921875 326.800781 C 244.921875 324.953125 243.425781 323.453125 241.578125 323.453125 Z M 241.578125 343.324219 C 239.421875 343.324219 237.675781 345.070312 237.675781 347.226562 C 237.675781 349.382812 239.421875 351.132812 241.578125 351.132812 C 243.734375 351.132812 245.480469 349.382812 245.480469 347.226562 C 245.480469 345.070312 243.734375 343.324219 241.578125 343.324219 Z M 241.578125 362.898438 C 238.953125 362.898438 236.824219 365.03125 236.824219 367.65625 C 236.824219 370.28125 238.953125 372.410156 241.578125 372.410156 C 244.203125 372.410156 246.332031 370.28125 246.332031 367.65625 C 246.332031 365.03125 244.203125 362.898438 241.578125 362.898438 Z M 241.578125 383.253906 C 238.910156 383.253906 236.75 385.417969 236.75 388.082031 C 236.75 390.75 238.910156 392.910156 241.578125 392.910156 C 244.246094 392.910156 246.40625 390.75 246.40625 388.082031 C 246.40625 385.417969 244.246094 383.253906 241.578125 383.253906 Z M 261.121094 287.578125 C 259.601562 287.578125 258.375 288.808594 258.375 290.324219 C 258.375 291.839844 259.601562 293.066406 261.121094 293.066406 C 262.632812 293.066406 263.863281 291.839844 263.863281 290.324219 C 263.863281 288.808594 262.632812 287.578125 261.121094 287.578125 Z M 261.121094 307.671875 C 259.417969 307.671875 258.039062 309.050781 258.039062 310.75 C 258.039062 312.449219 259.417969 313.828125 261.121094 313.828125 C 262.820312 313.828125 264.199219 312.449219 264.199219 310.75 C 264.199219 309.050781 262.820312 307.671875 261.121094 307.671875 Z M 261.121094 327.832031 C 259.269531 327.832031 257.773438 329.328125 257.773438 331.179688 C 257.773438 333.027344 259.269531 334.523438 261.121094 334.523438 C 262.96875 334.523438 264.464844 333.027344 264.464844 331.179688 C 264.464844 329.328125 262.96875 327.832031 261.121094 327.832031 Z M 261.121094 347.703125 C 258.964844 347.703125 257.214844 349.449219 257.214844 351.605469 C 257.214844 353.761719 258.964844 355.511719 261.121094 355.511719 C 263.273438 355.511719 265.023438 353.761719 265.023438 351.605469 C 265.023438 349.449219 263.273438 347.703125 261.121094 347.703125 Z M 261.121094 367.277344 C 258.492188 367.277344 256.363281 369.40625 256.363281 372.03125 C 256.363281 374.660156 258.492188 376.789062 261.121094 376.789062 C 263.746094 376.789062 265.875 374.660156 265.875 372.03125 C 265.875 369.40625 263.746094 367.277344 261.121094 367.277344 Z M 261.121094 387.632812 C 258.453125 387.632812 256.292969 389.796875 256.292969 392.460938 C 256.292969 395.128906 258.453125 397.289062 261.121094 397.289062 C 263.785156 397.289062 265.949219 395.128906 265.949219 392.460938 C 265.949219 389.796875 263.785156 387.632812 261.121094 387.632812 Z M 280.660156 292.710938 C 279.144531 292.710938 277.914062 293.941406 277.914062 295.457031 C 277.914062 296.972656 279.144531 298.199219 280.660156 298.199219 C 282.175781 298.199219 283.402344 296.972656 283.402344 295.457031 C 283.402344 293.941406 282.175781 292.710938 280.660156 292.710938 Z M 280.660156 312.804688 C 278.960938 312.804688 277.582031 314.183594 277.582031 315.882812 C 277.582031 317.582031 278.960938 318.960938 280.660156 318.960938 C 282.359375 318.960938 283.738281 317.582031 283.738281 315.882812 C 283.738281 314.183594 282.359375 312.804688 280.660156 312.804688 Z M 280.660156 332.964844 C 278.8125 332.964844 277.316406 334.460938 277.316406 336.3125 C 277.316406 338.160156 278.8125 339.65625 280.660156 339.65625 C 282.507812 339.65625 284.007812 338.160156 284.007812 336.3125 C 284.007812 334.460938 282.507812 332.964844 280.660156 332.964844 Z M 280.660156 352.835938 C 278.503906 352.835938 276.757812 354.582031 276.757812 356.738281 C 276.757812 358.894531 278.503906 360.644531 280.660156 360.644531 C 282.816406 360.644531 284.5625 358.894531 284.5625 356.738281 C 284.5625 354.582031 282.816406 352.835938 280.660156 352.835938 Z M 280.660156 372.410156 C 278.03125 372.410156 275.902344 374.539062 275.902344 377.167969 C 275.902344 379.789062 278.03125 381.921875 280.660156 381.921875 C 283.285156 381.921875 285.414062 379.789062 285.414062 377.167969 C 285.414062 374.539062 283.285156 372.410156 280.660156 372.410156 Z M 280.660156 392.765625 C 277.996094 392.765625 275.832031 394.925781 275.832031 397.59375 C 275.832031 400.261719 277.996094 402.421875 280.660156 402.421875 C 283.324219 402.421875 285.488281 400.261719 285.488281 397.59375 C 285.488281 394.925781 283.324219 392.765625 280.660156 392.765625 Z M 300.199219 294.96875 C 298.6875 294.96875 297.457031 296.195312 297.457031 297.710938 C 297.457031 299.226562 298.6875 300.457031 300.199219 300.457031 C 301.714844 300.457031 302.945312 299.226562 302.945312 297.710938 C 302.945312 296.195312 301.714844 294.96875 300.199219 294.96875 Z M 300.199219 315.058594 C 298.5 315.058594 297.121094 316.4375 297.121094 318.140625 C 297.121094 319.839844 298.5 321.21875 300.199219 321.21875 C 301.902344 321.21875 303.28125 319.839844 303.28125 318.140625 C 303.28125 316.4375 301.902344 315.058594 300.199219 315.058594 Z M 300.199219 335.222656 C 298.351562 335.222656 296.855469 336.71875 296.855469 338.566406 C 296.855469 340.414062 298.351562 341.910156 300.199219 341.910156 C 302.046875 341.910156 303.546875 340.414062 303.546875 338.566406 C 303.546875 336.71875 302.046875 335.222656 300.199219 335.222656 Z M 300.199219 355.089844 C 298.046875 355.089844 296.296875 356.835938 296.296875 358.996094 C 296.296875 361.152344 298.046875 362.898438 300.199219 362.898438 C 302.355469 362.898438 304.105469 361.152344 304.105469 358.996094 C 304.105469 356.835938 302.355469 355.089844 300.199219 355.089844 Z M 300.199219 374.664062 C 297.574219 374.664062 295.445312 376.796875 295.445312 379.421875 C 295.445312 382.046875 297.574219 384.175781 300.199219 384.175781 C 302.828125 384.175781 304.957031 382.046875 304.957031 379.421875 C 304.957031 376.796875 302.828125 374.664062 300.199219 374.664062 Z M 300.199219 395.023438 C 297.535156 395.023438 295.375 397.183594 295.375 399.851562 C 295.375 402.515625 297.535156 404.675781 300.199219 404.675781 C 302.867188 404.675781 305.027344 402.515625 305.027344 399.851562 C 305.027344 397.183594 302.867188 395.023438 300.199219 395.023438 Z M 319.742188 298.265625 C 318.226562 298.265625 317 299.496094 317 301.011719 C 317 302.527344 318.226562 303.757812 319.742188 303.757812 C 321.257812 303.757812 322.484375 302.527344 322.484375 301.011719 C 322.484375 299.496094 321.257812 298.265625 319.742188 298.265625 Z M 319.742188 318.359375 C 318.039062 318.359375 316.664062 319.738281 316.664062 321.441406 C 316.664062 323.140625 318.039062 324.519531 319.742188 324.519531 C 321.441406 324.519531 322.820312 323.140625 322.820312 321.441406 C 322.820312 319.738281 321.441406 318.359375 319.742188 318.359375 Z M 319.742188 338.523438 C 317.894531 338.523438 316.394531 340.019531 316.394531 341.867188 C 316.394531 343.714844 317.894531 345.214844 319.742188 345.214844 C 321.589844 345.214844 323.085938 343.714844 323.085938 341.867188 C 323.085938 340.019531 321.589844 338.523438 319.742188 338.523438 Z M 319.742188 358.390625 C 317.585938 358.390625 315.839844 360.140625 315.839844 362.296875 C 315.839844 364.453125 317.585938 366.199219 319.742188 366.199219 C 321.898438 366.199219 323.644531 364.453125 323.644531 362.296875 C 323.644531 360.140625 321.898438 358.390625 319.742188 358.390625 Z M 319.742188 377.96875 C 317.117188 377.96875 314.988281 380.097656 314.988281 382.722656 C 314.988281 385.347656 317.117188 387.476562 319.742188 387.476562 C 322.367188 387.476562 324.496094 385.347656 324.496094 382.722656 C 324.496094 380.097656 322.367188 377.96875 319.742188 377.96875 Z M 319.742188 398.324219 C 317.074219 398.324219 314.914062 400.484375 314.914062 403.148438 C 314.914062 405.816406 317.074219 407.976562 319.742188 407.976562 C 322.40625 407.976562 324.570312 405.816406 324.570312 403.148438 C 324.570312 400.484375 322.40625 398.324219 319.742188 398.324219 Z M 339.285156 301.355469 C 337.765625 301.355469 336.539062 302.585938 336.539062 304.101562 C 336.539062 305.617188 337.765625 306.84375 339.285156 306.84375 C 340.796875 306.84375 342.027344 305.617188 342.027344 304.101562 C 342.027344 302.585938 340.796875 301.355469 339.285156 301.355469 Z M 339.285156 321.449219 C 337.582031 321.449219 336.203125 322.828125 336.203125 324.527344 C 336.203125 326.226562 337.582031 327.605469 339.285156 327.605469 C 340.984375 327.605469 342.359375 326.226562 342.359375 324.527344 C 342.359375 322.828125 340.984375 321.449219 339.285156 321.449219 Z M 339.285156 341.609375 C 337.433594 341.609375 335.9375 343.105469 335.9375 344.957031 C 335.9375 346.800781 337.433594 348.300781 339.285156 348.300781 C 341.128906 348.300781 342.628906 346.800781 342.628906 344.957031 C 342.628906 343.105469 341.128906 341.609375 339.285156 341.609375 Z M 339.285156 361.476562 C 337.125 361.476562 335.378906 363.226562 335.378906 365.382812 C 335.378906 367.539062 337.125 369.289062 339.285156 369.289062 C 341.4375 369.289062 343.1875 367.539062 343.1875 365.382812 C 343.1875 363.226562 341.4375 361.476562 339.285156 361.476562 Z M 339.285156 381.054688 C 336.65625 381.054688 334.527344 383.183594 334.527344 385.808594 C 334.527344 388.4375 336.65625 390.566406 339.285156 390.566406 C 341.910156 390.566406 344.039062 388.4375 344.039062 385.808594 C 344.039062 383.183594 341.910156 381.054688 339.285156 381.054688 Z M 358.824219 301.507812 C 357.308594 301.507812 356.078125 302.734375 356.078125 304.25 C 356.078125 305.765625 357.308594 306.996094 358.824219 306.996094 C 360.339844 306.996094 361.566406 305.765625 361.566406 304.25 C 361.566406 302.734375 360.339844 301.507812 358.824219 301.507812 Z M 358.824219 321.601562 C 357.121094 321.601562 355.746094 322.980469 355.746094 324.679688 C 355.746094 326.378906 357.121094 327.757812 358.824219 327.757812 C 360.523438 327.757812 361.902344 326.378906 361.902344 324.679688 C 361.902344 322.980469 360.523438 321.601562 358.824219 321.601562 Z M 358.824219 341.761719 C 356.976562 341.761719 355.476562 343.257812 355.476562 345.105469 C 355.476562 346.953125 356.976562 348.453125 358.824219 348.453125 C 360.671875 348.453125 362.167969 346.953125 362.167969 345.105469 C 362.167969 343.257812 360.671875 341.761719 358.824219 341.761719 Z M 358.824219 361.628906 C 356.667969 361.628906 354.917969 363.378906 354.917969 365.535156 C 354.917969 367.691406 356.667969 369.4375 358.824219 369.4375 C 360.980469 369.4375 362.726562 367.691406 362.726562 365.535156 C 362.726562 363.378906 360.980469 361.628906 358.824219 361.628906 Z M 358.824219 381.207031 C 356.195312 381.207031 354.066406 383.335938 354.066406 385.960938 C 354.066406 388.589844 356.195312 390.71875 358.824219 390.71875 C 361.449219 390.71875 363.578125 388.589844 363.578125 385.960938 C 363.578125 383.335938 361.449219 381.207031 358.824219 381.207031 Z M 378.363281 304.25 C 376.847656 304.25 375.621094 305.480469 375.621094 306.996094 C 375.621094 308.511719 376.847656 309.738281 378.363281 309.738281 C 379.878906 309.738281 381.109375 308.511719 381.109375 306.996094 C 381.109375 305.480469 379.878906 304.25 378.363281 304.25 Z M 378.363281 324.34375 C 376.664062 324.34375 375.285156 325.722656 375.285156 327.421875 C 375.285156 329.125 376.664062 330.503906 378.363281 330.503906 C 380.066406 330.503906 381.445312 329.125 381.445312 327.421875 C 381.445312 325.722656 380.066406 324.34375 378.363281 324.34375 Z M 378.363281 344.503906 C 376.515625 344.503906 375.019531 346.003906 375.019531 347.851562 C 375.019531 349.699219 376.515625 351.195312 378.363281 351.195312 C 380.210938 351.195312 381.710938 349.699219 381.710938 347.851562 C 381.710938 346.003906 380.210938 344.503906 378.363281 344.503906 Z M 378.363281 364.375 C 376.210938 364.375 374.460938 366.121094 374.460938 368.277344 C 374.460938 370.433594 376.210938 372.183594 378.363281 372.183594 C 380.519531 372.183594 382.269531 370.433594 382.269531 368.277344 C 382.269531 366.121094 380.519531 364.375 378.363281 364.375 Z M 378.363281 383.949219 C 375.738281 383.949219 373.609375 386.078125 373.609375 388.707031 C 373.609375 391.332031 375.738281 393.460938 378.363281 393.460938 C 380.992188 393.460938 383.117188 391.332031 383.117188 388.707031 C 383.117188 386.078125 380.992188 383.949219 378.363281 383.949219 Z M 397.90625 306.183594 C 396.390625 306.183594 395.160156 307.414062 395.160156 308.929688 C 395.160156 310.445312 396.390625 311.671875 397.90625 311.671875 C 399.421875 311.671875 400.648438 310.445312 400.648438 308.929688 C 400.648438 307.414062 399.421875 306.183594 397.90625 306.183594 Z M 397.90625 326.277344 C 396.207031 326.277344 394.824219 327.65625 394.824219 329.355469 C 394.824219 331.054688 396.207031 332.433594 397.90625 332.433594 C 399.605469 332.433594 400.984375 331.054688 400.984375 329.355469 C 400.984375 327.65625 399.605469 326.277344 397.90625 326.277344 Z M 397.90625 346.4375 C 396.058594 346.4375 394.558594 347.9375 394.558594 349.785156 C 394.558594 351.632812 396.058594 353.128906 397.90625 353.128906 C 399.753906 353.128906 401.25 351.632812 401.25 349.785156 C 401.25 347.9375 399.753906 346.4375 397.90625 346.4375 Z M 397.90625 366.308594 C 395.75 366.308594 394 368.054688 394 370.210938 C 394 372.367188 395.75 374.117188 397.90625 374.117188 C 400.0625 374.117188 401.808594 372.367188 401.808594 370.210938 C 401.808594 368.054688 400.0625 366.308594 397.90625 366.308594 Z M 397.90625 385.882812 C 395.277344 385.882812 393.148438 388.011719 393.148438 390.640625 C 393.148438 393.265625 395.277344 395.394531 397.90625 395.394531 C 400.53125 395.394531 402.660156 393.265625 402.660156 390.640625 C 402.660156 388.011719 400.53125 385.882812 397.90625 385.882812 Z M 417.445312 307.222656 C 415.929688 307.222656 414.703125 308.449219 414.703125 309.96875 C 414.703125 311.484375 415.929688 312.710938 417.445312 312.710938 C 418.960938 312.710938 420.191406 311.484375 420.191406 309.96875 C 420.191406 308.449219 418.960938 307.222656 417.445312 307.222656 Z M 417.445312 327.316406 C 415.746094 327.316406 414.367188 328.695312 414.367188 330.394531 C 414.367188 332.09375 415.746094 333.472656 417.445312 333.472656 C 419.148438 333.472656 420.523438 332.09375 420.523438 330.394531 C 420.523438 328.695312 419.148438 327.316406 417.445312 327.316406 Z M 417.445312 347.476562 C 415.597656 347.476562 414.101562 348.976562 414.101562 350.824219 C 414.101562 352.667969 415.597656 354.167969 417.445312 354.167969 C 419.292969 354.167969 420.789062 352.667969 420.789062 350.824219 C 420.789062 348.976562 419.292969 347.476562 417.445312 347.476562 Z M 417.445312 367.34375 C 415.289062 367.34375 413.539062 369.09375 413.539062 371.25 C 413.539062 373.40625 415.289062 375.152344 417.445312 375.152344 C 419.601562 375.152344 421.351562 373.40625 421.351562 371.25 C 421.351562 369.09375 419.601562 367.34375 417.445312 367.34375 Z M 417.445312 386.921875 C 414.820312 386.921875 412.691406 389.050781 412.691406 391.675781 C 412.691406 394.304688 414.820312 396.433594 417.445312 396.433594 C 420.074219 396.433594 422.199219 394.304688 422.199219 391.675781 C 422.199219 389.050781 420.074219 386.921875 417.445312 386.921875 Z M 436.988281 308.632812 C 435.46875 308.632812 434.242188 309.863281 434.242188 311.378906 C 434.242188 312.894531 435.46875 314.121094 436.988281 314.121094 C 438.503906 314.121094 439.730469 312.894531 439.730469 311.378906 C 439.730469 309.863281 438.503906 308.632812 436.988281 308.632812 Z M 436.988281 328.726562 C 435.285156 328.726562 433.90625 330.105469 433.90625 331.804688 C 433.90625 333.503906 435.285156 334.882812 436.988281 334.882812 C 438.6875 334.882812 440.066406 333.503906 440.066406 331.804688 C 440.066406 330.105469 438.6875 328.726562 436.988281 328.726562 Z M 436.988281 348.886719 C 435.136719 348.886719 433.640625 350.386719 433.640625 352.234375 C 433.640625 354.082031 435.136719 355.578125 436.988281 355.578125 C 438.835938 355.578125 440.332031 354.082031 440.332031 352.234375 C 440.332031 350.386719 438.835938 348.886719 436.988281 348.886719 Z M 436.988281 368.753906 C 434.832031 368.753906 433.082031 370.503906 433.082031 372.660156 C 433.082031 374.816406 434.832031 376.566406 436.988281 376.566406 C 439.140625 376.566406 440.890625 374.816406 440.890625 372.660156 C 440.890625 370.503906 439.140625 368.753906 436.988281 368.753906 Z M 436.988281 388.332031 C 434.359375 388.332031 432.230469 390.460938 432.230469 393.089844 C 432.230469 395.714844 434.359375 397.84375 436.988281 397.84375 C 439.613281 397.84375 441.742188 395.714844 441.742188 393.089844 C 441.742188 390.460938 439.613281 388.332031 436.988281 388.332031 Z M 456.527344 311.308594 C 455.011719 311.308594 453.785156 312.535156 453.785156 314.050781 C 453.785156 315.566406 455.011719 316.796875 456.527344 316.796875 C 458.042969 316.796875 459.273438 315.566406 459.273438 314.050781 C 459.273438 312.535156 458.042969 311.308594 456.527344 311.308594 Z M 456.527344 331.402344 C 454.828125 331.402344 453.449219 332.78125 453.449219 334.480469 C 453.449219 336.179688 454.828125 337.558594 456.527344 337.558594 C 458.226562 337.558594 459.605469 336.179688 459.605469 334.480469 C 459.605469 332.78125 458.226562 331.402344 456.527344 331.402344 Z M 456.527344 351.5625 C 454.679688 351.5625 453.179688 353.058594 453.179688 354.90625 C 453.179688 356.753906 454.679688 358.253906 456.527344 358.253906 C 458.375 358.253906 459.875 356.753906 459.875 354.90625 C 459.875 353.058594 458.375 351.5625 456.527344 351.5625 Z M 456.527344 371.429688 C 454.371094 371.429688 452.625 373.179688 452.625 375.335938 C 452.625 377.492188 454.371094 379.238281 456.527344 379.238281 C 458.683594 379.238281 460.433594 377.492188 460.433594 375.335938 C 460.433594 373.179688 458.683594 371.429688 456.527344 371.429688 Z M 456.527344 391.007812 C 453.902344 391.007812 451.773438 393.136719 451.773438 395.761719 C 451.773438 398.390625 453.902344 400.519531 456.527344 400.519531 C 459.152344 400.519531 461.285156 398.390625 461.285156 395.761719 C 461.285156 393.136719 459.152344 391.007812 456.527344 391.007812 Z M 476.070312 310.933594 C 474.554688 310.933594 473.324219 312.160156 473.324219 313.675781 C 473.324219 315.191406 474.554688 316.421875 476.070312 316.421875 C 477.585938 316.421875 478.8125 315.191406 478.8125 313.675781 C 478.8125 312.160156 477.585938 310.933594 476.070312 310.933594 Z M 476.070312 331.027344 C 474.367188 331.027344 472.988281 332.40625 472.988281 334.105469 C 472.988281 335.808594 474.367188 337.183594 476.070312 337.183594 C 477.769531 337.183594 479.148438 335.808594 479.148438 334.105469 C 479.148438 332.40625 477.769531 331.027344 476.070312 331.027344 Z M 476.070312 351.1875 C 474.222656 351.1875 472.722656 352.683594 472.722656 354.53125 C 472.722656 356.378906 474.222656 357.878906 476.070312 357.878906 C 477.914062 357.878906 479.414062 356.378906 479.414062 354.53125 C 479.414062 352.683594 477.914062 351.1875 476.070312 351.1875 Z M 476.070312 371.054688 C 473.914062 371.054688 472.164062 372.804688 472.164062 374.960938 C 472.164062 377.117188 473.914062 378.863281 476.070312 378.863281 C 478.226562 378.863281 479.972656 377.117188 479.972656 374.960938 C 479.972656 372.804688 478.226562 371.054688 476.070312 371.054688 Z M 476.070312 390.632812 C 473.441406 390.632812 471.3125 392.761719 471.3125 395.386719 C 471.3125 398.015625 473.441406 400.144531 476.070312 400.144531 C 478.695312 400.144531 480.824219 398.015625 480.824219 395.386719 C 480.824219 392.761719 478.695312 390.632812 476.070312 390.632812 Z M 495.609375 313.238281 C 494.09375 313.238281 492.863281 314.46875 492.863281 315.980469 C 492.863281 317.5 494.09375 318.726562 495.609375 318.726562 C 497.125 318.726562 498.355469 317.5 498.355469 315.980469 C 498.355469 314.46875 497.125 313.238281 495.609375 313.238281 Z M 495.609375 333.332031 C 493.910156 333.332031 492.53125 334.707031 492.53125 336.410156 C 492.53125 338.109375 493.910156 339.488281 495.609375 339.488281 C 497.308594 339.488281 498.6875 338.109375 498.6875 336.410156 C 498.6875 334.707031 497.308594 333.332031 495.609375 333.332031 Z M 495.609375 353.492188 C 493.761719 353.492188 492.261719 354.988281 492.261719 356.835938 C 492.261719 358.683594 493.761719 360.179688 495.609375 360.179688 C 497.457031 360.179688 498.953125 358.683594 498.953125 356.835938 C 498.953125 354.988281 497.457031 353.492188 495.609375 353.492188 Z M 495.609375 373.359375 C 493.453125 373.359375 491.703125 375.109375 491.703125 377.265625 C 491.703125 379.421875 493.453125 381.167969 495.609375 381.167969 C 497.765625 381.167969 499.511719 379.421875 499.511719 377.265625 C 499.511719 375.109375 497.765625 373.359375 495.609375 373.359375 Z M 495.609375 392.9375 C 492.984375 392.9375 490.855469 395.066406 490.855469 397.691406 C 490.855469 400.316406 492.984375 402.445312 495.609375 402.445312 C 498.234375 402.445312 500.367188 400.316406 500.367188 397.691406 C 500.367188 395.066406 498.234375 392.9375 495.609375 392.9375 Z M 515.152344 315.40625 C 513.632812 315.40625 512.40625 316.632812 512.40625 318.152344 C 512.40625 319.664062 513.632812 320.894531 515.152344 320.894531 C 516.664062 320.894531 517.894531 319.664062 517.894531 318.152344 C 517.894531 316.632812 516.664062 315.40625 515.152344 315.40625 Z M 515.152344 335.496094 C 513.449219 335.496094 512.070312 336.875 512.070312 338.578125 C 512.070312 340.277344 513.449219 341.65625 515.152344 341.65625 C 516.851562 341.65625 518.230469 340.277344 518.230469 338.578125 C 518.230469 336.875 516.851562 335.496094 515.152344 335.496094 Z M 515.152344 355.660156 C 513.300781 355.660156 511.804688 357.15625 511.804688 359.007812 C 511.804688 360.851562 513.300781 362.351562 515.152344 362.351562 C 516.996094 362.351562 518.496094 360.851562 518.496094 359.007812 C 518.496094 357.15625 516.996094 355.660156 515.152344 355.660156 Z M 515.152344 375.527344 C 512.992188 375.527344 511.246094 377.277344 511.246094 379.433594 C 511.246094 381.589844 512.992188 383.335938 515.152344 383.335938 C 517.304688 383.335938 519.054688 381.589844 519.054688 379.433594 C 519.054688 377.277344 517.304688 375.527344 515.152344 375.527344 Z M 515.152344 395.105469 C 512.523438 395.105469 510.394531 397.234375 510.394531 399.859375 C 510.394531 402.484375 512.523438 404.617188 515.152344 404.617188 C 517.777344 404.617188 519.90625 402.484375 519.90625 399.859375 C 519.90625 397.234375 517.777344 395.105469 515.152344 395.105469 Z M 534.691406 319.007812 C 533.175781 319.007812 531.945312 320.238281 531.945312 321.753906 C 531.945312 323.269531 533.175781 324.496094 534.691406 324.496094 C 536.207031 324.496094 537.4375 323.269531 537.4375 321.753906 C 537.4375 320.238281 536.207031 319.007812 534.691406 319.007812 Z M 534.691406 339.101562 C 532.992188 339.101562 531.613281 340.480469 531.613281 342.179688 C 531.613281 343.878906 532.992188 345.257812 534.691406 345.257812 C 536.394531 345.257812 537.769531 343.878906 537.769531 342.179688 C 537.769531 340.480469 536.394531 339.101562 534.691406 339.101562 Z M 534.691406 359.261719 C 532.84375 359.261719 531.347656 360.761719 531.347656 362.609375 C 531.347656 364.457031 532.84375 365.953125 534.691406 365.953125 C 536.539062 365.953125 538.039062 364.457031 538.039062 362.609375 C 538.039062 360.761719 536.539062 359.261719 534.691406 359.261719 Z M 534.691406 379.132812 C 532.535156 379.132812 530.789062 380.878906 530.789062 383.035156 C 530.789062 385.191406 532.535156 386.941406 534.691406 386.941406 C 536.847656 386.941406 538.59375 385.191406 538.59375 383.035156 C 538.59375 380.878906 536.847656 379.132812 534.691406 379.132812 Z M 534.691406 398.707031 C 532.066406 398.707031 529.9375 400.835938 529.9375 403.460938 C 529.9375 406.089844 532.066406 408.21875 534.691406 408.21875 C 537.316406 408.21875 539.445312 406.089844 539.445312 403.460938 C 539.445312 400.835938 537.316406 398.707031 534.691406 398.707031 Z M 554.230469 319.539062 C 552.714844 319.539062 551.488281 320.765625 551.488281 322.28125 C 551.488281 323.800781 552.714844 325.027344 554.230469 325.027344 C 555.75 325.027344 556.976562 323.800781 556.976562 322.28125 C 556.976562 320.765625 555.75 319.539062 554.230469 319.539062 Z M 554.230469 339.632812 C 552.53125 339.632812 551.152344 341.007812 551.152344 342.710938 C 551.152344 344.410156 552.53125 345.789062 554.230469 345.789062 C 555.933594 345.789062 557.3125 344.410156 557.3125 342.710938 C 557.3125 341.007812 555.933594 339.632812 554.230469 339.632812 Z M 554.230469 359.792969 C 552.382812 359.792969 550.886719 361.289062 550.886719 363.140625 C 550.886719 364.984375 552.382812 366.484375 554.230469 366.484375 C 556.078125 366.484375 557.578125 364.984375 557.578125 363.140625 C 557.578125 361.289062 556.078125 359.792969 554.230469 359.792969 Z M 554.230469 379.660156 C 552.074219 379.660156 550.328125 381.410156 550.328125 383.566406 C 550.328125 385.722656 552.074219 387.46875 554.230469 387.46875 C 556.386719 387.46875 558.136719 385.722656 558.136719 383.566406 C 558.136719 381.410156 556.386719 379.660156 554.230469 379.660156 Z M 554.230469 399.238281 C 551.605469 399.238281 549.476562 401.367188 549.476562 403.992188 C 549.476562 406.621094 551.605469 408.75 554.230469 408.75 C 556.859375 408.75 558.988281 406.621094 558.988281 403.992188 C 558.988281 401.367188 556.859375 399.238281 554.230469 399.238281 Z M 573.773438 323.628906 C 572.257812 323.628906 571.027344 324.859375 571.027344 326.371094 C 571.027344 327.890625 572.257812 329.117188 573.773438 329.117188 C 575.289062 329.117188 576.515625 327.890625 576.515625 326.371094 C 576.515625 324.859375 575.289062 323.628906 573.773438 323.628906 Z M 573.773438 343.722656 C 572.074219 343.722656 570.695312 345.101562 570.695312 346.800781 C 570.695312 348.5 572.074219 349.878906 573.773438 349.878906 C 575.472656 349.878906 576.851562 348.5 576.851562 346.800781 C 576.851562 345.101562 575.472656 343.722656 573.773438 343.722656 Z M 573.773438 363.882812 C 571.925781 363.882812 570.429688 365.378906 570.429688 367.230469 C 570.429688 369.074219 571.925781 370.574219 573.773438 370.574219 C 575.621094 370.574219 577.117188 369.074219 577.117188 367.230469 C 577.117188 365.378906 575.621094 363.882812 573.773438 363.882812 Z M 573.773438 383.753906 C 571.617188 383.753906 569.867188 385.5 569.867188 387.65625 C 569.867188 389.8125 571.617188 391.5625 573.773438 391.5625 C 575.929688 391.5625 577.675781 389.8125 577.675781 387.65625 C 577.675781 385.5 575.929688 383.753906 573.773438 383.753906 Z M 593.3125 327.292969 C 591.796875 327.292969 590.570312 328.523438 590.570312 330.039062 C 590.570312 331.554688 591.796875 332.78125 593.3125 332.78125 C 594.828125 332.78125 596.058594 331.554688 596.058594 330.039062 C 596.058594 328.523438 594.828125 327.292969 593.3125 327.292969 Z M 593.3125 347.386719 C 591.613281 347.386719 590.234375 348.765625 590.234375 350.464844 C 590.234375 352.164062 591.613281 353.542969 593.3125 353.542969 C 595.015625 353.542969 596.390625 352.164062 596.390625 350.464844 C 596.390625 348.765625 595.015625 347.386719 593.3125 347.386719 Z M 593.3125 367.546875 C 591.464844 367.546875 589.96875 369.046875 589.96875 370.894531 C 589.96875 372.742188 591.464844 374.238281 593.3125 374.238281 C 595.160156 374.238281 596.660156 372.742188 596.660156 370.894531 C 596.660156 369.046875 595.160156 367.546875 593.3125 367.546875 Z M 593.3125 387.414062 C 591.15625 387.414062 589.410156 389.164062 589.410156 391.320312 C 589.410156 393.476562 591.15625 395.226562 593.3125 395.226562 C 595.46875 395.226562 597.21875 393.476562 597.21875 391.320312 C 597.21875 389.164062 595.46875 387.414062 593.3125 387.414062 Z M 612.855469 330.996094 C 611.339844 330.996094 610.109375 332.226562 610.109375 333.742188 C 610.109375 335.257812 611.339844 336.484375 612.855469 336.484375 C 614.371094 336.484375 615.597656 335.257812 615.597656 333.742188 C 615.597656 332.226562 614.371094 330.996094 612.855469 330.996094 Z M 612.855469 351.089844 C 611.152344 351.089844 609.773438 352.46875 609.773438 354.167969 C 609.773438 355.867188 611.152344 357.246094 612.855469 357.246094 C 614.554688 357.246094 615.933594 355.867188 615.933594 354.167969 C 615.933594 352.46875 614.554688 351.089844 612.855469 351.089844 Z M 612.855469 371.25 C 611.007812 371.25 609.507812 372.746094 609.507812 374.597656 C 609.507812 376.441406 611.007812 377.941406 612.855469 377.941406 C 614.703125 377.941406 616.199219 376.441406 616.199219 374.597656 C 616.199219 372.746094 614.703125 371.25 612.855469 371.25 Z M 612.855469 391.117188 C 610.699219 391.117188 608.949219 392.867188 608.949219 395.023438 C 608.949219 397.179688 610.699219 398.925781 612.855469 398.925781 C 615.011719 398.925781 616.757812 397.179688 616.757812 395.023438 C 616.757812 392.867188 615.011719 391.117188 612.855469 391.117188 Z M 632.394531 336.265625 C 630.878906 336.265625 629.652344 337.492188 629.652344 339.007812 C 629.652344 340.523438 630.878906 341.753906 632.394531 341.753906 C 633.910156 341.753906 635.140625 340.523438 635.140625 339.007812 C 635.140625 337.492188 633.910156 336.265625 632.394531 336.265625 Z M 632.394531 356.355469 C 630.695312 356.355469 629.316406 357.734375 629.316406 359.433594 C 629.316406 361.136719 630.695312 362.515625 632.394531 362.515625 C 634.097656 362.515625 635.476562 361.136719 635.476562 359.433594 C 635.476562 357.734375 634.097656 356.355469 632.394531 356.355469 Z M 632.394531 376.519531 C 630.546875 376.519531 629.050781 378.015625 629.050781 379.863281 C 629.050781 381.710938 630.546875 383.210938 632.394531 383.210938 C 634.242188 383.210938 635.742188 381.710938 635.742188 379.863281 C 635.742188 378.015625 634.242188 376.519531 632.394531 376.519531 Z M 632.394531 396.386719 C 630.238281 396.386719 628.492188 398.136719 628.492188 400.289062 C 628.492188 402.445312 630.238281 404.195312 632.394531 404.195312 C 634.550781 404.195312 636.300781 402.445312 636.300781 400.289062 C 636.300781 398.136719 634.550781 396.386719 632.394531 396.386719 Z M 651.9375 342.523438 C 650.421875 342.523438 649.191406 343.75 649.191406 345.265625 C 649.191406 346.78125 650.421875 348.011719 651.9375 348.011719 C 653.453125 348.011719 654.679688 346.78125 654.679688 345.265625 C 654.679688 343.75 653.453125 342.523438 651.9375 342.523438 Z M 651.9375 362.613281 C 650.238281 362.613281 648.859375 363.992188 648.859375 365.691406 C 648.859375 367.390625 650.238281 368.773438 651.9375 368.773438 C 653.636719 368.773438 655.015625 367.390625 655.015625 365.691406 C 655.015625 363.992188 653.636719 362.613281 651.9375 362.613281 Z M 651.9375 382.773438 C 650.089844 382.773438 648.589844 384.273438 648.589844 386.121094 C 648.589844 387.96875 650.089844 389.464844 651.9375 389.464844 C 653.78125 389.464844 655.28125 387.96875 655.28125 386.121094 C 655.28125 384.273438 653.78125 382.773438 651.9375 382.773438 Z M 651.9375 402.644531 C 649.78125 402.644531 648.03125 404.390625 648.03125 406.546875 C 648.03125 408.703125 649.78125 410.453125 651.9375 410.453125 C 654.09375 410.453125 655.839844 408.703125 655.839844 406.546875 C 655.839844 404.390625 654.09375 402.644531 651.9375 402.644531 Z M 671.476562 349.835938 C 669.960938 349.835938 668.730469 351.0625 668.730469 352.578125 C 668.730469 354.097656 669.960938 355.324219 671.476562 355.324219 C 672.992188 355.324219 674.222656 354.097656 674.222656 352.578125 C 674.222656 351.0625 672.992188 349.835938 671.476562 349.835938 Z M 671.476562 369.925781 C 669.777344 369.925781 668.398438 371.308594 668.398438 373.007812 C 668.398438 374.707031 669.777344 376.085938 671.476562 376.085938 C 673.179688 376.085938 674.554688 374.707031 674.554688 373.007812 C 674.554688 371.308594 673.179688 369.925781 671.476562 369.925781 Z M 671.476562 390.089844 C 669.628906 390.089844 668.132812 391.585938 668.132812 393.433594 C 668.132812 395.28125 669.628906 396.78125 671.476562 396.78125 C 673.324219 396.78125 674.820312 395.28125 674.820312 393.433594 C 674.820312 391.585938 673.324219 390.089844 671.476562 390.089844 Z M 691.019531 357.605469 C 689.5 357.605469 688.273438 358.835938 688.273438 360.351562 C 688.273438 361.867188 689.5 363.09375 691.019531 363.09375 C 692.535156 363.09375 693.761719 361.867188 693.761719 360.351562 C 693.761719 358.835938 692.535156 357.605469 691.019531 357.605469 Z M 691.019531 377.699219 C 689.316406 377.699219 687.9375 379.078125 687.9375 380.777344 C 687.9375 382.476562 689.316406 383.855469 691.019531 383.855469 C 692.71875 383.855469 694.097656 382.476562 694.097656 380.777344 C 694.097656 379.078125 692.71875 377.699219 691.019531 377.699219 Z M 691.019531 397.859375 C 689.171875 397.859375 687.671875 399.355469 687.671875 401.207031 C 687.671875 403.054688 689.171875 404.550781 691.019531 404.550781 C 692.867188 404.550781 694.363281 403.054688 694.363281 401.207031 C 694.363281 399.355469 692.867188 397.859375 691.019531 397.859375 Z M 710.558594 366.921875 C 709.042969 366.921875 707.816406 368.152344 707.816406 369.664062 C 707.816406 371.183594 709.042969 372.410156 710.558594 372.410156 C 712.074219 372.410156 713.304688 371.183594 713.304688 369.664062 C 713.304688 368.152344 712.074219 366.921875 710.558594 366.921875 Z M 710.558594 387.011719 C 708.859375 387.011719 707.480469 388.390625 707.480469 390.09375 C 707.480469 391.792969 708.859375 393.171875 710.558594 393.171875 C 712.257812 393.171875 713.636719 391.792969 713.636719 390.09375 C 713.636719 388.390625 712.257812 387.011719 710.558594 387.011719 Z M 730.101562 379.023438 C 728.585938 379.023438 727.355469 380.253906 727.355469 381.769531 C 727.355469 383.285156 728.585938 384.511719 730.101562 384.511719 C 731.617188 384.511719 732.84375 383.285156 732.84375 381.769531 C 732.84375 380.253906 731.617188 379.023438 730.101562 379.023438 Z M 730.101562 399.117188 C 728.398438 399.117188 727.019531 400.496094 727.019531 402.195312 C 727.019531 403.898438 728.398438 405.277344 730.101562 405.277344 C 731.800781 405.277344 733.179688 403.898438 733.179688 402.195312 C 733.179688 400.496094 731.800781 399.117188 730.101562 399.117188 Z M 749.640625 391.570312 C 748.125 391.570312 746.894531 392.800781 746.894531 394.316406 C 746.894531 395.832031 748.125 397.0625 749.640625 397.0625 C 751.15625 397.0625 752.386719 395.832031 752.386719 394.316406 C 752.386719 392.800781 751.15625 391.570312 749.640625 391.570312 Z M 749.640625 391.570312 " fill-opacity="1" fill-rule="evenodd"/></g></g></g></g></svg>