<svg width="170" height="195" viewBox="0 0 170 195" fill="none" xmlns="http://www.w3.org/2000/svg">
<path d="M7.92564 57.9171C9.45264 36.7242 15.941 15.8026 27.1197 -2.38556C31.2699 -9.07613 36.1425 -15.4668 42.2272 -20.5654C51.6378 -28.5286 62.2025 -30.8716 74.3213 -29.5538C83.2245 -28.6319 92.2604 -26.1587 101.056 -24.6222C123.798 -20.5599 147.201 -19.7598 170.077 -23.2084C209.803 -29.121 246.96 -48.6556 273.43 -78.6044C288.31 -95.4443 299.972 -114.757 310.67 -134.382C314.948 -142.259 319.09 -150.209 323.233 -158.157C306.707 -125.274 289.859 -91.3045 262.476 -65.7539C261.823 -65.1153 260.681 -64.0882 259.971 -63.4727C258.423 -62.0884 256.413 -60.3166 254.83 -59.0578C247.894 -53.3122 240.347 -48.1194 232.574 -43.5579C220.843 -36.7169 208.241 -31.2703 195.21 -27.351C169.125 -19.4635 141.267 -17.8827 114.267 -21.24C105.379 -22.2874 96.247 -24.1026 87.4971 -26.036C69.4572 -29.9885 54.702 -31.1356 40.3843 -17.5745C34.2464 -11.8428 29.4018 -4.8689 25.2404 2.35321C15.4663 19.3334 9.67413 38.4785 7.92751 57.9153L7.92564 57.9171Z" fill="#155689"/>
<path d="M9.51814 61.3317C11.3498 40.5808 18.0269 20.1797 29.2047 2.48982C33.5175 -4.2395 38.5415 -10.6763 44.8131 -15.7371C62.9838 -30.5459 81.9985 -23.4686 102.587 -19.7874C104.03 -19.5475 106.837 -19.0824 108.315 -18.8378C109.442 -18.6754 112.162 -18.2952 113.242 -18.1402C169.369 -10.3477 226.882 -24.0279 268.165 -63.6729C292.087 -86.6949 308.242 -116.014 324.312 -144.595C322.228 -140.726 320.14 -136.86 318.036 -133.001C309.58 -117.601 300.784 -102.292 290.445 -88.0256C283.321 -78.2426 275.412 -68.8814 266.524 -60.6128C232.773 -29.0786 187.431 -13.9284 141.331 -14.6842C128.27 -14.842 115.196 -16.1874 102.35 -18.4982C83.0012 -21.9672 64.2034 -29.0924 46.7456 -15.9623C40.3666 -11.2005 35.1912 -5.01192 30.7915 1.54391C18.9119 19.3676 11.7563 40.1378 9.51814 61.3298V61.3317Z" fill="#155689"/>
<path d="M11.1106 64.7462C13.2413 44.441 20.0894 24.5391 31.2943 7.35408C36.9322 -1.20061 43.7982 -9.37231 52.8415 -14.5494C60.1167 -18.7705 68.4143 -20.0532 76.7325 -19.4866C81.1051 -19.2245 85.4328 -18.5269 89.726 -17.7258C117.258 -11.8022 145.723 -9.10193 173.758 -12.7684C211.877 -17.4647 248.782 -34.2012 275.639 -61.5707C292.772 -78.848 306.077 -99.3562 318.678 -119.979C320.929 -123.653 323.161 -127.34 325.392 -131.029C313.737 -111.034 301.937 -90.9436 287.185 -72.9751C269.186 -51.0199 247.653 -34.7964 221.258 -23.8433C191.029 -11.2198 157.467 -7.66046 124.953 -10.8156C113.023 -11.8649 101.196 -14.1268 89.4952 -16.5317C73.3719 -19.6573 60.0223 -20.1234 46.7344 -9.12592C40.0694 -3.68118 34.7586 3.27145 30.1878 10.4807C19.8829 26.8868 13.4459 45.5992 11.1096 64.7498L11.1106 64.7462Z" fill="#155689"/>
<path d="M12.7047 68.1579C15.6765 43.7784 26.1879 17.8246 43.3579 -0.21225C46.8847 -3.82422 50.9088 -7.0975 55.3552 -9.54764C55.729 -9.74142 56.4112 -10.1133 56.7803 -10.3081C57.8793 -10.8479 59.3194 -11.4856 60.4866 -11.9203C60.8801 -12.0938 61.5959 -12.3088 62.0174 -12.4481C62.5332 -12.6087 63.0426 -12.7923 63.564 -12.9335C64.2462 -13.0996 65.2938 -13.3728 65.9227 -13.5168C66.3732 -13.6007 67.8301 -13.8628 68.3123 -13.9533C72.0326 -14.4839 75.8548 -14.5919 79.5994 -14.3261C88.6568 -13.7235 97.5553 -11.4699 106.474 -9.9823C152.806 -2.04407 201.113 -5.56561 242.826 -28.3227C253.042 -33.9133 262.708 -40.5466 271.478 -48.1683C281.027 -56.5292 289.615 -65.956 297.451 -75.8968C307.944 -89.1616 317.207 -103.361 326.477 -117.475C323.086 -112.118 319.702 -106.756 316.219 -101.456C305.529 -85.0836 294.068 -69.0715 280.246 -55.1007C234.842 -9.06778 168.431 2.41968 106.262 -8.77063C99.4533 -9.9537 92.6584 -11.5068 85.8401 -12.5173C82.1993 -13.023 78.4537 -13.4014 74.7764 -13.3516C73.5166 -13.3571 72.0794 -13.2713 70.828 -13.1762C69.7627 -13.0535 69.3954 -13.0101 68.4759 -12.9031L66.1461 -12.4943C64.978 -12.2211 63.4827 -11.8723 62.3435 -11.4754C51.2274 -7.94376 42.5514 0.912689 35.8247 10.0248C23.4152 27.1277 15.6026 47.3396 12.7075 68.1561L12.7047 68.1579Z" fill="#155689"/>
<path d="M14.2972 71.5724C17.7279 47.4135 28.2234 22.7581 45.3906 4.96762C51.6705 -1.37411 59.3626 -6.4894 68.2508 -8.36368C69.2423 -8.53163 70.4179 -8.79002 71.3805 -8.89154C72.7963 -9.09087 74.3177 -9.2016 75.7232 -9.28374C79.5173 -9.4194 83.3909 -9.19144 87.157 -8.7088C94.9313 -7.73889 102.626 -5.94769 110.357 -4.76738C121.679 -2.97153 133.127 -1.74048 144.584 -1.31967C204.975 1.14893 259.804 -18.4364 298.452 -65.4937C301.377 -68.9423 304.511 -72.7776 307.288 -76.3471C314.307 -85.3199 320.939 -94.6488 327.555 -103.911C319.929 -92.8317 312.192 -81.7153 303.832 -71.1543C282.966 -44.5074 259.908 -25.1713 227.873 -12.8468C190.134 1.87613 148.238 2.86171 108.613 -3.83531C102.982 -4.79045 97.2573 -5.98459 91.6483 -6.92496C86.543 -7.77397 81.3368 -8.37381 76.154 -8.2317C66.2658 -7.97792 58.2439 -4.73047 50.6042 1.42485C48.6539 3.03058 46.6503 4.83566 44.9046 6.66194C28.216 24.457 18.1353 47.7309 14.2972 71.5724Z" fill="#155689"/>
<path d="M15.8906 74.9841C19.3595 53.2218 28.4384 32.1701 42.7309 15.1788C48.5511 8.40887 55.5077 2.27756 63.9034 -1.15816C73.0785 -4.95102 83.3152 -4.61879 92.9566 -3.1561C99.0591 -2.23419 105.071 -1.00958 111.153 -0.0452271C145.405 5.40965 180.998 5.89047 214.671 -3.13394C235.384 -8.65067 255.236 -17.6944 272.432 -30.4203C281.421 -37.1109 289.708 -44.7151 297.376 -52.8508C308.609 -64.6493 318.634 -77.5376 328.635 -90.3558C318.837 -77.3604 308.931 -64.389 297.828 -52.4364C286.74 -40.4793 274.263 -29.6175 260.224 -21.1375C239.184 -8.3535 215.231 -0.486328 190.817 2.90694C165.349 6.50876 139.376 5.46228 114.009 1.56699C106.93 0.516785 99.8459 -0.982819 92.7922 -2.08284C83.304 -3.54184 73.2888 -3.96358 64.2548 -0.308228C55.7357 3.11919 48.6829 9.35295 42.8057 16.2336C28.7337 32.9738 19.639 53.59 15.8906 74.9823V74.9841Z" fill="#155689"/>
<path d="M17.4831 78.3986C19.4755 67.1557 23.021 56.101 28.0198 45.8077C35.3483 30.8153 47.1325 13.8887 62.2297 5.82678C76.4194 -1.69341 91.0353 1.07141 106.078 3.70149C157.041 12.7361 212.355 11.7597 258.804 -13.0904C280.169 -24.325 297.99 -40.9582 313.958 -58.72C319.307 -64.6594 324.517 -70.7225 329.717 -76.7919C299.908 -40.2947 272.762 -12.2017 225.758 1.47099C206.433 7.25441 186.212 9.86511 166.049 10.1004C147.89 10.2988 129.746 8.69772 111.844 5.78433C101.96 4.21921 92.0913 1.84198 82.0415 1.95734C81.2145 1.97026 79.879 2.00255 79.0529 2.0773C78.7576 2.10222 77.8876 2.14282 77.5633 2.19449C76.7559 2.29694 75.4073 2.42337 74.6046 2.59409L73.1346 2.85063L71.6833 3.19208C70.7955 3.37204 69.6778 3.7467 68.8143 3.99771C68.2975 4.14536 67.8863 4.32164 67.4088 4.48868C58.9383 7.5894 51.8332 13.4955 45.8523 20.0615C31.2326 36.4631 21.6389 56.987 17.4831 78.3986Z" fill="#155689"/>
<path d="M19.0754 81.8103C20.7669 73.2196 23.3854 64.7009 26.8805 56.6529C33.8408 40.6094 45.8718 22.6325 60.8905 13.023C65.9191 9.84203 71.6047 7.58571 77.5277 6.67856C79.4538 6.38971 81.5303 6.18298 83.4815 6.12485C91.4436 5.83691 99.3244 7.1898 107.13 8.49008C153.473 16.4089 202.71 17.5302 247.073 0.204865C257.146 -3.70058 266.905 -8.55008 275.978 -14.387C293.421 -25.5063 308.441 -39.8748 322.67 -54.7085C325.398 -57.5314 328.097 -60.383 330.8 -63.2318C314.571 -45.541 297.851 -27.8955 277.632 -14.5716C244.97 7.12428 204.929 15.4557 165.983 15.1447C146.176 15.0348 126.438 12.9022 106.954 9.51535C103.062 8.84723 99.1721 8.18646 95.2668 7.70935C90.8755 7.1658 86.4543 6.89542 82.0489 7.14273C80.1565 7.24886 78.0894 7.48235 76.2259 7.83302C75.2886 7.97513 74.2681 8.25845 73.3635 8.45593C54.5208 13.3267 39.8834 32.6508 31.0597 48.8974C25.5152 59.223 21.5173 70.3755 19.0773 81.8131L19.0754 81.8103Z" fill="#155689"/>
<path d="M20.6678 85.2248C23.4452 72.33 28.3543 59.857 35.1501 48.5098C43.9 34.2243 56.8505 18.6164 73.4569 13.3368C88.6233 8.55469 104.508 13.1015 119.761 15.0708C174.68 23.0949 234.826 21.252 282.826 -9.22835C290.549 -14.1212 297.969 -19.6462 305.02 -25.4417C314.318 -33.1169 323.136 -41.3947 331.88 -49.6716C322.232 -40.2476 312.422 -30.8836 301.951 -22.3418C292.968 -15.0238 283.374 -8.32582 273.185 -2.74359C254.449 7.52757 233.691 13.8878 212.583 17.246C177.942 22.7101 142.522 20.0477 108.1 14.2892C96.7732 12.4297 84.8917 10.6495 73.7158 14.1342C57.1103 19.2753 43.9635 35.125 35.1865 49.3643C28.4552 60.4411 23.5966 72.6364 20.6697 85.223L20.6678 85.2248Z" fill="#155689"/>
<path d="M22.2622 88.6393C26.6011 70.2712 35.309 52.8711 47.7577 38.5413C51.5079 34.2483 55.6039 30.2173 60.1625 26.7613C79.9799 11.5087 98.19 16.6563 120.804 19.8631C180.722 28.5166 245.588 27.2338 296.967 -8.21692C309.632 -16.6203 321.347 -26.3543 332.959 -36.1078C321.483 -26.1679 309.853 -16.3471 297.26 -7.79149C245.876 28.201 180.836 29.6867 120.667 20.8035C98.3853 17.6123 80.1659 12.3882 60.5868 27.3141C53.0116 33.0117 46.683 40.1729 41.1544 47.7937C32.2933 60.0489 25.947 74.0419 22.2603 88.6411L22.2622 88.6393Z" fill="#155689"/>
<path d="M23.8546 92.0511C29.6084 69.6068 42.7282 47.2714 61.1569 32.7007C61.5924 32.3851 62.4428 31.7327 62.8502 31.4364C63.168 31.2094 64.2398 30.4721 64.5828 30.2275C65.0192 29.9331 65.9472 29.3499 66.3584 29.0758C66.7023 28.8737 67.806 28.2065 68.1751 27.9869C68.6498 27.7359 69.5909 27.2025 70.0348 26.9662L71.9347 26.0194C72.4281 25.809 73.4131 25.3522 73.8738 25.1537C74.2551 25.0098 75.4447 24.529 75.8522 24.374C76.6531 24.11 77.7502 23.6975 78.5473 23.4908C81.7125 22.5449 85.0077 21.9598 88.299 21.6987C95.8397 21.0684 103.387 21.981 110.834 23.0395C158.735 30.2727 208.755 34.1782 255.825 20.3624C284.874 12.1815 310.217 -4.69353 334.044 -22.5522C327.366 -17.4683 320.602 -12.4213 313.69 -7.63644C310.746 -5.61819 307.358 -3.33142 304.34 -1.42207C286.245 10.2804 266.231 19.1073 245.164 24.0408C201.054 34.5464 155.079 30.7517 110.703 23.9144C103.313 22.8448 95.8322 21.9367 88.3682 22.5274C85.1282 22.7645 81.8864 23.3192 78.7716 24.23C77.9586 24.4358 76.9054 24.8252 76.1166 25.0827L74.8177 25.5847L74.1682 25.8367C73.5439 26.1043 72.829 26.4282 72.2524 26.6783L71.0002 27.2901L70.374 27.5993C69.7404 27.9343 69.1115 28.2849 68.534 28.595L66.7313 29.659C66.0836 30.0679 65.5528 30.4176 64.9706 30.7858C64.4529 31.155 63.2156 31.9754 62.6857 32.386C55.1629 37.8935 48.8016 44.8138 43.2206 52.2196C34.2773 64.1177 27.7628 77.7526 23.8574 92.052L23.8546 92.0511Z" fill="#155689"/>
<path d="M25.4479 95.4655C30.5766 76.9848 40.4133 59.6909 53.9694 45.9286C61.097 38.7563 69.4451 32.4386 79.1669 29.1718C86.2309 26.7521 93.8192 26.3304 101.226 26.7899C108.643 27.2652 115.95 28.5073 123.27 29.4726C145.23 32.4432 167.322 34.6442 189.493 34.957C223.529 35.3954 258.253 30.8338 289.404 16.7172C295.257 14.1055 301.102 11.1765 306.726 8.11725C316.436 2.82202 325.809 -3.0463 335.122 -8.98843C320.521 0.628433 305.61 9.96201 289.621 17.1897C251.621 34.7309 208.644 37.7541 167.293 34.9976C145.121 33.8053 123.208 29.8584 101.175 27.6085C83.2077 26.2934 70.5029 31.5278 57.3468 43.4674C42.1786 57.4991 31.2214 75.786 25.4516 95.4683L25.4479 95.4655Z" fill="#155689"/>
<path d="M27.0404 98.8773C31.9513 82.4822 40.6638 67.1548 52.364 54.5147C59.1645 47.2418 66.978 40.638 76.1222 36.4262C81.0995 34.1016 86.4954 32.6453 91.967 32.0824C101.102 31.155 110.252 32.3713 119.29 33.5876C135.519 35.7839 151.843 37.7523 168.166 39.0184C211.509 42.5723 256.51 40.65 297.014 23.6763C310.502 18.2103 323.431 11.4921 336.204 4.56714C320.359 13.4337 304.156 21.8842 286.993 28.0293C269.859 34.2843 251.854 38.0199 233.699 39.8324C193.654 43.8846 153.428 39.107 113.765 33.666C110.154 33.2138 106.538 32.8124 102.91 32.6352C94.7827 32.1858 86.4889 32.924 78.8959 35.9583C69.6058 39.6414 61.5559 45.8557 54.6152 52.8979C49.2399 58.3334 44.3822 64.4269 40.2208 70.812C34.6006 79.5254 30.1607 89.0159 27.0422 98.8782L27.0404 98.8773Z" fill="#155689"/>
<path d="M28.6328 102.292C35.4996 81.1837 48.6922 61.7949 66.6929 48.3953C74.7709 42.5067 83.9086 38.3318 93.9631 37.2724C101.161 36.4778 108.425 37.0112 115.584 37.8372C133.435 40.0575 151.273 42.4108 169.193 43.9953C211.085 47.8924 254.309 47.8619 294.678 34.8426C309.263 30.2976 323.367 24.3647 337.281 18.131C320.609 25.8717 303.537 33.0301 285.768 37.9784C233.787 52.5749 178.973 46.7213 126.197 39.9459C112.111 38.1546 97.3825 35.6288 83.5769 40.2006C78.9052 41.7343 74.4812 43.9583 70.3441 46.5866C62.4465 51.6723 55.5563 58.182 49.509 65.298C40.2498 76.1589 33.196 88.8432 28.6318 102.296L28.6328 102.292Z" fill="#155689"/>
<path d="M30.2252 105.704C37.1565 85.7868 49.9015 67.678 66.8555 54.8072C75.7007 48.113 86.2085 43.2386 97.4077 42.3102C100.506 42.0121 103.669 41.9484 106.778 42.0426C128.109 43.341 149.178 47.0858 170.449 48.9731C212.739 53.4248 256.133 54.8146 297.64 44.262C311.458 40.8909 324.976 36.4511 338.36 31.6883C318.392 39.1116 297.927 45.5152 276.854 49.0764C227.467 57.4447 177.218 50.8704 127.962 44.788C117.406 43.5117 106.771 41.9143 96.1499 43.1121C89.1017 43.867 82.2788 46.1353 76.0792 49.5064C65.1809 55.4403 56.003 64.0854 48.2315 73.6045C40.4965 83.2204 34.41 94.145 30.2205 105.703L30.2252 105.704Z" fill="#155689"/>
<path d="M31.8195 109.118C40.3797 86.4106 56.573 65.824 78.2024 53.9831C87.5523 48.9038 98.2881 46.7748 108.908 47.1458C115.981 47.287 122.994 48.1757 129.987 48.9795C164.946 53.0391 199.881 58.1017 235.123 58.7929C261.531 59.486 287.985 57.0783 313.79 51.4721C322.399 49.6338 330.938 47.5113 339.443 45.2485C312.358 52.9089 284.48 58.3214 256.262 59.2543C213.91 60.8582 171.833 54.6429 129.905 49.6569C122.911 48.8401 115.918 47.9432 108.892 47.7946C94.0986 47.2538 81.4518 51.3512 69.5095 59.9317C52.4256 72.2036 39.3311 89.66 31.8176 109.118H31.8195Z" fill="#155689"/>
<path d="M33.4119 112.532C42.3964 90.1777 59.0009 70.2306 80.6743 58.9055C90.0326 54.0486 100.65 51.9704 111.179 52.2528C118.193 52.3405 125.156 53.1535 132.097 53.9157C163.345 57.3792 194.433 62.2443 225.793 64.6133C257.108 67.3642 288.719 66.6518 319.836 62.153C326.752 61.1803 333.644 60.0415 340.521 58.8123C306.235 65.5204 271.109 68.2852 236.202 65.9874C215.267 64.6797 194.418 62.3689 173.62 59.7093C152.833 57.3044 132.088 53.7487 111.169 52.8609C107.687 52.8139 104.198 52.9302 100.747 53.3491C90.3288 54.4897 80.4968 58.768 71.9188 64.6142C54.6994 76.4043 41.275 93.39 33.4073 112.536L33.4119 112.532Z" fill="#155689"/>
<path d="M35.0053 115.944C41.6955 100.129 52.3845 85.9418 65.7911 75.0358C76.4624 66.2974 89.2382 59.4749 103.167 57.8932C110.087 57.0626 117.09 57.2989 124.017 57.8599C147.683 59.9539 172.727 63.7153 196.342 66.9517C206.837 68.4301 219.397 69.8716 229.914 71.1285C253.174 73.7696 276.618 75.1899 300.033 74.7432C313.915 74.5273 327.782 73.6884 341.602 72.3725C307.073 76.0933 272.162 76.0546 237.617 72.522C228.722 71.6453 218.049 70.2841 209.161 69.2625C207.639 69.1093 198.014 67.7924 196.254 67.571C172.61 64.3909 147.638 60.562 123.966 58.4395C105.085 56.7239 90.5073 58.7892 74.3952 69.2496C57.0141 80.558 43.2309 97.0915 35.0024 115.949L35.0053 115.944Z" fill="#155689"/>
<path d="M36.5977 119.359C46.3886 97.7486 64.094 78.812 85.8711 68.6369C102.526 60.8112 119.09 61.974 136.867 63.8335C174.626 67.7472 212.064 75.1668 249.693 80.0505C280.502 84.1128 311.596 86.3415 342.687 85.9317C294.269 87.2089 246.037 80.7361 198.363 72.9779C176.202 69.4988 153.999 65.9791 131.655 63.8695C126.505 63.3924 121.336 62.9946 116.164 62.9808C105.825 62.8368 95.4462 64.6751 86.0496 69.0171C64.1903 79.2126 46.6447 97.7348 36.5977 119.357V119.359Z" fill="#155689"/>
<path d="M38.1902 122.771C48.568 101.31 66.5388 83.1964 88.5972 73.4504C104.958 66.1203 122.111 67.0219 139.518 68.8159C180.497 72.9262 221.245 82.2256 261.807 89.1109C288.957 93.7076 316.269 97.6333 343.768 99.49C323.132 98.2663 302.588 95.7849 282.147 92.7579C227.651 85.1722 174.029 70.2491 118.873 68.0241C108.562 67.9401 98.2144 69.6797 88.7551 73.8066C66.8042 83.4023 48.6278 101.508 38.1921 122.771H38.1902Z" fill="#155689"/>
<path d="M39.7844 126.185C47.5372 110.988 59.2056 97.8178 73.3383 88.0921C82.8648 81.5344 93.5697 76.42 105.007 74.1776C110.503 73.0831 116.124 72.6604 121.724 72.6447C142.396 72.9096 162.913 76.074 183.225 79.6315C215.8 85.6871 249.157 93.7952 281.52 100.992C302.519 105.543 323.565 109.984 344.851 113.054C323.547 110.113 302.464 105.816 281.45 101.314C249.054 94.2437 215.711 86.1449 183.134 80.128C162.855 76.5529 142.356 73.3691 121.728 73.0812C116.152 73.0923 110.562 73.503 105.09 74.5707C93.6894 76.767 83.019 81.8279 73.5047 88.3256C59.3645 97.9904 47.6148 111.049 39.7873 126.186L39.7844 126.185Z" fill="#155689"/>
<path d="M41.3768 129.598C51.9369 110.089 69.1694 94.192 89.5382 85.0098C100.761 79.9397 112.396 77.7194 124.708 77.7277C173.075 78.6284 219.973 92.4146 266.207 105.251C292.318 112.579 319.487 120.748 345.929 126.614C332.472 123.722 319.141 120.29 305.864 116.678C252.915 102.467 200.129 84.7449 145.303 79.2319C125.641 77.3512 108.051 76.982 89.6625 85.2894C69.3133 94.4107 52.0257 110.182 41.375 129.599L41.3768 129.598Z" fill="#155689"/>
<path d="M42.9702 133.011C54.8694 112.241 74.5691 95.9389 97.2816 87.8263C111.971 82.4877 127.893 82.1416 143.333 83.3939C193.401 87.3178 241.161 104.14 288.218 120.463C306.99 127.068 327.975 134.573 347.009 140.171C327.979 134.676 306.961 127.27 288.132 120.707C241.058 104.533 193.331 87.7404 143.307 83.7575C127.912 82.5024 112.04 82.818 97.3788 88.093C81.7583 93.6023 67.62 103.057 56.3291 115.026C51.2369 120.487 46.712 126.572 42.9702 133.009V133.011Z" fill="#155689"/>
<path d="M44.5626 136.426C60.5279 110.092 89.6092 91.3524 120.646 88.4261C124.097 88.0884 127.561 87.9214 131.027 87.8826C179.802 87.9952 226.626 104.49 271.291 122.416C296.953 132.711 322.128 144.182 348.092 153.733C322.529 144.482 296.448 132.749 271.199 122.638C229.676 105.984 186.509 90.9049 141.405 88.3846C134.497 88.0293 127.561 88.0173 120.672 88.679C89.7933 91.5158 60.5391 110.296 44.5645 136.426H44.5626Z" fill="#155689"/>
<path d="M46.155 139.838C61.0401 116.513 86.2702 100.209 113.571 94.9247C127.276 92.3094 141.367 92.5429 155.203 93.8958C225.37 100.999 286.152 139.295 349.171 167.293C286.07 139.53 225.294 101.337 155.179 94.1514C141.365 92.7828 127.298 92.5346 113.613 95.1259C86.3459 100.389 61.127 116.598 46.1569 139.835L46.155 139.838Z" fill="#155689"/>
<path d="M47.7474 143.252C64.2959 118.593 92.5809 102.912 122.035 99.0877C131.585 97.8095 141.278 97.6831 150.888 98.271C167.5 99.3313 183.931 102.64 199.853 107.372C253.715 123.403 300.639 155.656 350.249 180.855C300.557 155.841 253.645 123.579 199.775 107.623C183.873 102.879 167.467 99.5565 150.873 98.4804C139.534 97.7745 128.071 98.0707 116.873 100.07C89.3727 104.904 63.38 120.142 47.7455 143.252H47.7474Z" fill="#155689"/>
<path d="M49.3417 146.664C74.7718 110.603 122.629 98.3743 165.02 104.325C169.72 104.915 174.735 105.792 179.373 106.745C206.609 112.447 232.348 123.714 256.58 137.049C288.986 154.804 319.301 176.055 351.334 194.415C319.242 176.153 288.913 154.918 256.498 137.192C232.274 123.883 206.538 112.667 179.331 106.932C174.702 105.978 169.688 105.094 164.997 104.502C122.658 98.5173 74.8316 110.728 49.3417 146.666V146.664Z" fill="#155689"/>
</svg>
